<svg width="151" height="40" viewBox="0 0 151 40" fill="none" xmlns="http://www.w3.org/2000/svg">
<g filter="url(#filter0_n_500_12510)">
<path d="M0 8C0 3.58172 3.58172 0 8 0H143C147.418 0 151 3.58172 151 8V32C151 36.4183 147.418 40 143 40H8C3.58172 40 0 36.4183 0 32V8Z" fill="#0B6E6E"/>
<path d="M16.49 20.1C16.49 19.1387 16.7047 18.28 17.134 17.524C17.5727 16.7587 18.1653 16.166 18.912 15.746C19.668 15.3167 20.5127 15.102 21.446 15.102C22.538 15.102 23.4947 15.382 24.316 15.942C25.1373 16.502 25.7113 17.2767 26.038 18.266H23.784C23.56 17.7993 23.2427 17.4493 22.832 17.216C22.4307 16.9827 21.964 16.866 21.432 16.866C20.8627 16.866 20.354 17.0013 19.906 17.272C19.4673 17.5333 19.122 17.9067 18.87 18.392C18.6273 18.8773 18.506 19.4467 18.506 20.1C18.506 20.744 18.6273 21.3133 18.87 21.808C19.122 22.2933 19.4673 22.6713 19.906 22.942C20.354 23.2033 20.8627 23.334 21.432 23.334C21.964 23.334 22.4307 23.2173 22.832 22.984C23.2427 22.7413 23.56 22.3867 23.784 21.92H26.038C25.7113 22.9187 25.1373 23.698 24.316 24.258C23.504 24.8087 22.5473 25.084 21.446 25.084C20.5127 25.084 19.668 24.874 18.912 24.454C18.1653 24.0247 17.5727 23.432 17.134 22.676C16.7047 21.92 16.49 21.0613 16.49 20.1ZM31.1561 25.126C30.4094 25.126 29.7374 24.9627 29.1401 24.636C28.5428 24.3 28.0714 23.8287 27.7261 23.222C27.3901 22.6153 27.2221 21.9153 27.2221 21.122C27.2221 20.3287 27.3948 19.6287 27.7401 19.022C28.0948 18.4153 28.5754 17.9487 29.1821 17.622C29.7888 17.286 30.4654 17.118 31.2121 17.118C31.9588 17.118 32.6354 17.286 33.2421 17.622C33.8488 17.9487 34.3248 18.4153 34.6701 19.022C35.0248 19.6287 35.2021 20.3287 35.2021 21.122C35.2021 21.9153 35.0201 22.6153 34.6561 23.222C34.3014 23.8287 33.8161 24.3 33.2001 24.636C32.5934 24.9627 31.9121 25.126 31.1561 25.126ZM31.1561 23.418C31.5108 23.418 31.8421 23.334 32.1501 23.166C32.4674 22.9887 32.7194 22.7273 32.9061 22.382C33.0928 22.0367 33.1861 21.6167 33.1861 21.122C33.1861 20.3847 32.9901 19.82 32.5981 19.428C32.2154 19.0267 31.7441 18.826 31.1841 18.826C30.6241 18.826 30.1528 19.0267 29.7701 19.428C29.3968 19.82 29.2101 20.3847 29.2101 21.122C29.2101 21.8593 29.3921 22.4287 29.7561 22.83C30.1294 23.222 30.5961 23.418 31.1561 23.418ZM40.9378 17.132C41.8618 17.132 42.6085 17.426 43.1778 18.014C43.7472 18.5927 44.0318 19.4047 44.0318 20.45V25H42.0718V20.716C42.0718 20.1 41.9178 19.6287 41.6098 19.302C41.3018 18.966 40.8818 18.798 40.3498 18.798C39.8085 18.798 39.3792 18.966 39.0618 19.302C38.7538 19.6287 38.5998 20.1 38.5998 20.716V25H36.6398V17.244H38.5998V18.21C38.8612 17.874 39.1925 17.6127 39.5938 17.426C40.0045 17.23 40.4525 17.132 40.9378 17.132ZM48.1777 18.854V22.606C48.1777 22.8673 48.2384 23.0587 48.3597 23.18C48.4904 23.292 48.705 23.348 49.0037 23.348H49.9137V25H48.6817C47.0297 25 46.2037 24.1973 46.2037 22.592V18.854H45.2797V17.244H46.2037V15.326H48.1777V17.244H49.9137V18.854H48.1777ZM52.3174 16.32C51.9721 16.32 51.6828 16.2127 51.4494 15.998C51.2254 15.774 51.1134 15.4987 51.1134 15.172C51.1134 14.8453 51.2254 14.5747 51.4494 14.36C51.6828 14.136 51.9721 14.024 52.3174 14.024C52.6628 14.024 52.9474 14.136 53.1714 14.36C53.4048 14.5747 53.5214 14.8453 53.5214 15.172C53.5214 15.4987 53.4048 15.774 53.1714 15.998C52.9474 16.2127 52.6628 16.32 52.3174 16.32ZM53.2834 17.244V25H51.3234V17.244H53.2834ZM59.5179 17.132C60.4419 17.132 61.1886 17.426 61.7579 18.014C62.3272 18.5927 62.6119 19.4047 62.6119 20.45V25H60.6519V20.716C60.6519 20.1 60.4979 19.6287 60.1899 19.302C59.8819 18.966 59.4619 18.798 58.9299 18.798C58.3886 18.798 57.9592 18.966 57.6419 19.302C57.3339 19.6287 57.1799 20.1 57.1799 20.716V25H55.2199V17.244H57.1799V18.21C57.4412 17.874 57.7726 17.6127 58.1739 17.426C58.5846 17.23 59.0326 17.132 59.5179 17.132ZM71.7978 17.244V25H69.8238V24.02C69.5718 24.356 69.2404 24.622 68.8298 24.818C68.4284 25.0047 67.9898 25.098 67.5138 25.098C66.9071 25.098 66.3704 24.972 65.9038 24.72C65.4371 24.4587 65.0684 24.0807 64.7978 23.586C64.5364 23.082 64.4058 22.4847 64.4058 21.794V17.244H66.3658V21.514C66.3658 22.13 66.5198 22.606 66.8278 22.942C67.1358 23.2687 67.5558 23.432 68.0878 23.432C68.6291 23.432 69.0538 23.2687 69.3618 22.942C69.6698 22.606 69.8238 22.13 69.8238 21.514V17.244H71.7978ZM80.9416 20.954C80.9416 21.234 80.923 21.486 80.8856 21.71H75.2156C75.2623 22.27 75.4583 22.7087 75.8036 23.026C76.149 23.3433 76.5736 23.502 77.0776 23.502C77.8056 23.502 78.3236 23.1893 78.6316 22.564H80.7456C80.5216 23.3107 80.0923 23.9267 79.4576 24.412C78.823 24.888 78.0436 25.126 77.1196 25.126C76.373 25.126 75.701 24.9627 75.1036 24.636C74.5156 24.3 74.0536 23.8287 73.7176 23.222C73.391 22.6153 73.2276 21.9153 73.2276 21.122C73.2276 20.3193 73.391 19.6147 73.7176 19.008C74.0443 18.4013 74.5016 17.9347 75.0896 17.608C75.6776 17.2813 76.3543 17.118 77.1196 17.118C77.857 17.118 78.515 17.2767 79.0936 17.594C79.6816 17.9113 80.1343 18.364 80.4516 18.952C80.7783 19.5307 80.9416 20.198 80.9416 20.954ZM78.9116 20.394C78.9023 19.89 78.7203 19.4887 78.3656 19.19C78.011 18.882 77.577 18.728 77.0636 18.728C76.5783 18.728 76.1676 18.8773 75.8316 19.176C75.505 19.4653 75.3043 19.8713 75.2296 20.394H78.9116ZM89.0822 25.098C88.4009 25.098 87.7849 24.9813 87.2342 24.748C86.6929 24.5147 86.2635 24.1787 85.9462 23.74C85.6289 23.3013 85.4655 22.7833 85.4562 22.186H87.5562C87.5842 22.5873 87.7242 22.9047 87.9762 23.138C88.2375 23.3713 88.5922 23.488 89.0402 23.488C89.4975 23.488 89.8569 23.3807 90.1182 23.166C90.3795 22.942 90.5102 22.6527 90.5102 22.298C90.5102 22.0087 90.4215 21.7707 90.2442 21.584C90.0669 21.3973 89.8429 21.2527 89.5722 21.15C89.3109 21.038 88.9469 20.9167 88.4802 20.786C87.8455 20.5993 87.3275 20.4173 86.9262 20.24C86.5342 20.0533 86.1935 19.778 85.9042 19.414C85.6242 19.0407 85.4842 18.546 85.4842 17.93C85.4842 17.3513 85.6289 16.8473 85.9182 16.418C86.2075 15.9887 86.6135 15.662 87.1362 15.438C87.6589 15.2047 88.2562 15.088 88.9282 15.088C89.9362 15.088 90.7529 15.3353 91.3782 15.83C92.0129 16.3153 92.3629 16.9967 92.4282 17.874H90.2722C90.2535 17.538 90.1089 17.2627 89.8382 17.048C89.5769 16.824 89.2269 16.712 88.7882 16.712C88.4055 16.712 88.0975 16.81 87.8642 17.006C87.6402 17.202 87.5282 17.4867 87.5282 17.86C87.5282 18.1213 87.6122 18.3407 87.7802 18.518C87.9575 18.686 88.1722 18.826 88.4242 18.938C88.6855 19.0407 89.0495 19.162 89.5162 19.302C90.1509 19.4887 90.6689 19.6753 91.0702 19.862C91.4715 20.0487 91.8169 20.3287 92.1062 20.702C92.3955 21.0753 92.5402 21.5653 92.5402 22.172C92.5402 22.6947 92.4049 23.18 92.1342 23.628C91.8635 24.076 91.4669 24.4353 90.9442 24.706C90.4215 24.9673 89.8009 25.098 89.0822 25.098ZM101.449 20.954C101.449 21.234 101.431 21.486 101.393 21.71H95.7234C95.7701 22.27 95.9661 22.7087 96.3114 23.026C96.6568 23.3433 97.0814 23.502 97.5854 23.502C98.3134 23.502 98.8314 23.1893 99.1394 22.564H101.253C101.029 23.3107 100.6 23.9267 99.9654 24.412C99.3308 24.888 98.5514 25.126 97.6274 25.126C96.8808 25.126 96.2088 24.9627 95.6114 24.636C95.0234 24.3 94.5614 23.8287 94.2254 23.222C93.8988 22.6153 93.7354 21.9153 93.7354 21.122C93.7354 20.3193 93.8988 19.6147 94.2254 19.008C94.5521 18.4013 95.0094 17.9347 95.5974 17.608C96.1854 17.2813 96.8621 17.118 97.6274 17.118C98.3648 17.118 99.0228 17.2767 99.6014 17.594C100.189 17.9113 100.642 18.364 100.959 18.952C101.286 19.5307 101.449 20.198 101.449 20.954ZM99.4194 20.394C99.4101 19.89 99.2281 19.4887 98.8734 19.19C98.5188 18.882 98.0848 18.728 97.5714 18.728C97.0861 18.728 96.6754 18.8773 96.3394 19.176C96.0128 19.4653 95.8121 19.8713 95.7374 20.394H99.4194ZM102.376 21.094C102.376 20.31 102.53 19.6147 102.838 19.008C103.155 18.4013 103.58 17.9347 104.112 17.608C104.653 17.2813 105.255 17.118 105.918 17.118C106.497 17.118 107.001 17.2347 107.43 17.468C107.869 17.7013 108.219 17.9953 108.48 18.35V17.244H110.454V25H108.48V23.866C108.228 24.23 107.878 24.5333 107.43 24.776C106.991 25.0093 106.483 25.126 105.904 25.126C105.251 25.126 104.653 24.958 104.112 24.622C103.58 24.286 103.155 23.8147 102.838 23.208C102.53 22.592 102.376 21.8873 102.376 21.094ZM108.48 21.122C108.48 20.646 108.387 20.24 108.2 19.904C108.013 19.5587 107.761 19.2973 107.444 19.12C107.127 18.9333 106.786 18.84 106.422 18.84C106.058 18.84 105.722 18.9287 105.414 19.106C105.106 19.2833 104.854 19.5447 104.658 19.89C104.471 20.226 104.378 20.6273 104.378 21.094C104.378 21.5607 104.471 21.9713 104.658 22.326C104.854 22.6713 105.106 22.9373 105.414 23.124C105.731 23.3107 106.067 23.404 106.422 23.404C106.786 23.404 107.127 23.3153 107.444 23.138C107.761 22.9513 108.013 22.69 108.2 22.354C108.387 22.0087 108.48 21.598 108.48 21.122ZM114.328 18.448C114.58 18.0373 114.907 17.7153 115.308 17.482C115.719 17.2487 116.186 17.132 116.708 17.132V19.19H116.19C115.574 19.19 115.108 19.3347 114.79 19.624C114.482 19.9133 114.328 20.4173 114.328 21.136V25H112.368V17.244H114.328V18.448ZM117.524 21.122C117.524 20.3193 117.688 19.6193 118.015 19.022C118.341 18.4153 118.794 17.9487 119.373 17.622C119.951 17.286 120.614 17.118 121.361 17.118C122.322 17.118 123.115 17.3607 123.741 17.846C124.375 18.322 124.8 18.994 125.015 19.862H122.901C122.789 19.526 122.597 19.2647 122.327 19.078C122.065 18.882 121.739 18.784 121.347 18.784C120.787 18.784 120.343 18.9893 120.017 19.4C119.69 19.8013 119.527 20.3753 119.527 21.122C119.527 21.8593 119.69 22.4333 120.017 22.844C120.343 23.2453 120.787 23.446 121.347 23.446C122.14 23.446 122.658 23.0913 122.901 22.382H125.015C124.8 23.222 124.375 23.8893 123.741 24.384C123.106 24.8787 122.313 25.126 121.361 25.126C120.614 25.126 119.951 24.9627 119.373 24.636C118.794 24.3 118.341 23.8333 118.015 23.236C117.688 22.6293 117.524 21.9247 117.524 21.122ZM130.818 17.132C131.406 17.132 131.929 17.2627 132.386 17.524C132.844 17.776 133.198 18.154 133.45 18.658C133.712 19.1527 133.842 19.75 133.842 20.45V25H131.882V20.716C131.882 20.1 131.728 19.6287 131.42 19.302C131.112 18.966 130.692 18.798 130.16 18.798C129.619 18.798 129.19 18.966 128.872 19.302C128.564 19.6287 128.41 20.1 128.41 20.716V25H126.45V14.64H128.41V18.21C128.662 17.874 128.998 17.6127 129.418 17.426C129.838 17.23 130.305 17.132 130.818 17.132Z" fill="white"/>
</g>
<defs>
<filter id="filter0_n_500_12510" x="0" y="0" width="151" height="40" filterUnits="userSpaceOnUse" color-interpolation-filters="sRGB">
<feFlood flood-opacity="0" result="BackgroundImageFix"/>
<feBlend mode="normal" in="SourceGraphic" in2="BackgroundImageFix" result="shape"/>
<feTurbulence type="fractalNoise" baseFrequency="2 2" stitchTiles="stitch" numOctaves="3" result="noise" seed="5143" />
<feColorMatrix in="noise" type="luminanceToAlpha" result="alphaNoise" />
<feComponentTransfer in="alphaNoise" result="coloredNoise1">
<feFuncA type="discrete" tableValues="1 1 1 1 1 1 1 1 1 1 1 1 1 1 1 1 1 1 1 1 1 1 1 1 1 1 1 1 1 1 1 1 1 1 1 1 1 1 1 1 1 1 1 1 1 1 1 1 1 1 1 0 0 0 0 0 0 0 0 0 0 0 0 0 0 0 0 0 0 0 0 0 0 0 0 0 0 0 0 0 0 0 0 0 0 0 0 0 0 0 0 0 0 0 0 0 0 0 0 0 "/>
</feComponentTransfer>
<feComposite operator="in" in2="shape" in="coloredNoise1" result="noise1Clipped" />
<feFlood flood-color="rgba(16, 24, 40, 0.05)" result="color1Flood" />
<feComposite operator="in" in2="noise1Clipped" in="color1Flood" result="color1" />
<feMerge result="effect1_noise_500_12510">
<feMergeNode in="shape" />
<feMergeNode in="color1" />
</feMerge>
</filter>
</defs>
</svg>
