<svg width="20" height="20" viewBox="0 0 20 20" fill="none" xmlns="http://www.w3.org/2000/svg">
<path fill-rule="evenodd" clip-rule="evenodd" d="M9.99935 4.1665C9.76927 4.1665 9.58268 3.97995 9.58268 3.74984C9.58268 3.51972 9.76927 3.33317 9.99935 3.33317C10.2294 3.33317 10.416 3.51972 10.416 3.74984C10.416 3.97995 10.2294 4.1665 9.99935 4.1665ZM7.91602 3.74984C7.91602 4.90043 8.84877 5.83317 9.99935 5.83317C11.1499 5.83317 12.0827 4.90043 12.0827 3.74984C12.0827 2.59925 11.1499 1.6665 9.99935 1.6665C8.84877 1.6665 7.91602 2.59925 7.91602 3.74984Z" fill="#0B6969"/>
<path fill-rule="evenodd" clip-rule="evenodd" d="M9.99935 10.4165C9.76927 10.4165 9.58268 10.2299 9.58268 9.99984C9.58268 9.76975 9.76927 9.58317 9.99935 9.58317C10.2294 9.58317 10.416 9.76975 10.416 9.99984C10.416 10.2299 10.2294 10.4165 9.99935 10.4165ZM7.91602 9.99984C7.91602 11.1504 8.84877 12.0832 9.99935 12.0832C11.1499 12.0832 12.0827 11.1504 12.0827 9.99984C12.0827 8.84925 11.1499 7.9165 9.99935 7.9165C8.84877 7.9165 7.91602 8.84925 7.91602 9.99984Z" fill="#0B6969"/>
<path fill-rule="evenodd" clip-rule="evenodd" d="M9.99935 16.6665C9.76927 16.6665 9.58268 16.4799 9.58268 16.2498C9.58268 16.0198 9.76927 15.8332 9.99935 15.8332C10.2294 15.8332 10.416 16.0198 10.416 16.2498C10.416 16.4799 10.2294 16.6665 9.99935 16.6665ZM7.91602 16.2498C7.91602 17.4004 8.84877 18.3332 9.99935 18.3332C11.1499 18.3332 12.0827 17.4004 12.0827 16.2498C12.0827 15.0993 11.1499 14.1665 9.99935 14.1665C8.84877 14.1665 7.91602 15.0993 7.91602 16.2498Z" fill="#0B6969"/>
</svg>
