<svg width="96" height="96" viewBox="0 0 96 96" fill="none" xmlns="http://www.w3.org/2000/svg">
  <!-- Center the original 83x85 logo in a 96x96 square -->
  <g transform="translate(6.5, 5.5)">
    <path d="M44.3505 41.3414C43.2205 42.0214 42.2805 43.0114 41.1005 43.6414C39.6405 42.8514 38.4805 41.6514 37.0005 40.8714C28.8705 36.5814 19.3405 42.7414 20.0905 51.8914C20.7905 60.3714 29.2804 66.2614 34.9004 71.6214C35.0005 71.7114 35.4004 71.9514 35.2404 72.0614C31.6504 74.2914 27.6204 76.6214 23.3004 76.9114C23.2804 76.9114 23.2704 76.9114 23.2604 76.9114H23.0504V84.0614C23.1304 84.0614 23.2105 84.0614 23.2905 84.0514C23.5805 84.0414 23.8705 84.0214 24.1605 84.0014C29.8905 83.5914 35.6005 79.9014 40.4405 76.9114C40.6205 76.8014 40.8004 76.6914 40.9804 76.5814C41.1704 76.6914 41.3605 76.8014 41.5405 76.9114C46.5005 79.8114 52.0905 83.6114 57.9105 84.0014C58.1405 84.0214 58.3804 84.0314 58.6204 84.0414C58.7005 84.0414 58.7804 84.0414 58.8604 84.0514L59.0104 84.0414V76.9014H58.6404C58.6404 76.9014 58.6105 76.9014 58.6005 76.9014C54.4205 76.6214 50.3804 74.3214 46.9204 72.1314C46.8704 71.9114 47.3504 71.5114 47.5204 71.3514C52.7804 66.2614 59.4404 62.0614 61.5104 54.5214C64.4604 43.7414 53.9005 35.5814 44.3405 41.3314M46.9405 62.6214C45.0805 64.3814 43.1005 66.0514 41.1605 67.7214C37.5605 64.4914 33.4805 61.2714 30.3105 57.6114C28.7205 55.7814 26.8604 52.8714 27.2104 50.3514C27.4404 48.7214 29.1605 46.9014 30.7905 46.6614C34.3405 46.1314 37.0804 49.9414 39.5804 51.9814C40.5404 52.7614 40.9105 53.2014 42.0705 52.4114C45.0505 50.3814 48.9804 44.3214 53.1504 47.4214C58.9704 51.7514 50.1804 59.5614 46.9304 62.6414" fill="#0C6C6D"/>
    <path d="M79.56 31.3113L44.25 1.04129C42.65 -0.338709 40.31 -0.348729 38.69 1.02127L2.57001 31.5313C0.940007 32.9113 0 34.9313 0 37.0713V84.0513H7.13V37.0713C7.13 37.0713 7.14998 37.0113 7.16998 36.9913L41.45 8.04129L74.92 36.7313C74.92 36.7313 74.96 36.7813 74.96 36.8113V84.0513H82.1V36.8113C82.1 34.6913 81.18 32.6913 79.57 31.3113" fill="#0C6C6D"/>
  </g>
</svg>
