<svg width="119" height="40" viewBox="0 0 119 40" fill="none" xmlns="http://www.w3.org/2000/svg">
<g filter="url(#filter0_n_500_12445)">
<path d="M0 8C0 3.58172 3.58172 0 8 0H111C115.418 0 119 3.58172 119 8V32C119 36.4183 115.418 40 111 40H8C3.58172 40 0 36.4183 0 32V8Z" fill="white"/>
<path d="M8 0.5H111C115.142 0.5 118.5 3.85786 118.5 8V32C118.5 36.1421 115.142 39.5 111 39.5H8C3.85786 39.5 0.5 36.1421 0.5 32V8C0.5 3.85786 3.85786 0.5 8 0.5Z" stroke="#D0D5DD"/>
<path d="M22 26H20.544L14.688 17.12V26H13.232V14.832H14.688L20.544 23.696V14.832H22V26ZM32.482 21.28C32.482 21.5573 32.466 21.8507 32.434 22.16H25.426C25.4793 23.024 25.7727 23.7013 26.306 24.192C26.85 24.672 27.506 24.912 28.274 24.912C28.9033 24.912 29.426 24.768 29.842 24.48C30.2687 24.1813 30.5673 23.7867 30.738 23.296H32.306C32.0713 24.1387 31.602 24.8267 30.898 25.36C30.194 25.8827 29.3193 26.144 28.274 26.144C27.442 26.144 26.6953 25.9573 26.034 25.584C25.3833 25.2107 24.8713 24.6827 24.498 24C24.1247 23.3067 23.938 22.5067 23.938 21.6C23.938 20.6933 24.1193 19.8987 24.482 19.216C24.8447 18.5333 25.3513 18.0107 26.002 17.648C26.6633 17.2747 27.4207 17.088 28.274 17.088C29.106 17.088 29.842 17.2693 30.482 17.632C31.122 17.9947 31.6127 18.496 31.954 19.136C32.306 19.7653 32.482 20.48 32.482 21.28ZM30.978 20.976C30.978 20.4213 30.8553 19.9467 30.61 19.552C30.3647 19.1467 30.0287 18.8427 29.602 18.64C29.186 18.4267 28.722 18.32 28.21 18.32C27.474 18.32 26.8447 18.5547 26.322 19.024C25.81 19.4933 25.5167 20.144 25.442 20.976H30.978ZM46.0839 17.232L43.3479 26H41.8439L39.7319 19.04L37.6199 26H36.1159L33.3639 17.232H34.8519L36.8679 24.592L39.0439 17.232H40.5319L42.6599 24.608L44.6439 17.232H46.0839ZM55.3305 26.112C54.5945 26.112 53.9332 25.984 53.3465 25.728C52.7705 25.4613 52.3172 25.0987 51.9865 24.64C51.6558 24.1707 51.4852 23.632 51.4745 23.024H53.0265C53.0798 23.5467 53.2932 23.9893 53.6665 24.352C54.0505 24.704 54.6052 24.88 55.3305 24.88C56.0238 24.88 56.5678 24.7093 56.9625 24.368C57.3678 24.016 57.5705 23.568 57.5705 23.024C57.5705 22.5973 57.4532 22.2507 57.2185 21.984C56.9838 21.7173 56.6905 21.5147 56.3385 21.376C55.9865 21.2373 55.5118 21.088 54.9145 20.928C54.1785 20.736 53.5865 20.544 53.1385 20.352C52.7012 20.16 52.3225 19.8613 52.0025 19.456C51.6932 19.04 51.5385 18.4853 51.5385 17.792C51.5385 17.184 51.6932 16.6453 52.0025 16.176C52.3118 15.7067 52.7438 15.344 53.2985 15.088C53.8638 14.832 54.5092 14.704 55.2345 14.704C56.2798 14.704 57.1332 14.9653 57.7945 15.488C58.4665 16.0107 58.8452 16.704 58.9305 17.568H57.3305C57.2772 17.1413 57.0532 16.768 56.6585 16.448C56.2638 16.1173 55.7412 15.952 55.0905 15.952C54.4825 15.952 53.9865 16.112 53.6025 16.432C53.2185 16.7413 53.0265 17.1787 53.0265 17.744C53.0265 18.1493 53.1385 18.48 53.3625 18.736C53.5972 18.992 53.8798 19.1893 54.2105 19.328C54.5518 19.456 55.0265 19.6053 55.6345 19.776C56.3705 19.9787 56.9625 20.1813 57.4105 20.384C57.8585 20.576 58.2425 20.88 58.5625 21.296C58.8825 21.7013 59.0425 22.256 59.0425 22.96C59.0425 23.504 58.8985 24.016 58.6105 24.496C58.3225 24.976 57.8958 25.3653 57.3305 25.664C56.7652 25.9627 56.0985 26.112 55.3305 26.112ZM69.1851 21.28C69.1851 21.5573 69.1691 21.8507 69.1371 22.16H62.1291C62.1825 23.024 62.4758 23.7013 63.0091 24.192C63.5531 24.672 64.2091 24.912 64.9771 24.912C65.6065 24.912 66.1291 24.768 66.5451 24.48C66.9718 24.1813 67.2705 23.7867 67.4411 23.296H69.0091C68.7745 24.1387 68.3051 24.8267 67.6011 25.36C66.8971 25.8827 66.0225 26.144 64.9771 26.144C64.1451 26.144 63.3985 25.9573 62.7371 25.584C62.0865 25.2107 61.5745 24.6827 61.2011 24C60.8278 23.3067 60.6411 22.5067 60.6411 21.6C60.6411 20.6933 60.8225 19.8987 61.1851 19.216C61.5478 18.5333 62.0545 18.0107 62.7051 17.648C63.3665 17.2747 64.1238 17.088 64.9771 17.088C65.8091 17.088 66.5451 17.2693 67.1851 17.632C67.8251 17.9947 68.3158 18.496 68.6571 19.136C69.0091 19.7653 69.1851 20.48 69.1851 21.28ZM67.6811 20.976C67.6811 20.4213 67.5585 19.9467 67.3131 19.552C67.0678 19.1467 66.7318 18.8427 66.3051 18.64C65.8891 18.4267 65.4251 18.32 64.9131 18.32C64.1771 18.32 63.5478 18.5547 63.0251 19.024C62.5131 19.4933 62.2198 20.144 62.1451 20.976H67.6811ZM70.563 21.584C70.563 20.688 70.7443 19.904 71.107 19.232C71.4697 18.5493 71.9657 18.0213 72.595 17.648C73.235 17.2747 73.9443 17.088 74.723 17.088C75.491 17.088 76.1577 17.2533 76.723 17.584C77.2883 17.9147 77.7097 18.3307 77.987 18.832V17.232H79.459V26H77.987V24.368C77.699 24.88 77.267 25.3067 76.691 25.648C76.1257 25.9787 75.4643 26.144 74.707 26.144C73.9283 26.144 73.2243 25.952 72.595 25.568C71.9657 25.184 71.4697 24.6453 71.107 23.952C70.7443 23.2587 70.563 22.4693 70.563 21.584ZM77.987 21.6C77.987 20.9387 77.8537 20.3627 77.587 19.872C77.3203 19.3813 76.9577 19.008 76.499 18.752C76.051 18.4853 75.555 18.352 75.011 18.352C74.467 18.352 73.971 18.48 73.523 18.736C73.075 18.992 72.7177 19.3653 72.451 19.856C72.1843 20.3467 72.051 20.9227 72.051 21.584C72.051 22.256 72.1843 22.8427 72.451 23.344C72.7177 23.8347 73.075 24.2133 73.523 24.48C73.971 24.736 74.467 24.864 75.011 24.864C75.555 24.864 76.051 24.736 76.499 24.48C76.9577 24.2133 77.3203 23.8347 77.587 23.344C77.8537 22.8427 77.987 22.2613 77.987 21.6ZM83.3755 18.656C83.6315 18.1547 83.9942 17.7653 84.4635 17.488C84.9435 17.2107 85.5248 17.072 86.2075 17.072V18.576H85.8235C84.1915 18.576 83.3755 19.4613 83.3755 21.232V26H81.9195V17.232H83.3755V18.656ZM87.3443 21.6C87.3443 20.6933 87.5256 19.904 87.8883 19.232C88.2509 18.5493 88.7523 18.0213 89.3923 17.648C90.0429 17.2747 90.7843 17.088 91.6163 17.088C92.6936 17.088 93.5789 17.3493 94.2723 17.872C94.9763 18.3947 95.4403 19.12 95.6643 20.048H94.0963C93.9469 19.5147 93.6536 19.0933 93.2163 18.784C92.7896 18.4747 92.2563 18.32 91.6163 18.32C90.7843 18.32 90.1123 18.608 89.6003 19.184C89.0883 19.7493 88.8323 20.5547 88.8323 21.6C88.8323 22.656 89.0883 23.472 89.6003 24.048C90.1123 24.624 90.7843 24.912 91.6163 24.912C92.2563 24.912 92.7896 24.7627 93.2163 24.464C93.6429 24.1653 93.9363 23.7387 94.0963 23.184H95.6643C95.4296 24.08 94.9603 24.8 94.2563 25.344C93.5523 25.8773 92.6723 26.144 91.6163 26.144C90.7843 26.144 90.0429 25.9573 89.3923 25.584C88.7523 25.2107 88.2509 24.6827 87.8883 24C87.5256 23.3173 87.3443 22.5173 87.3443 21.6ZM101.959 17.072C102.62 17.072 103.218 17.216 103.751 17.504C104.284 17.7813 104.7 18.2027 104.999 18.768C105.308 19.3333 105.463 20.0213 105.463 20.832V26H104.023V21.04C104.023 20.1653 103.804 19.4987 103.367 19.04C102.93 18.5707 102.332 18.336 101.575 18.336C100.807 18.336 100.194 18.576 99.735 19.056C99.287 19.536 99.063 20.2347 99.063 21.152V26H97.607V14.16H99.063V18.48C99.351 18.032 99.7457 17.6853 100.247 17.44C100.759 17.1947 101.33 17.072 101.959 17.072Z" fill="#667085"/>
</g>
<defs>
<filter id="filter0_n_500_12445" x="0" y="0" width="119" height="40" filterUnits="userSpaceOnUse" color-interpolation-filters="sRGB">
<feFlood flood-opacity="0" result="BackgroundImageFix"/>
<feBlend mode="normal" in="SourceGraphic" in2="BackgroundImageFix" result="shape"/>
<feTurbulence type="fractalNoise" baseFrequency="2 2" stitchTiles="stitch" numOctaves="3" result="noise" seed="5143" />
<feColorMatrix in="noise" type="luminanceToAlpha" result="alphaNoise" />
<feComponentTransfer in="alphaNoise" result="coloredNoise1">
<feFuncA type="discrete" tableValues="0 0 1 1 1 1 1 1 1 1 1 1 1 1 1 1 1 1 1 1 1 1 1 1 1 1 1 1 1 1 1 1 1 1 1 1 1 1 1 1 1 1 1 1 1 1 1 1 0 0 0 0 0 0 0 0 0 0 0 0 0 0 0 0 0 0 0 0 0 0 0 0 0 0 0 0 0 0 0 0 0 0 0 0 0 0 0 0 0 0 0 0 0 0 0 0 0 0 0 0 "/>
</feComponentTransfer>
<feComposite operator="in" in2="shape" in="coloredNoise1" result="noise1Clipped" />
<feFlood flood-color="rgba(16, 24, 40, 0.02)" result="color1Flood" />
<feComposite operator="in" in2="noise1Clipped" in="color1Flood" result="color1" />
<feMerge result="effect1_noise_500_12445">
<feMergeNode in="shape" />
<feMergeNode in="color1" />
</feMerge>
</filter>
</defs>
</svg>
