<svg width="44" height="44" viewBox="0 0 44 44" fill="none" xmlns="http://www.w3.org/2000/svg">
<path d="M22 38.4997V12.833" stroke="#6E6B5D" stroke-width="2" stroke-linecap="round" stroke-linejoin="round"/>
<path d="M29.333 21.9997L32.9997 25.6663L40.333 18.333" stroke="#6E6B5D" stroke-width="2" stroke-linecap="round" stroke-linejoin="round"/>
<path d="M40.3337 11V7.33333C40.3337 6.8471 40.1405 6.38079 39.7967 6.03697C39.4529 5.69315 38.9866 5.5 38.5003 5.5H29.3337C27.3887 5.5 25.5235 6.27262 24.1482 7.64788C22.7729 9.02315 22.0003 10.8884 22.0003 12.8333C22.0003 10.8884 21.2277 9.02315 19.8524 7.64788C18.4772 6.27262 16.6119 5.5 14.667 5.5H5.50033C5.0141 5.5 4.54778 5.69315 4.20396 6.03697C3.86015 6.38079 3.66699 6.8471 3.66699 7.33333V31.1667C3.66699 31.6529 3.86015 32.1192 4.20396 32.463C4.54778 32.8068 5.0141 33 5.50033 33H16.5003C17.959 33 19.358 33.5795 20.3894 34.6109C21.4209 35.6424 22.0003 37.0413 22.0003 38.5C22.0003 37.0413 22.5798 35.6424 23.6112 34.6109C24.6427 33.5795 26.0416 33 27.5003 33H38.5003C38.9866 33 39.4529 32.8068 39.7967 32.463C40.1405 32.1192 40.3337 31.6529 40.3337 31.1667V28.7833" stroke="#6E6B5D" stroke-width="2" stroke-linecap="round" stroke-linejoin="round"/>
</svg>
