<svg width="44" height="44" viewBox="0 0 44 44" fill="none" xmlns="http://www.w3.org/2000/svg">
<path d="M25.6667 7.5166L22 10.9999" stroke="#56C756" stroke-width="2" stroke-linecap="round" stroke-linejoin="round"/>
<path d="M9.34987 14.6669L4.0332 13.2002" stroke="#56C756" stroke-width="2" stroke-linecap="round" stroke-linejoin="round"/>
<path d="M10.9999 22L7.5166 25.6667" stroke="#56C756" stroke-width="2" stroke-linecap="round" stroke-linejoin="round"/>
<path d="M13.2002 4.0332L14.6669 9.34987" stroke="#56C756" stroke-width="2" stroke-linecap="round" stroke-linejoin="round"/>
<path d="M16.5677 17.7649C16.4966 17.5974 16.4772 17.4125 16.5119 17.2339C16.5466 17.0553 16.6339 16.8912 16.7625 16.7625C16.8912 16.6339 17.0553 16.5466 17.2339 16.5119C17.4125 16.4772 17.5974 16.4966 17.7649 16.5677L37.9315 24.8177C38.111 24.8913 38.2625 25.02 38.3642 25.1852C38.4659 25.3504 38.5126 25.5436 38.4975 25.737C38.4824 25.9305 38.4064 26.1141 38.2803 26.2615C38.1542 26.409 37.9846 26.5126 37.7959 26.5575L29.8227 28.466C29.4936 28.5447 29.1926 28.7128 28.9531 28.952C28.7137 29.1911 28.5451 29.4918 28.466 29.8209L26.5594 37.7959C26.5149 37.9852 26.4114 38.1556 26.2638 38.2822C26.1161 38.4089 25.9321 38.4853 25.7381 38.5004C25.5442 38.5155 25.3505 38.4685 25.185 38.3662C25.0196 38.264 24.8909 38.1117 24.8177 37.9315L16.5677 17.7649Z" stroke="#56C756" stroke-width="2" stroke-linecap="round" stroke-linejoin="round"/>
</svg>
