<svg width="20" height="20" viewBox="0 0 20 20" fill="none" xmlns="http://www.w3.org/2000/svg">
<path d="M9.30273 10.313C9.4325 10.5054 9.7009 10.6272 9.9948 10.6272C10.2991 10.6272 10.575 10.4967 10.6991 10.2939" stroke="black" stroke-width="0.7" stroke-miterlimit="2.6131" stroke-linecap="round" stroke-linejoin="round"/>
<path d="M12.8162 9.37519L12.8165 9.375M7.18164 9.37519L7.18187 9.375" stroke="black" stroke-width="1.40624" stroke-miterlimit="2.6131" stroke-linecap="round" stroke-linejoin="round"/>
<path d="M6.36366 13.3984C5.29867 14.3816 4.62891 15.7874 4.62891 17.3422V19.6094H15.3711V17.3422C15.3711 15.7874 14.7013 14.3816 13.6363 13.3984M6.87499 19.6094V16.9439M13.125 16.9439V19.4141M6.67968 17.8515H4.82422M15.1757 17.8515H13.3202" stroke="black" stroke-width="0.7" stroke-miterlimit="2.6131" stroke-linecap="round" stroke-linejoin="round"/>
<path d="M3.65234 7.51953V8.6914C3.65234 11.8316 6.49429 14.3773 9.99998 14.3773C13.5057 14.3773 16.3476 11.8316 16.3476 8.6914L16.3476 7.51953" stroke="black" stroke-width="0.7" stroke-miterlimit="2.6131" stroke-linecap="round" stroke-linejoin="round"/>
<path d="M11.5429 14.42V14.4591C11.5429 15.3077 10.8486 16.002 9.99997 16.002H9.99993C9.15134 16.002 8.45696 15.3077 8.45696 14.4591V14.42M16.0778 10.3571H17.0772C17.9147 10.3571 18.5936 9.67821 18.5936 8.84067C18.5936 8.00313 17.9147 7.32419 17.0772 7.32419H16.0671C14.1357 7.32419 12.5554 6.44529 12.5554 5.37107C12.5554 6.44529 10.9752 7.32419 9.04376 7.32419H2.92273C2.08519 7.32419 1.40625 8.00313 1.40625 8.84067C1.40625 9.67821 2.08519 10.3571 2.92273 10.3571H3.92218M17.4678 7.23435V6.62302C17.4678 3.19522 14.6631 0.390625 11.2354 0.390625H8.7645C7.21638 0.390625 5.79545 0.962888 4.70249 1.90617M2.788 4.86033C2.61804 5.43246 2.53185 6.02619 2.5321 6.62302V7.23435M9.02341 17.767H10.9765" stroke="black" stroke-width="0.7" stroke-miterlimit="22.9256" stroke-linecap="round" stroke-linejoin="round"/>
<path d="M3.52539 3.25684H3.52572" stroke="black" stroke-width="0.7" stroke-miterlimit="22.9256" stroke-linecap="round" stroke-linejoin="round"/>
</svg>
