<svg width="20" height="20" viewBox="0 0 20 20" fill="none" xmlns="http://www.w3.org/2000/svg">
<g clip-path="url(#clip0_500_12506)">
<path d="M13.0078 3.51562C13.2667 3.51562 13.4766 3.30576 13.4766 3.04688C13.4766 2.78799 13.2667 2.57812 13.0078 2.57812C12.7489 2.57812 12.5391 2.78799 12.5391 3.04688C12.5391 3.30576 12.7489 3.51562 13.0078 3.51562Z" fill="black"/>
<path d="M19.6857 2.8657C19.5989 2.77857 19.4956 2.7095 19.382 2.66248C19.2683 2.61546 19.1465 2.59142 19.0235 2.59176H19.0215L15.7076 2.59859L15.0041 1.69703C14.1801 0.641133 12.9403 0.0361328 11.6013 0.0361328L11.5051 0.0363281C11.0531 0.036995 10.6037 0.105869 10.1723 0.240625C10.1515 0.24 10.1306 0.239141 10.1097 0.239141C9.5813 0.239141 9.0845 0.444922 8.71087 0.818555L4.2179 5.31152C3.49036 6.0391 3.34501 7.16758 3.86454 8.05574C3.94366 8.19072 4.03654 8.31715 4.14169 8.43301C3.80399 8.82902 3.47829 9.2361 3.16731 9.65535C1.96141 11.2811 0.917154 13.1337 0.0635605 15.1617C0.0435575 15.2092 0.0356122 15.2609 0.0404323 15.3122C0.0452524 15.3635 0.0626882 15.4129 0.0911867 15.4558C0.119685 15.4988 0.158362 15.534 0.203771 15.5584C0.249181 15.5827 0.299914 15.5955 0.351451 15.5955C0.473404 15.5955 0.589303 15.5236 0.639576 15.4042C1.47379 13.4222 2.49313 11.6133 3.66926 10.0277C3.97309 9.61817 4.29129 9.22051 4.62122 8.83375C4.78341 8.93497 4.95777 9.01526 5.14012 9.0727C5.46073 9.17355 5.79485 9.22487 6.13094 9.22488C7.14665 9.22488 8.12833 8.75629 8.75649 7.92086C9.55325 6.86121 10.1455 5.75563 10.5168 4.63469C10.5428 4.55601 10.5366 4.47021 10.4994 4.39615C10.4622 4.32208 10.3971 4.26583 10.3184 4.23977C10.2397 4.21371 10.1539 4.21998 10.0799 4.25719C10.0058 4.29439 9.94958 4.35949 9.92352 4.43816C9.5736 5.49457 9.01286 6.53992 8.25692 7.54527C7.58333 8.44121 6.40618 8.81547 5.32751 8.47645C4.93874 8.35459 4.60942 8.09207 4.40399 7.74024C4.0279 7.09723 4.13313 6.28024 4.65989 5.75352L9.15286 1.26055C9.4084 1.00492 9.74829 0.86418 10.1097 0.86418C10.4712 0.86418 10.8111 1.00492 11.0666 1.26055C11.0957 1.28957 11.1301 1.31259 11.168 1.32829C11.2059 1.344 11.2466 1.35208 11.2876 1.35208C11.3287 1.35208 11.3693 1.344 11.4072 1.32829C11.4451 1.31259 11.4796 1.28957 11.5086 1.26055C11.5376 1.23153 11.5606 1.19708 11.5763 1.15916C11.5921 1.12125 11.6001 1.08061 11.6001 1.03957C11.6001 0.998531 11.5921 0.957893 11.5763 0.919978C11.5606 0.882063 11.5376 0.847612 11.5086 0.818594C11.454 0.76426 11.3964 0.713108 11.3359 0.665391C11.3927 0.662811 11.4495 0.661469 11.5063 0.661367L11.6013 0.661172C12.7464 0.661172 13.8068 1.17859 14.5113 2.08152L15.309 3.10367C15.3382 3.14113 15.3756 3.17143 15.4183 3.19227C15.461 3.21311 15.5079 3.22395 15.5554 3.22395H15.556L17.0455 3.22082V3.55855C17.0455 3.90211 17.2658 4.2018 17.5937 4.30426L19.3359 4.84863V5.21707C19.3359 5.68285 19.0018 6.0725 18.5415 6.14363L13.4679 6.92731C13.4403 6.9316 13.4139 6.94047 13.3887 6.95172C12.6811 6.93938 12.0607 6.65953 11.4409 6.07231C11.3806 6.01568 11.3004 5.98522 11.2178 5.98762C11.1351 5.99001 11.0568 6.02505 11 6.08506C10.9431 6.14508 10.9123 6.22518 10.9144 6.30782C10.9165 6.39047 10.9512 6.46893 11.011 6.52602C11.5935 7.07789 12.2046 7.40762 12.8653 7.52656C12.6028 7.8716 12.3514 8.26539 12.1086 8.71203L12.1226 8.39496C12.1271 8.29449 12.1021 8.19491 12.0508 8.10843C11.9994 8.02196 11.924 7.95236 11.8336 7.9082C11.7432 7.86403 11.642 7.84722 11.5422 7.85982C11.4424 7.87243 11.3485 7.9139 11.272 7.97914L10.517 8.6225C9.13809 9.79781 8.04169 11.3035 7.34649 12.9767C6.6513 14.6499 6.35794 16.4892 6.49805 18.2957L6.51618 18.5292C6.54381 18.883 6.52272 19.239 6.45348 19.5871C6.43727 19.6683 6.45401 19.7527 6.50002 19.8217C6.54602 19.8906 6.61752 19.9384 6.69879 19.9547C6.73904 19.9627 6.78048 19.9627 6.82074 19.9548C6.861 19.9468 6.89929 19.9309 6.93343 19.9082C6.96757 19.8854 6.99688 19.8561 7.0197 19.822C7.04252 19.7879 7.05839 19.7496 7.06641 19.7093C7.14685 19.3051 7.17138 18.8917 7.1393 18.4808L7.12118 18.2473C6.98864 16.5388 7.2661 14.7991 7.92368 13.2165C8.58122 11.6339 9.61817 10.2098 10.9225 9.0982L11.4872 8.61695L11.4111 10.3286C11.4099 10.355 11.4107 10.3812 11.4125 10.407C11.4123 10.4083 11.4119 10.4095 11.4116 10.4107C11.3698 10.6332 11.3037 10.8201 11.2126 10.9746L10.8236 11.3636C10.6796 11.4458 10.51 11.4991 10.3127 11.5246C10.272 11.5298 10.2327 11.5431 10.1971 11.5635C10.1616 11.5839 10.1303 11.6112 10.1053 11.6437C10.0547 11.7093 10.0322 11.7924 10.0429 11.8746C10.0535 11.9568 10.0963 12.0314 10.162 12.082C10.2276 12.1326 10.3107 12.155 10.3929 12.1444C11.1188 12.0506 11.6281 11.6616 11.8878 11.0104C11.9395 11.027 11.9936 11.0383 12.0499 11.042C12.4091 11.0656 12.9867 11.1042 13.5625 11.1429C14.4857 11.2048 15.2425 11.9156 15.3622 12.833L15.4549 13.5432C15.4755 13.7026 15.5516 13.8495 15.6698 13.9584C15.7879 14.0673 15.9406 14.1312 16.1011 14.1388L16.8864 14.1768C17.0965 14.187 17.2868 14.2912 17.4086 14.4627C17.5305 14.6341 17.5661 14.8482 17.5065 15.0499L17.1532 16.2461C17.0876 16.4695 16.9571 16.6684 16.7783 16.8176C16.5994 16.9667 16.3802 17.0592 16.1486 17.0835L13.6629 17.3486C13.489 17.367 13.3224 17.4282 13.178 17.5269C13.0337 17.6255 12.9161 17.7585 12.8358 17.9139C12.7553 18.0685 12.7145 18.2407 12.717 18.415C12.7196 18.5893 12.7654 18.7602 12.8503 18.9125C13.0062 19.1918 13.148 19.4788 13.2751 19.7724C13.2994 19.8284 13.3394 19.876 13.3904 19.9095C13.4414 19.943 13.501 19.9608 13.562 19.9608C13.6138 19.9608 13.6648 19.9479 13.7104 19.9232C13.756 19.8986 13.7947 19.863 13.8232 19.8197C13.8516 19.7764 13.8688 19.7267 13.8732 19.6751C13.8777 19.6234 13.8692 19.5715 13.8486 19.524C13.7133 19.2114 13.5623 18.9058 13.3963 18.6084C13.3251 18.4803 13.323 18.332 13.3907 18.2016C13.4588 18.0702 13.5822 17.9858 13.7292 17.9701L16.215 17.705C16.9418 17.6275 17.5454 17.1243 17.7525 16.4232L18.1059 15.227C18.2202 14.8401 18.1518 14.4296 17.9181 14.1007C17.6845 13.7718 17.3195 13.572 16.9166 13.5526L16.1312 13.5146C16.1172 13.5139 16.1038 13.5083 16.0934 13.4988C16.0831 13.4892 16.0764 13.4763 16.0746 13.4624L15.982 12.7522C15.8239 11.5402 14.824 10.6011 13.6044 10.5193C13.0282 10.4806 12.4503 10.442 12.0909 10.4184C12.0753 10.4174 12.0608 10.4104 12.0504 10.3988C12.04 10.3872 12.0346 10.3719 12.0354 10.3564L12.041 10.232C12.0745 10.2021 12.1011 10.1652 12.119 10.124C12.6046 9.00317 13.1134 8.15254 13.6722 7.52816L18.637 6.76129C19.4041 6.64277 19.9609 5.99332 19.9609 5.21707V3.52926C19.9613 3.40594 19.9371 3.28378 19.8899 3.16987C19.8426 3.05596 19.7732 2.95257 19.6857 2.8657ZM17.7801 3.7077C17.7483 3.69786 17.7204 3.67805 17.7007 3.65121C17.681 3.62436 17.6704 3.59188 17.6705 3.55855V3.21957L19.0228 3.21676H19.0234C19.1068 3.21676 19.1852 3.24918 19.2442 3.30809C19.2734 3.33704 19.2965 3.3715 19.3122 3.40947C19.328 3.44744 19.3361 3.48815 19.3359 3.52926V4.19387L17.7801 3.7077Z" fill="black"/>
<path d="M13.3984 13.7109C13.6573 13.7109 13.8672 13.5011 13.8672 13.2422C13.8672 12.9833 13.6573 12.7734 13.3984 12.7734C13.1396 12.7734 12.9297 12.9833 12.9297 13.2422C12.9297 13.5011 13.1396 13.7109 13.3984 13.7109Z" fill="black"/>
</g>
<defs>
<clipPath id="clip0_500_12506">
<rect width="20" height="20" fill="white"/>
</clipPath>
</defs>
</svg>
