<svg width="178" height="178" viewBox="0 0 178 178" fill="none" xmlns="http://www.w3.org/2000/svg">
<path d="M166.79 132.239C177.373 113.198 180.606 90.9374 175.875 69.6729C171.145 48.4083 158.779 29.6173 141.121 16.8594C123.464 4.10155 101.74 -1.73701 80.0657 0.449717C58.3914 2.63645 38.2717 12.6966 23.5182 28.7245C8.76463 44.7523 0.401882 65.6346 0.0141139 87.4155C-0.373654 109.196 7.24048 130.363 21.4142 146.906C35.5879 163.449 55.3367 174.219 76.9195 177.176C98.5023 180.133 120.42 175.071 138.521 162.95C139.866 155.689 143.232 148.956 148.233 143.523C153.233 138.091 159.665 134.179 166.79 132.239Z" fill="#66BB6A" fill-opacity="0.1"/>
</svg>
