<svg width="200" height="200" viewBox="0 0 200 200" fill="none" xmlns="http://www.w3.org/2000/svg">
<path d="M130.819 193.991C130.822 187.787 132.296 181.673 135.12 176.15C137.944 170.627 142.038 165.853 147.066 162.219C152.093 158.585 157.911 156.196 164.041 155.246C170.172 154.297 176.44 154.815 182.331 156.759C195.783 137.245 201.868 113.587 199.499 90.0045C197.13 66.4217 186.461 44.447 169.396 27.999C152.331 11.551 129.978 1.69919 106.324 0.200279C82.6698 -1.29863 59.2524 5.65281 40.2474 19.8151C21.2423 33.9773 7.88542 54.4296 2.5585 77.5248C-2.76843 100.62 0.280994 124.856 11.1629 145.912C22.0448 166.968 40.0518 183.474 61.9727 192.487C83.8936 201.5 108.303 202.434 130.849 195.122C130.839 194.742 130.819 194.371 130.819 193.991Z" fill="#FDD835" fill-opacity="0.1"/>
</svg>
