<svg width="7" height="7" viewBox="0 0 7 7" fill="none" xmlns="http://www.w3.org/2000/svg">
<path d="M6.99942 3.52143C6.99513 4.21359 6.7857 4.88896 6.39759 5.46209C6.00949 6.03523 5.46012 6.4804 4.81901 6.74133C4.17789 7.00226 3.47383 7.0672 2.7958 6.92797C2.11777 6.78875 1.49622 6.45158 1.0098 5.95912C0.523391 5.46667 0.193955 4.84106 0.0631074 4.16136C-0.0677401 3.48166 0.00588259 2.7784 0.274704 2.14056C0.543526 1.50271 0.995476 0.958897 1.57336 0.577895C2.15124 0.196892 2.82911 -0.00419315 3.52128 6.62931e-05C4.44769 0.0114342 5.3323 0.387459 5.98337 1.04661C6.63443 1.70576 6.99949 2.59494 6.99942 3.52143Z" fill="white"/>
</svg>
