<svg width="231" height="231" viewBox="0 0 231 231" fill="none" xmlns="http://www.w3.org/2000/svg">
<path d="M231 115.47C231.006 138.315 224.237 160.649 211.549 179.646C198.862 198.644 180.825 213.453 159.721 222.199C138.617 230.946 115.392 233.238 92.9856 228.784C70.5788 224.331 49.9958 213.333 33.8399 197.181C17.6839 181.03 6.68058 160.45 2.22155 138.044C-2.23748 115.638 0.0480691 92.4136 8.78911 71.307C17.5301 50.2004 32.334 32.16 51.3286 19.4673C70.3231 6.77471 92.655 7.73967e-07 115.5 0C146.127 -1.03762e-06 175.501 12.1646 197.16 33.8186C218.82 55.4725 230.992 84.8426 231 115.47Z" fill="#C0CA33" fill-opacity="0.1"/>
</svg>
