<svg width="178" height="178" viewBox="0 0 178 178" fill="none" xmlns="http://www.w3.org/2000/svg">
<path d="M88.9665 0C73.4794 0.0144926 58.2639 4.06776 44.822 11.7596C31.3801 19.4515 20.1766 30.516 12.3176 43.8609C4.45859 57.2058 0.215766 72.3696 0.00801447 87.8553C-0.199737 103.341 3.63476 118.613 11.133 132.164C17.3678 134.412 22.9318 138.202 27.3059 143.182C31.6799 148.161 34.7215 154.167 36.147 160.64C47.473 168.989 60.6171 174.533 74.5008 176.818C88.3845 179.103 102.612 178.064 116.017 173.786C129.421 169.507 141.62 162.112 151.612 152.206C161.605 142.3 169.106 130.166 173.501 116.799C177.897 103.433 179.06 89.2148 176.896 75.3117C174.732 61.4086 169.302 48.2167 161.052 36.8183C152.803 25.42 141.968 16.1401 129.437 9.73995C116.907 3.33982 103.037 0.00186059 88.9665 0Z" fill="#FF7043" fill-opacity="0.1"/>
</svg>
