<svg width="975" height="598" viewBox="0 0 975 598" fill="none" xmlns="http://www.w3.org/2000/svg">
<path d="M233.317 201.878C234.792 201.311 236.298 200.83 237.829 200.437C233.502 188.163 231.6 175.166 232.227 162.166C234.578 111.032 276.47 69.1398 327.604 66.7891C341.15 66.149 354.685 68.2643 367.389 73.0069C380.093 77.7495 391.703 85.0209 401.516 94.3808C411.328 103.741 419.139 114.994 424.476 127.461C429.813 139.927 432.565 153.347 432.564 166.908C432.564 195.996 424.832 218.313 408.227 237.158C406.473 239.178 405.46 241.736 405.356 244.41C405.253 247.083 406.064 249.712 407.657 251.862L420.001 268.407C421.849 270.857 424.58 272.49 427.614 272.959C430.647 273.427 433.743 272.695 436.245 270.918C461.633 252.642 492.131 242.569 519.879 243.25C539.115 243.74 556.62 246.951 571.894 252.842C575.458 254.205 579.407 254.158 582.937 252.712C586.468 251.267 589.315 248.53 590.9 245.06L610.205 202.618C611.612 199.559 611.941 196.114 611.138 192.844C610.335 189.574 608.448 186.672 605.784 184.613C592.165 174.134 581.466 160.331 574.714 144.529C567.962 128.727 565.382 111.455 567.223 94.3698C569.064 77.2844 575.263 60.9584 585.226 46.9572C595.189 32.956 608.582 21.7491 624.121 14.4111C639.66 7.07311 656.823 3.85009 673.965 5.05108C691.107 6.25208 707.654 11.8368 722.017 21.2698C736.381 30.7028 748.081 43.6677 755.994 58.9214C763.908 74.175 767.77 91.2059 767.21 108.381C766.869 118.717 764.842 128.927 761.208 138.61C762.746 138.979 764.26 139.444 765.74 140C769.497 129.918 771.598 119.294 771.962 108.541C772.433 94.4608 770.066 80.4296 765.003 67.2828C759.939 54.1359 752.283 42.142 742.489 32.015C732.695 21.8879 720.964 13.8347 707.994 8.33468C695.024 2.83464 681.08 0.000176633 666.991 0C665.841 0 664.671 -2.44076e-06 663.5 0.0600148C641.859 0.754841 620.962 8.12112 603.669 21.1505C586.375 34.1799 573.531 52.2355 566.895 72.8458C560.259 93.4561 560.155 115.614 566.597 136.285C573.039 156.957 585.713 175.133 602.883 188.324C604.71 189.731 606.002 191.719 606.547 193.959C607.093 196.199 606.859 198.558 605.884 200.647L586.548 243.09C585.477 245.476 583.531 247.359 581.111 248.351C578.691 249.344 575.982 249.369 573.545 248.421C557.77 242.349 539.745 239.018 519.959 238.508C491.181 237.758 459.652 248.201 433.445 267.066C431.956 268.134 430.109 268.575 428.299 268.297C426.489 268.018 424.86 267.041 423.762 265.576L411.498 249.041C410.552 247.763 410.07 246.201 410.13 244.612C410.19 243.023 410.789 241.502 411.828 240.299C429.223 220.513 437.336 197.206 437.336 166.908C437.337 152.703 434.455 138.646 428.864 125.588C423.273 112.53 415.09 100.743 404.811 90.9399C394.531 81.137 382.368 73.5228 369.059 68.5583C355.751 63.5938 341.573 61.3823 327.384 62.0578C273.829 64.5185 229.956 108.401 227.496 161.946C226.841 175.508 228.818 189.068 233.317 201.878ZM737.592 424.562C736.638 426.831 734.903 428.684 732.701 429.785C730.499 430.886 727.976 431.162 725.588 430.563L675.814 417.68C673.398 417.072 671.285 415.607 669.87 413.557C668.454 411.506 667.833 409.011 668.122 406.536C668.914 400.279 669.312 393.978 669.312 387.671C669.349 364.933 664.16 342.491 654.146 322.077C644.132 301.664 629.56 283.825 611.556 269.937C609.718 268.516 608.42 266.511 607.874 264.252C607.329 261.994 607.569 259.617 608.555 257.514L629.481 212.561C630.463 210.407 632.168 208.664 634.3 207.634C636.431 206.604 638.856 206.351 641.154 206.919C649.832 209.105 658.753 210.174 667.702 210.1C682.795 209.949 697.661 206.411 711.204 199.747C710.522 198.335 709.927 196.882 709.424 195.396C696.43 201.812 682.162 205.231 667.672 205.399H666.962C658.652 205.401 650.373 204.376 642.314 202.348C638.947 201.512 635.393 201.878 632.267 203.383C629.14 204.888 626.637 207.437 625.19 210.59L604.254 255.553C602.843 258.622 602.51 262.077 603.306 265.359C604.103 268.641 605.984 271.558 608.645 273.638C628.492 289.02 643.984 309.313 653.59 332.512C663.196 355.712 666.585 381.016 663.42 405.926C662.975 409.543 663.861 413.199 665.914 416.21C667.966 419.221 671.044 421.383 674.574 422.291L724.358 435.175C727.846 436.069 731.54 435.68 734.765 434.076C737.99 432.473 740.531 429.763 741.923 426.442C751.109 405.133 766.324 386.973 785.695 374.197C805.066 361.421 827.749 354.586 850.954 354.532H851.254C915.693 354.532 969.058 406.837 970.238 471.275C970.751 494.619 964.336 517.592 951.803 537.294C953.091 538.231 954.314 539.254 955.464 540.355C968.723 519.758 975.516 495.665 974.97 471.175C973.729 404.156 918.263 349.77 851.254 349.79H850.934C826.809 349.845 803.226 356.952 783.088 370.237C762.95 383.522 747.136 402.405 737.592 424.562ZM0.0104191 375.548C0.644703 400.356 9.18526 424.313 24.3874 443.927C25.3567 442.629 26.4022 441.39 27.5183 440.216C14.9009 423.507 7.19036 403.612 5.25212 382.764C3.31389 361.916 7.22468 340.94 16.5455 322.192C25.8664 303.443 40.2284 287.663 58.0194 276.624C75.8104 265.584 96.3262 259.722 117.264 259.694H117.524C173.98 259.814 224.145 302.887 229.306 355.722C229.679 359.317 231.338 362.657 233.977 365.127C236.616 367.597 240.058 369.031 243.67 369.166L363.705 373.527C367.24 373.651 370.706 372.521 373.49 370.338C376.274 368.154 378.197 365.057 378.919 361.594C383.464 339.378 392.827 318.43 406.347 300.226C407.864 298.23 408.7 295.799 408.73 293.292C408.761 290.785 407.985 288.334 406.517 286.302L389.872 263.235C388.329 261.117 386.125 259.574 383.606 258.85C381.088 258.125 378.401 258.26 375.968 259.234C363.464 264.126 346.75 267.157 332.376 267.157C317.647 267.197 303.092 263.979 289.753 257.734C289.228 259.223 288.607 260.676 287.893 262.085C301.819 268.586 317.007 271.933 332.376 271.888C347.54 271.888 364.475 268.817 377.689 263.636C378.537 263.307 379.439 263.138 380.349 263.135C381.456 263.131 382.548 263.389 383.535 263.888C384.523 264.387 385.378 265.113 386.031 266.006L402.666 289.083C403.538 290.298 403.998 291.761 403.978 293.257C403.958 294.753 403.46 296.203 402.556 297.395C388.623 316.148 378.97 337.727 374.278 360.613C373.784 362.984 372.47 365.104 370.567 366.601C368.665 368.097 366.294 368.875 363.875 368.796L243.84 364.444C241.374 364.354 239.023 363.376 237.22 361.691C235.418 360.006 234.284 357.726 234.027 355.272C228.626 300.116 176.371 255.113 117.544 254.983H117.264C101.597 255.006 86.0936 258.163 71.6658 264.269C57.238 270.374 44.1777 279.305 33.2541 290.536C22.3305 301.766 13.7644 315.068 8.06033 329.66C2.35622 344.251 -0.370606 359.836 0.0404264 375.498L0.0104191 375.548ZM720.217 455.23C722.515 455.86 724.524 457.268 725.898 459.216C727.272 461.163 727.926 463.527 727.749 465.903C727.569 468.634 727.499 471.415 727.509 474.136C727.799 540.825 782.265 596.081 848.894 597.311C861.727 597.568 874.523 595.834 886.824 592.17C886.093 590.758 885.451 589.301 884.904 587.808C873.244 591.206 861.136 592.815 848.994 592.58C784.935 591.339 732.59 538.204 732.29 474.076C732.29 471.435 732.35 468.774 732.51 466.134C732.727 462.679 731.753 459.255 729.75 456.432C727.748 453.609 724.839 451.557 721.507 450.619L670.673 436.615C667.166 435.669 663.437 436.018 660.167 437.598C656.897 439.178 654.305 441.883 652.867 445.218C641.634 471.067 623.085 493.066 599.505 508.506C575.925 523.945 548.344 532.151 520.159 532.112H519.749C446.198 531.912 384.711 476.827 376.648 403.976C376.261 400.406 374.607 397.094 371.986 394.64C369.365 392.186 365.951 390.753 362.364 390.602L242.84 385.67C239.348 385.501 235.907 386.564 233.118 388.674C230.33 390.784 228.372 393.807 227.586 397.214C221.921 422.198 207.944 444.519 187.94 460.523C167.936 476.527 143.092 485.266 117.474 485.309C116.664 485.309 115.864 485.309 115.073 485.309C110.264 485.204 105.466 484.79 100.709 484.069C100.199 485.613 99.5982 487.127 98.9087 488.6C104.22 489.456 109.585 489.94 114.963 490.05C115.794 490.05 116.634 490.05 117.474 490.05C172.22 490.05 220.253 451.789 232.217 398.254C232.754 395.932 234.093 393.873 235.997 392.439C237.901 391.005 240.249 390.287 242.63 390.412L362.174 395.353C364.629 395.451 366.966 396.43 368.757 398.111C370.548 399.792 371.674 402.062 371.927 404.506C380.239 479.697 443.788 536.604 519.739 536.814H520.159C549.266 536.847 577.747 528.368 602.096 512.42C626.445 496.473 645.598 473.753 657.199 447.058C658.162 444.756 659.933 442.885 662.177 441.795C664.422 440.704 666.987 440.47 669.392 441.136L720.217 455.23Z" fill="#D5D5D5"/>
</svg>
