<svg width="200" height="200" viewBox="0 0 200 200" fill="none" xmlns="http://www.w3.org/2000/svg">
<path d="M100.001 4.63115e-09C81.1239 -0.000181634 62.6322 5.34277 46.6642 15.411C30.6963 25.4793 17.9042 39.8616 9.76724 56.895C1.63026 73.9284 -1.51929 92.9171 0.682786 111.665C2.88487 130.414 10.3486 148.156 22.211 162.84C28.1352 159.127 34.9454 157.069 41.9341 156.878C48.9229 156.688 55.8352 158.372 61.9528 161.757C68.0704 165.141 73.1701 170.102 76.722 176.124C80.274 182.146 82.1486 189.009 82.151 196C82.151 196.8 82.151 197.6 82.071 198.39C95.7336 200.872 109.763 200.481 123.266 197.242C136.77 194.003 149.45 187.988 160.501 179.579C171.551 171.17 180.729 160.551 187.45 148.4C194.171 136.249 198.287 122.831 199.537 109.001C200.787 95.1713 199.143 81.2328 194.709 68.0734C190.276 54.914 183.151 42.8222 173.787 32.5681C164.423 22.3141 153.027 14.1225 140.323 8.51532C127.619 2.90809 113.887 0.00806874 100.001 4.63115e-09Z" fill="#FFB300" fill-opacity="0.1"/>
</svg>
