<svg width="118" height="119" viewBox="0 0 118 119" fill="none" xmlns="http://www.w3.org/2000/svg">
<path d="M30.7355 74.4344H30.0171V75.1528H30.7355V74.4344Z" fill="#D8D9D8" stroke="#D8D9D8" stroke-width="4" stroke-miterlimit="10" stroke-linecap="round"/>
<path opacity="0.5" d="M97.8822 7.74707H68.1843V116.072H97.8822V7.74707Z" fill="#D8D9D8" stroke="#4C4C4C" stroke-miterlimit="10"/>
<path d="M22.4882 7.74707L22.1577 116.603" stroke="#4C4C4C" stroke-width="4" stroke-miterlimit="10" stroke-linecap="round"/>
<path d="M67.3943 9.90222L68.242 116.603" stroke="#4C4C4C" stroke-width="4" stroke-miterlimit="10" stroke-linecap="round"/>
<path d="M57.6098 78.7448H31.2092V116.309H57.6098V78.7448Z" fill="#D8D9D8" stroke="#4C4C4C" stroke-width="4" stroke-miterlimit="10" stroke-linecap="round"/>
<path d="M22.4883 7.74707H96.5462" stroke="#4C4C4C" stroke-width="4" stroke-miterlimit="10" stroke-linecap="round"/>
<path d="M20.1248 2.71838L22.2081 7.33039" stroke="#4C4C4C" stroke-width="4" stroke-miterlimit="10" stroke-linecap="round"/>
<path d="M100.483 2.71838L97.207 7.6393" stroke="#4C4C4C" stroke-width="4" stroke-miterlimit="10" stroke-linecap="round"/>
<path d="M20.1248 2H100.483" stroke="#4C4C4C" stroke-width="4" stroke-miterlimit="10" stroke-linecap="round"/>
<path d="M96.661 116.309L96.5532 7.74707" stroke="#4C4C4C" stroke-width="4" stroke-miterlimit="10" stroke-linecap="round"/>
<path d="M44.5498 80.1815L44.4133 113.859" stroke="#4C4C4C" stroke-width="4" stroke-miterlimit="10" stroke-linecap="round"/>
<path d="M31.2092 92.9184H55.7276" stroke="#4C4C4C" stroke-width="4" stroke-miterlimit="10" stroke-linecap="round"/>
<path d="M39.0252 17.6248H29.6216V29.1189H39.0252V17.6248Z" fill="#D8D9D8" stroke="#4C4C4C" stroke-width="4" stroke-miterlimit="10" stroke-linecap="round"/>
<path d="M58.5582 17.6248H49.1545V29.1189H58.5582V17.6248Z" fill="#D8D9D8" stroke="#4C4C4C" stroke-width="4" stroke-miterlimit="10" stroke-linecap="round"/>
<path d="M39.3414 45.4621H29.9377V56.9562H39.3414V45.4621Z" fill="#D8D9D8" stroke="#4C4C4C" stroke-width="4" stroke-miterlimit="10" stroke-linecap="round"/>
<path d="M58.867 45.4621H49.4634V56.9562H58.867V45.4621Z" fill="#D8D9D8" stroke="#4C4C4C" stroke-width="4" stroke-miterlimit="10" stroke-linecap="round"/>
<path d="M78.2922 18.1636H71.3311V29.6577H78.2922V18.1636Z" fill="#D8D9D8" stroke="#4C4C4C" stroke-width="3" stroke-miterlimit="10" stroke-linecap="round"/>
<path d="M92.746 18.1636H85.7849V29.6577H92.746V18.1636Z" fill="#D8D9D8" stroke="#4C4C4C" stroke-width="3" stroke-miterlimit="10" stroke-linecap="round"/>
<path d="M78.4719 45.4621H71.5107V56.9562H78.4719V45.4621Z" fill="#D8D9D8" stroke="#4C4C4C" stroke-width="3" stroke-miterlimit="10" stroke-linecap="round"/>
<path d="M92.9255 45.4621H85.9644V56.9562H92.9255V45.4621Z" fill="#D8D9D8" stroke="#4C4C4C" stroke-width="3" stroke-miterlimit="10" stroke-linecap="round"/>
<path d="M78.4719 74.9158H71.5107V86.4099H78.4719V74.9158Z" fill="#D8D9D8" stroke="#4C4C4C" stroke-width="3" stroke-miterlimit="10" stroke-linecap="round"/>
<path d="M92.9255 74.9158H85.9644V86.4099H92.9255V74.9158Z" fill="#D8D9D8" stroke="#4C4C4C" stroke-width="3" stroke-miterlimit="10" stroke-linecap="round"/>
<path d="M71.0007 2.57471L67.7249 7.49562" stroke="#4C4C4C" stroke-width="4" stroke-miterlimit="10" stroke-linecap="round"/>
<path d="M17.7612 71.561L28.4292 64.0682" stroke="#4C4C4C" stroke-width="4" stroke-miterlimit="10" stroke-linecap="round"/>
<path d="M51.8267 71.446L62.4946 63.9604" stroke="#4C4C4C" stroke-width="4" stroke-miterlimit="10" stroke-linecap="round"/>
<path d="M53.2063 71.3525H63.2852" stroke="#4C4C4C" stroke-width="4" stroke-miterlimit="10" stroke-linecap="round"/>
<path d="M17.7612 71.5609H52.4231" stroke="#4C4C4C" stroke-width="4" stroke-miterlimit="10" stroke-linecap="round"/>
<path d="M28.7883 63.6587H61.877" stroke="#4C4C4C" stroke-width="4" stroke-miterlimit="10" stroke-linecap="round"/>
<path d="M63.4577 70.8426L63.4146 63.8024" stroke="#4C4C4C" stroke-width="4" stroke-miterlimit="10" stroke-linecap="round"/>
<path d="M2 116.819L116 116.79" stroke="#4C4C4C" stroke-width="4" stroke-miterlimit="10" stroke-linecap="round"/>
<path d="M27.2153 73.7089C27.2153 76.1083 24.9237 78.0551 22.0933 78.0551C19.2628 78.0551 16.9712 76.1083 16.9712 73.7089C16.9712 71.3095 19.4281 71.604 22.2585 71.604C25.0889 71.604 27.2153 71.3095 27.2153 73.7089Z" fill="#D8D9D8" stroke="#4C4C4C" stroke-width="3" stroke-miterlimit="10" stroke-linecap="round"/>
<path d="M39.8156 73.7089C39.8156 76.1083 37.4952 78.0551 34.6289 78.0551C31.7625 78.0551 29.4421 76.1083 29.4421 73.7089C29.4421 71.3095 31.9277 71.604 34.7941 71.604C37.6604 71.604 39.8084 71.3095 39.8084 73.7089H39.8156Z" fill="#D8D9D8" stroke="#4C4C4C" stroke-width="3" stroke-miterlimit="10" stroke-linecap="round"/>
<path d="M52.301 73.7089C52.301 76.1083 49.8585 78.0551 46.8485 78.0551C43.8385 78.0551 41.396 76.1083 41.396 73.7089C41.396 71.3095 44.0109 71.604 47.0209 71.604C50.0309 71.604 52.2938 71.3095 52.2938 73.7089H52.301Z" fill="#D8D9D8" stroke="#4C4C4C" stroke-width="3" stroke-miterlimit="10" stroke-linecap="round"/>
</svg>
