<svg width="163" height="164" viewBox="0 0 163 164" fill="none" xmlns="http://www.w3.org/2000/svg">
<g opacity="0.75">
<path opacity="0.5" d="M135.469 10H94.1289V160.79H135.469V10Z" fill="#D8D9D8"/>
<path d="M30.5186 10L30.0586 161.53" stroke="black" stroke-width="4" stroke-miterlimit="10" stroke-linecap="round"/>
<path d="M93.0293 13L94.2093 161.53" stroke="black" stroke-width="4" stroke-miterlimit="10" stroke-linecap="round"/>
<path d="M79.4102 108.83H42.6602V161.12H79.4102V108.83Z" fill="#D8D9D8" stroke="black" stroke-width="4" stroke-miterlimit="10" stroke-linecap="round"/>
<path d="M30.5195 10H133.61" stroke="black" stroke-width="4" stroke-miterlimit="10" stroke-linecap="round"/>
<path d="M27.2285 3L30.1285 9.42" stroke="black" stroke-width="4" stroke-miterlimit="10" stroke-linecap="round"/>
<path d="M139.089 3L134.529 9.85" stroke="black" stroke-width="4" stroke-miterlimit="10" stroke-linecap="round"/>
<path d="M27.2285 2H139.089" stroke="black" stroke-width="4" stroke-miterlimit="10" stroke-linecap="round"/>
<path d="M133.769 161.12L133.619 10" stroke="black" stroke-width="4" stroke-miterlimit="10" stroke-linecap="round"/>
<path d="M61.2291 110.83L61.0391 157.71" stroke="black" stroke-width="4" stroke-miterlimit="10" stroke-linecap="round"/>
<path d="M42.6602 128.561H76.7902" stroke="black" stroke-width="4" stroke-miterlimit="10" stroke-linecap="round"/>
<path d="M53.5392 23.75H40.4492V39.75H53.5392V23.75Z" fill="#D8D9D8" stroke="black" stroke-width="4" stroke-miterlimit="10" stroke-linecap="round"/>
<path d="M80.7287 23.75H67.6387V39.75H80.7287V23.75Z" fill="#D8D9D8" stroke="black" stroke-width="4" stroke-miterlimit="10" stroke-linecap="round"/>
<path d="M53.9787 62.5H40.8887V78.5H53.9787V62.5Z" fill="#D8D9D8" stroke="black" stroke-width="4" stroke-miterlimit="10" stroke-linecap="round"/>
<path d="M81.1603 62.5H68.0703V78.5H81.1603V62.5Z" fill="#D8D9D8" stroke="black" stroke-width="4" stroke-miterlimit="10" stroke-linecap="round"/>
<path d="M108.2 24.5H98.5098V40.5H108.2V24.5Z" fill="#D8D9D8" stroke="black" stroke-width="3" stroke-miterlimit="10" stroke-linecap="round"/>
<path d="M128.319 24.5H118.629V40.5H128.319V24.5Z" fill="#D8D9D8" stroke="black" stroke-width="3" stroke-miterlimit="10" stroke-linecap="round"/>
<path d="M108.45 62.5H98.7598V78.5H108.45V62.5Z" fill="#D8D9D8" stroke="black" stroke-width="3" stroke-miterlimit="10" stroke-linecap="round"/>
<path d="M128.569 62.5H118.879V78.5H128.569V62.5Z" fill="#D8D9D8" stroke="black" stroke-width="3" stroke-miterlimit="10" stroke-linecap="round"/>
<path d="M108.45 103.5H98.7598V119.5H108.45V103.5Z" fill="#D8D9D8" stroke="black" stroke-width="3" stroke-miterlimit="10" stroke-linecap="round"/>
<path d="M128.569 103.5H118.879V119.5H128.569V103.5Z" fill="#D8D9D8" stroke="black" stroke-width="3" stroke-miterlimit="10" stroke-linecap="round"/>
<path d="M98.0502 2.80078L93.4902 9.65078" stroke="black" stroke-width="4" stroke-miterlimit="10" stroke-linecap="round"/>
<path d="M23.9395 98.8304L38.7895 88.4004" stroke="black" stroke-width="4" stroke-miterlimit="10" stroke-linecap="round"/>
<path d="M71.3594 98.67L86.2094 88.25" stroke="black" stroke-width="4" stroke-miterlimit="10" stroke-linecap="round"/>
<path d="M73.2793 98.5391H87.3093" stroke="black" stroke-width="4" stroke-miterlimit="10" stroke-linecap="round"/>
<path d="M23.9395 98.8301H72.1895" stroke="black" stroke-width="4" stroke-miterlimit="10" stroke-linecap="round"/>
<path d="M39.2891 87.8301H85.3491" stroke="black" stroke-width="4" stroke-miterlimit="10" stroke-linecap="round"/>
<path d="M87.5502 97.8293L87.4902 88.0293" stroke="black" stroke-width="4" stroke-miterlimit="10" stroke-linecap="round"/>
</g>
<path opacity="0.75" d="M2 161.829L160.69 161.789" stroke="black" stroke-width="4" stroke-miterlimit="10" stroke-linecap="round"/>
<path opacity="0.85" d="M37.0998 101.821C37.0998 105.161 33.9098 107.871 29.9698 107.871C26.0298 107.871 22.8398 105.161 22.8398 101.821C22.8398 98.4809 26.2598 98.8909 30.1998 98.8909C34.1398 98.8909 37.0998 98.4809 37.0998 101.821Z" fill="#D8D9D8" stroke="black" stroke-width="3" stroke-miterlimit="10" stroke-linecap="round"/>
<path opacity="0.85" d="M54.6392 101.821C54.6392 105.161 51.4092 107.871 47.4192 107.871C43.4292 107.871 40.1992 105.161 40.1992 101.821C40.1992 98.4809 43.6592 98.8909 47.6492 98.8909C51.6392 98.8909 54.6292 98.4809 54.6292 101.821H54.6392Z" fill="#D8D9D8" stroke="black" stroke-width="3" stroke-miterlimit="10" stroke-linecap="round"/>
<path opacity="0.85" d="M72.0198 101.821C72.0198 105.161 68.6198 107.871 64.4298 107.871C60.2398 107.871 56.8398 105.161 56.8398 101.821C56.8398 98.4809 60.4798 98.8909 64.6698 98.8909C68.8598 98.8909 72.0098 98.4809 72.0098 101.821H72.0198Z" fill="#D8D9D8" stroke="black" stroke-width="3" stroke-miterlimit="10" stroke-linecap="round"/>
</svg>
