<svg width="64" height="81" viewBox="0 0 64 81" fill="none" xmlns="http://www.w3.org/2000/svg">
<path d="M36.0362 56.2107C37.3556 56.1197 38.7781 56.1714 40.1177 56.3102C40.0167 55.3313 39.8783 54.3541 39.6979 53.3814C39.3689 51.6709 38.8927 49.978 38.3006 48.3143C38.0412 47.571 37.7566 46.8312 37.4456 46.1017C37.3455 45.8815 37.1907 45.6959 36.9854 45.5454C36.0431 44.6103 34.1566 44.934 33.6904 46.0321C33.5224 46.4755 33.4813 46.9551 33.7266 47.3985C34.0194 48.0828 34.2818 48.7769 34.5275 49.472C35.0371 50.9926 35.44 52.5366 35.7255 54.0918C35.8508 54.8473 35.9519 55.5426 36.0367 56.2072L36.0362 56.2107Z" fill="black"/>
<path d="M41.0263 70.5152C40.942 70.5029 40.8645 70.4787 40.7863 70.4588C39.2905 71.2999 36.5689 71.5477 31.3118 71.2204C25.725 70.8962 16.1386 70.9665 13.0124 70.1685C9.30337 69.3366 9.00894 65.4874 8.9276 62.122C8.70805 53.8024 8.87159 47.1279 14.1455 42.2715C16.1972 40.4692 19.6263 38.6714 23.2677 38.6817C24.4476 39.0334 25.6663 39.2924 26.8997 39.4511C29.0582 39.9712 31.0084 38.5172 30.1158 36.6482C29.6233 35.6835 28.4303 35.3171 27.3355 35.042C26.304 34.7505 25.2348 34.5773 24.1622 34.4976C19.3357 32.9559 15.4288 29.5918 13.4625 24.9431C10.3916 17.8649 16.9404 8.19643 27.448 7.85474C36.3767 7.53463 45.6477 14.6934 45.0889 22.3398C44.6917 28.1856 40.9031 32.7589 34.9362 34.6562C31.9643 35.7518 33.9628 39.555 36.9939 38.6091C44.693 36.2298 49.8737 29.5827 50.0743 22.5847C50.3781 16.2339 45.8838 9.986 39.4266 6.63413C33.391 3.30962 25.4865 2.58309 19.2859 5.28356C12.1257 8.27543 7.21405 14.9191 7.77902 21.9135C8.17843 27.2306 11.6849 32.2621 16.6902 35.5985C13.0362 36.9235 9.92824 39.2637 7.87404 42.1251C4.2293 47.2748 3.75809 53.5926 3.90427 59.6031C4.00066 64.4274 3.73087 70.719 9.66719 73.4395C12.3146 74.706 15.3898 74.8472 18.2993 74.943C24.1016 75.1448 29.9035 75.4192 35.7026 75.5736C41.2384 75.7622 44.8291 74.1759 46.7929 70.7887C44.8812 70.5908 42.927 70.7883 41.0319 70.5117L41.0263 70.5152Z" fill="black"/>
<path d="M55.3365 63.5407C54.9713 63.1826 54.516 62.9035 53.9667 62.8446C52.0828 62.7256 50.1989 62.6065 48.3155 62.4841C48.3442 60.8436 48.3723 59.2065 48.401 57.5661C48.6245 55.2699 44.7071 54.7548 44.3454 57.0344L44.2574 62.2249C43.3564 62.1679 42.4514 62.1102 41.5504 62.0531C40.3626 61.979 39.1753 61.9014 37.9875 61.8273C37.4569 61.7534 36.9059 61.875 36.4895 62.151C35.0886 63.0276 35.7843 65.1141 37.5498 65.308C39.7655 65.447 41.9807 65.5896 44.1965 65.7287C44.1821 66.6198 44.1673 67.5144 44.1529 68.4056C44.1335 69.4732 44.1181 70.5414 44.0982 71.6125C44.0592 71.8514 44.0875 72.0824 44.1871 72.306C44.4929 73.4956 46.3615 74.0306 47.4028 73.2965C47.802 72.9967 48.1056 72.6157 48.1497 72.1436C48.1845 70.0928 48.2198 68.0386 48.2546 65.9878L49.9665 66.0959C51.1543 66.17 52.3416 66.2476 53.5294 66.3218C53.8081 66.366 54.0747 66.3517 54.3297 66.2755C55.6956 66.0637 56.2337 64.4728 55.3365 63.5407Z" fill="black"/>
</svg>
