<svg width="63" height="81" viewBox="0 0 63 81" fill="none" xmlns="http://www.w3.org/2000/svg">
<path d="M35.4901 56.0433C36.7799 55.9455 38.1699 55.991 39.4784 56.1248C39.3842 55.1385 39.2534 54.154 39.0816 53.1743C38.7679 51.4516 38.3103 49.7472 37.7393 48.0727C37.4892 47.3247 37.2144 46.5802 36.9138 45.8463C36.817 45.6248 36.6666 45.4383 36.4666 45.2876C35.55 44.3493 33.7048 44.6842 33.2442 45.7934C33.0779 46.2411 33.0356 46.7247 33.2733 47.1706C33.5562 47.8591 33.8095 48.5575 34.0465 49.2572C34.5376 50.7876 34.9242 52.3422 35.1961 53.9087C35.3151 54.6698 35.4107 55.3702 35.4906 56.0398L35.4901 56.0433Z" fill="black"/>
<path d="M40.3013 70.4409C40.2189 70.4289 40.1432 70.4049 40.0669 70.3851C38.6012 71.2399 35.9403 71.5022 30.804 71.1964C25.3454 70.8952 15.9762 71.0101 12.9246 70.2199C9.30357 69.3984 9.03347 65.5194 8.96942 62.1273C8.79302 53.7415 8.98346 47.0124 14.16 42.0927C16.1733 40.2664 19.5329 38.4384 23.0917 38.4321C24.2432 38.7812 25.4331 39.0367 26.6377 39.191C28.7449 39.7054 30.6574 38.2307 29.7937 36.3507C29.3167 35.3805 28.1526 35.0167 27.0839 34.7443C26.077 34.4552 25.033 34.2855 23.985 34.2101C19.2751 32.6781 15.4723 29.3048 13.572 24.6276C10.6032 17.5063 17.0478 7.72986 27.3185 7.3372C36.0461 6.97356 45.0738 14.1475 44.4927 21.8582C44.0776 27.753 40.354 32.3806 34.5138 34.3206C31.6043 35.4386 33.54 39.2633 36.5067 38.2959C44.042 35.8621 49.1356 29.1376 49.3638 22.0822C49.6898 15.6788 45.3262 9.40109 39.0309 6.0518C33.1474 2.72816 25.4257 2.03202 19.3534 4.78272C12.3419 7.83158 7.5113 14.5514 8.03137 21.5996C8.39731 26.9578 11.8011 32.0138 16.6776 35.3542C13.1004 36.7066 10.0522 39.0799 8.03151 41.9738C4.44585 47.1818 3.95635 53.5527 4.07164 59.6111C4.14371 64.4739 3.85118 70.8175 9.64031 73.5327C12.2219 74.7972 15.2266 74.9255 18.0696 75.0086C23.7394 75.1855 29.4083 75.4355 35.0752 75.5645C40.4844 75.7292 44.001 74.1137 45.9357 70.6902C44.0683 70.4995 42.1576 70.7075 40.3067 70.4374L40.3013 70.4409Z" fill="black"/>
<path d="M54.3187 63.3449C53.9635 62.9855 53.5198 62.7062 52.9832 62.6494C51.1426 62.538 49.302 62.4267 47.4619 62.3119C47.4975 60.658 47.5325 59.0077 47.568 57.3538C47.797 55.0381 43.9708 54.5368 43.6069 56.8364L43.4971 62.0693C42.6168 62.0159 41.7326 61.9619 40.8523 61.9085C39.6918 61.8392 38.5318 61.7665 37.3713 61.6972C36.8531 61.6251 36.3141 61.7503 35.9059 62.0303C34.5327 62.9205 35.203 65.0206 36.9275 65.2079C39.0923 65.338 41.2567 65.4715 43.4215 65.6016C43.4034 66.5 43.3848 67.4019 43.3667 68.3003C43.3428 69.3766 43.3228 70.4535 43.2984 71.5333C43.2592 71.7743 43.2858 72.007 43.3821 72.232C43.6755 73.4298 45.4993 73.9605 46.5203 73.2157C46.9118 72.9117 47.2103 72.5262 47.2556 72.0501C47.299 69.9826 47.3429 67.9117 47.3863 65.8442L49.0589 65.9453C50.2194 66.0146 51.3794 66.0874 52.5399 66.1566C52.8121 66.1999 53.0727 66.1843 53.3223 66.1063C54.6582 65.8866 55.1913 64.2803 54.3187 63.3449Z" fill="black"/>
</svg>
