<svg width="79" height="72" viewBox="0 0 79 72" fill="none" xmlns="http://www.w3.org/2000/svg">
<path d="M73.5365 5.29297H5.79137C4.24003 5.29297 2.98242 6.48659 2.98242 7.959V66.298C2.98242 67.7704 4.24003 68.964 5.79137 68.964H73.5365C75.0878 68.964 76.3454 67.7704 76.3454 66.298V7.959C76.3454 6.48659 75.0878 5.29297 73.5365 5.29297Z" stroke="black" stroke-width="4.7561" stroke-miterlimit="10"/>
<path d="M17.9948 1.50318C18.3087 4.91884 18.6194 8.33449 18.9333 11.7501C19.1151 13.745 22.423 13.7638 22.2379 11.7501C21.924 8.33449 21.6134 4.91884 21.2994 1.50318C21.1177 -0.491639 17.8097 -0.510458 17.9948 1.50318Z" fill="black"/>
<path d="M55.6676 1.50318C55.9816 4.91884 56.2922 8.33449 56.6062 11.7501C56.7879 13.745 60.0959 13.7638 59.9108 11.7501C59.5969 8.33449 59.2862 4.91884 58.9723 1.50318C58.7905 -0.491639 55.4826 -0.510458 55.6676 1.50318Z" fill="black"/>
<path d="M6.50115 21.9314C29.0355 21.9534 51.5665 21.9722 74.1009 21.9942C76.2257 21.9942 76.229 18.8608 74.1009 18.8577C51.5665 18.8357 29.0355 18.8169 6.50115 18.7949C4.37627 18.7949 4.37296 21.9283 6.50115 21.9314Z" fill="black"/>
<path d="M22.9696 29.7227H13.0557V39.1322H22.9696V29.7227Z" stroke="black" stroke-width="4.7561" stroke-miterlimit="10"/>
<path d="M45.2596 29.7227H35.3457V39.1322H45.2596V29.7227Z" stroke="black" stroke-width="4.7561" stroke-miterlimit="10"/>
<path d="M22.9696 49.6387H13.0557V59.0482H22.9696V49.6387Z" stroke="black" stroke-width="4.7561" stroke-miterlimit="10"/>
<path d="M66.9022 29.7227H56.9883V39.1322H66.9022V29.7227Z" stroke="black" stroke-width="4.7561" stroke-miterlimit="10"/>
<path d="M44.621 49.6387H34.707V59.0482H44.621V49.6387Z" stroke="black" stroke-width="4.7561" stroke-miterlimit="10"/>
<path d="M66.9022 49.6387H56.9883V59.0482H66.9022V49.6387Z" stroke="black" stroke-width="4.7561" stroke-miterlimit="10"/>
</svg>
