<svg width="79" height="71" viewBox="0 0 79 71" fill="none" xmlns="http://www.w3.org/2000/svg">
<path d="M39.1546 68.3416C59.3131 68.3416 75.6548 53.7022 75.6548 35.6435C75.6548 17.5848 59.3131 2.94531 39.1546 2.94531C18.996 2.94531 2.6543 17.5848 2.6543 35.6435C2.6543 53.7022 18.996 68.3416 39.1546 68.3416Z" stroke="black" stroke-width="4.7561" stroke-miterlimit="10"/>
<path d="M46.2735 33.5243C39.4808 29.8834 32.2429 28.9512 30.5292 25.7231C30.4671 25.6072 30.4153 25.5005 30.3739 25.417C30.3117 25.2222 30.2703 25.0228 30.2444 24.8233C30.2444 24.7306 30.2548 24.6146 30.2703 24.494C30.3221 24.3317 30.3842 24.1694 30.4619 24.0163C30.5499 23.8957 30.6638 23.7334 30.7829 23.5896C30.9693 23.4273 31.2954 23.1444 31.5181 23.0145C32.0358 22.6713 33.6667 21.8967 36.4003 21.6973C38.0053 21.6185 39.6154 21.7251 41.1945 21.9988C42.5303 22.2771 43.8401 22.6713 45.0827 23.1954C45.1707 23.2325 45.238 23.265 45.3053 23.2928C45.5021 23.3855 45.6988 23.4783 45.8904 23.5803C48.7431 25.2547 51.5803 21.5674 48.8363 19.7632C46.3667 18.4831 43.5502 17.5973 40.6613 17.2216C40.7907 16.9758 40.8891 16.7021 40.9253 16.3821C41.0081 15.2643 41.4275 13.9796 40.4801 13.0613C39.4342 11.9157 37.3063 12.0316 36.3848 13.2514C35.7583 14.0585 35.924 15.102 35.7635 16.0296C35.7428 16.4331 35.8101 16.7856 35.9447 17.0917C33.7133 17.2633 31.5232 17.7735 29.5144 18.6965C23.5916 21.6277 23.8556 27.583 29.0226 31.0615C33.7184 34.1968 40.2937 35.3517 43.4984 37.4388C49.9857 41.5064 48.9657 46.5525 43.8298 48.0042C38.8647 49.2287 35.225 47.2946 29.9027 44.5721C28.0441 43.3801 25.4243 44.9292 25.8903 46.9236C26.0612 47.508 26.3821 48.0506 26.9568 48.3846C28.5929 49.2565 30.2496 50.096 31.9581 50.852C33.4596 51.5199 35.0438 52.0904 36.6799 52.48C36.5712 52.7026 36.4987 52.953 36.478 53.2267C36.6126 54.5392 36.3951 56.2275 36.742 57.4427C37.063 58.5604 38.4505 59.1912 39.6724 58.9871C40.7855 58.8016 41.6864 57.8972 41.7589 56.8861C41.6346 55.6895 41.8003 54.1821 41.5725 53.0041C41.8572 52.9948 42.142 52.9809 42.4319 52.953C46.3512 52.6191 50.3636 50.736 52.1653 47.4987C55.1889 42.3551 51.2748 36.3628 46.289 33.5243H46.2735Z" fill="black"/>
</svg>
