<svg width="62" height="81" viewBox="0 0 62 81" fill="none" xmlns="http://www.w3.org/2000/svg">
<path d="M62.0037 13.9468C61.8534 21.4704 60.561 28.0156 58.7546 34.4682C55.8057 45.0036 51.6431 55.0311 45.9857 64.4105C43.3537 68.774 40.4165 72.9144 36.6471 76.3978C35.3197 77.6244 33.9054 78.7326 32.2706 79.5289C31.9434 79.6883 31.659 79.893 31.3798 80.126C30.3511 80.9848 29.513 81.0248 28.4641 80.2043C26.8836 78.9679 25.4979 77.5215 24.1766 76.0176C19.3672 70.5431 15.5107 64.4265 12.1464 57.9894C7.71745 49.5153 4.25299 40.6673 1.97101 31.3697C0.823223 26.692 0.0531081 21.9555 -0.00151497 17.1332C-0.033398 14.324 0.245813 11.5344 1.30264 8.8844C1.45057 8.51329 1.61397 8.14664 1.79659 7.79147C3.66737 4.15282 7.04463 2.72184 10.9571 3.9076C13.2557 4.60434 15.2465 5.86114 17.0913 7.35683C21.1714 10.6654 24.4232 14.7157 27.3811 19.0152C28.5141 20.6624 29.5568 22.3723 30.6336 24.0579C31.2795 25.0692 31.3688 25.0803 31.8979 24.0361C33.2365 21.3938 34.6358 18.7864 36.1894 16.2625C38.6721 12.2295 41.3908 8.37732 44.8082 5.06969C46.5118 3.42045 48.3659 1.96672 50.586 1.04681C51.9814 0.468693 53.421 0.178698 54.9245 0.419462C56.7052 0.704533 58.1268 1.6139 59.2263 3.03527C60.327 4.45782 60.944 6.09651 61.3494 7.82663C61.8822 10.1011 61.9629 12.4199 62.0037 13.9468Z" fill="#A3B899"/>
</svg>
