<svg width="70" height="75" viewBox="0 0 70 75" fill="none" xmlns="http://www.w3.org/2000/svg">
<path d="M66.9816 11.6494C50.6771 13.4804 34.2954 15.0426 17.9805 16.8388V2.77823C17.9754 2.12147 17.6822 1.48462 17.1936 1.03186C15.6249 -0.495598 12.7497 0.698504 12.8371 2.86281V17.4209C9.26763 17.8289 5.69812 18.2418 2.13889 18.6797C-0.412227 19.6897 0.446719 23.481 3.21386 23.4213C6.42334 23.078 9.62767 22.7396 12.8371 22.3963V71.6381C12.832 71.9814 12.9092 72.2998 13.0737 72.5934C14.1179 75.0562 18.0371 74.2303 17.9754 71.5535C17.9754 54.9853 17.9754 38.4172 17.9754 21.849C22.6302 21.3515 27.2849 20.8589 31.9346 20.3614C31.8008 20.7843 31.7803 21.2619 31.9346 21.7694C32.2997 23.8093 32.6649 25.8443 33.0301 27.8842C32.0066 27.9986 30.983 28.1131 29.9595 28.2225C29.7743 28.2225 29.5943 28.2474 29.4194 28.2922C28.4731 27.934 27.2901 28.0882 26.5803 28.8494C26.138 29.352 25.8294 29.944 25.8602 30.6207C25.7934 36.5912 25.5413 42.5717 25.5773 48.5422C26.1277 55.5127 31.8934 54.9306 37.4431 54.9953C43.07 55.055 48.702 54.9455 54.3237 54.6719C57.4921 54.4878 61.2467 54.6072 63.4841 52.0449C65.1146 50.2338 65.1506 47.7212 65.202 45.4474C65.3512 40.0043 65.3049 34.5612 65.058 29.1181C64.9346 28.133 65.1506 27.0434 64.7185 26.1229C64.3739 25.2124 63.3298 24.6104 62.3423 24.6353C60.2386 24.8691 58.135 25.103 56.0313 25.3318C56.2782 23.4063 56.5303 21.4808 56.7771 19.5504C56.9417 18.9434 56.844 18.2816 56.5303 17.7344C60.0432 17.3612 63.551 16.988 67.0639 16.6099C67.7428 16.6 68.4012 16.3213 68.8692 15.8487C70.4483 14.3361 69.2139 11.5449 66.9765 11.6345L66.9816 11.6494ZM51.824 18.2468C51.8189 18.2717 51.8035 18.2966 51.7983 18.3215C51.4692 20.8539 51.1451 23.3864 50.8159 25.9189C46.5881 26.3866 42.3551 26.8543 38.1272 27.322C38.1118 27.1528 38.0861 26.9837 38.0295 26.8095C37.6437 24.6651 37.258 22.5157 36.8774 20.3663C36.8311 20.1823 36.7488 20.0181 36.6562 19.8638C41.7121 19.3265 46.7681 18.7842 51.824 18.2468ZM59.966 29.8893C60.2129 35.9295 60.1358 44.4971 60.0226 47.3083C59.9763 47.7113 59.8992 48.1143 59.7706 48.5073C59.7243 48.5969 59.678 48.6914 59.6214 48.776C59.5546 48.8506 59.4774 48.9153 59.4054 48.985C59.3128 49.0397 59.2305 49.0895 59.1585 49.1293C57.3789 49.7562 56.4428 49.5124 53.4082 49.7412C46.3463 50.0497 39.2639 50.1592 32.1969 49.9054C32.1866 49.9054 32.1763 49.9054 32.166 49.9054C32.1403 49.9054 32.1146 49.8955 32.0786 49.8905C31.8471 49.8656 31.5437 49.781 31.3431 49.7213C31.2813 49.6915 31.2145 49.6616 31.1528 49.6268C31.0962 49.577 31.0448 49.5223 30.9933 49.4726C30.983 49.4626 30.9779 49.4477 30.9676 49.4377C30.9573 49.4228 30.9573 49.4129 30.947 49.3979C30.8853 49.2288 30.8287 49.0546 30.7824 48.8805C30.5356 44.2036 30.9265 39.4919 30.9162 34.805C30.9265 34.2378 30.9367 33.6756 30.947 33.1084C40.6166 32.0387 50.2862 30.969 59.9557 29.8993L59.966 29.8893Z" fill="black"/>
</svg>
