<svg width="65" height="71" viewBox="0 0 65 71" fill="none" xmlns="http://www.w3.org/2000/svg">
<path d="M57.6605 50.5163V12.2325C57.6605 7.25894 53.5241 3.23047 48.4252 3.23047H11.7978C6.69537 3.23047 2.5625 7.26234 2.5625 12.2325V57.1168C2.5625 62.0903 6.69886 67.8905 11.7978 67.8905H48.4252" stroke="black" stroke-width="4.7561" stroke-miterlimit="10"/>
<path d="M12.3291 20.0089H47.8962C50.1387 20.0089 50.1457 16.6094 47.8962 16.6094H12.3291C10.0865 16.6094 10.0795 20.0089 12.3291 20.0089Z" fill="black"/>
<path d="M12.3291 30.8878H47.8962C50.1387 30.8878 50.1457 27.4883 47.8962 27.4883H12.3291C10.0865 27.4883 10.0795 30.8878 12.3291 30.8878Z" fill="black"/>
<path d="M12.3291 41.7687H47.8962C50.1387 41.7687 50.1457 38.3691 47.8962 38.3691H12.3291C10.0865 38.3691 10.0795 41.7687 12.3291 41.7687Z" fill="black"/>
<path d="M12.3291 52.6456H32.2087C34.4513 52.6456 34.4583 49.2461 32.2087 49.2461H12.3291C10.0865 49.2461 10.0795 52.6456 12.3291 52.6456Z" fill="black"/>
<path d="M45.1466 60.2997C49.2398 60.2997 52.5579 57.0653 52.5579 53.0756C52.5579 49.0859 49.2398 45.8516 45.1466 45.8516C41.0535 45.8516 37.7354 49.0859 37.7354 53.0756C37.7354 57.0653 41.0535 60.2997 45.1466 60.2997Z" stroke="black" stroke-width="4.7561" stroke-miterlimit="10"/>
<path d="M50.6914 59.7806C54.2561 62.5533 57.8169 65.323 61.3817 68.0957C63.1466 69.4704 65.2631 66.7845 63.4986 65.4131C59.9339 62.6404 56.3731 59.8707 52.8083 57.0981C51.0434 55.7233 48.9269 58.4093 50.6914 59.7806Z" fill="black"/>
</svg>
