<svg width="114" height="107" viewBox="0 0 114 107" fill="none" xmlns="http://www.w3.org/2000/svg">
<g id="Settings Icon">
<g id="Group">
<path id="Vector" d="M64.7191 23.4803C71.4466 20.6555 79.141 23.7023 81.9051 30.2853C84.6691 36.8684 81.4561 44.4949 74.7286 47.3196C68.0011 50.1443 60.3066 47.0976 57.5426 40.5145C54.7785 33.9315 57.9915 26.305 64.7191 23.4803Z" stroke="black" stroke-width="5" stroke-linecap="round" stroke-linejoin="round"/>
<path id="Vector_2" d="M47.1699 38.8347C47.4272 40.7335 47.9321 42.596 48.6726 44.3595" stroke="black" stroke-width="5" stroke-linecap="round" stroke-linejoin="round"/>
<path id="Vector_3" d="M56.1849 17.5824C52.6332 20.0534 49.8889 23.5842 48.6162 27.6931" stroke="black" stroke-width="5" stroke-linecap="round" stroke-linejoin="round"/>
<path id="Vector_4" d="M78.4404 14.9948C74.9043 13.4253 70.9583 12.8591 67.1047 13.2067" stroke="black" stroke-width="5" stroke-linecap="round" stroke-linejoin="round"/>
<path id="Vector_5" d="M91.4636 32.0486C91.1855 28.4422 89.7757 25.0001 87.6194 22.1147" stroke="black" stroke-width="5" stroke-linecap="round" stroke-linejoin="round"/>
<path id="Vector_6" d="M83.0876 52.946C86.2879 50.3996 88.7207 46.9726 90.1876 43.2078" stroke="black" stroke-width="5" stroke-linecap="round" stroke-linejoin="round"/>
<path id="Vector_7" d="M61.1948 56.3324C64.7274 57.6399 68.6071 58.0313 72.3654 57.5074" stroke="black" stroke-width="5" stroke-linecap="round" stroke-linejoin="round"/>
<path id="Vector_8" d="M48.6728 44.3597C49.4036 46.1002 50.3639 47.7444 51.5259 49.2431" stroke="black" stroke-width="5" stroke-linecap="round" stroke-linejoin="round"/>
<g id="Group_2">
<g id="Group_3">
<path id="Vector_9" d="M84.5227 58.868C84.9696 58.6804 85.1921 58.1951 85.0184 57.7815" stroke="black" stroke-width="5" stroke-linecap="round" stroke-linejoin="round"/>
<g id="Group_4">
<path id="Vector_10" d="M85.0193 57.7826L83.1235 53.2675" stroke="black" stroke-width="5" stroke-linecap="round" stroke-linejoin="round"/>
<path id="Vector_11" d="M75.488 62.6615L84.5228 58.868" stroke="black" stroke-width="5" stroke-linecap="round" stroke-linejoin="round"/>
<path id="Vector_12" d="M74.3708 62.2521C74.5444 62.6657 75.0467 62.8468 75.4936 62.6591" stroke="black" stroke-width="5" stroke-linecap="round" stroke-linejoin="round"/>
<path id="Vector_13" d="M72.4756 57.7383L74.3713 62.2534" stroke="black" stroke-width="5" stroke-linecap="round" stroke-linejoin="round"/>
</g>
</g>
<g id="Group_5">
<path id="Vector_14" d="M64.0427 8.34567C64.4897 8.15802 64.9871 8.32757 65.1535 8.72393" stroke="black" stroke-width="5" stroke-linecap="round" stroke-linejoin="round"/>
<g id="Group_6">
<path id="Vector_15" d="M65.1492 8.71863L66.9702 13.0557" stroke="black" stroke-width="5" stroke-linecap="round" stroke-linejoin="round"/>
<path id="Vector_16" d="M55.0068 12.139L64.0416 8.34556" stroke="black" stroke-width="5" stroke-linecap="round" stroke-linejoin="round"/>
<path id="Vector_17" d="M54.4968 13.192C54.3304 12.7957 54.5577 12.3218 55.0046 12.1342" stroke="black" stroke-width="5" stroke-linecap="round" stroke-linejoin="round"/>
<path id="Vector_18" d="M56.3176 17.5284L54.4966 13.1914" stroke="black" stroke-width="5" stroke-linecap="round" stroke-linejoin="round"/>
</g>
</g>
</g>
<g id="Group_7">
<g id="Group_8">
<path id="Vector_19" d="M97.8416 33.6897C97.8938 33.2218 97.5281 32.8077 97.0258 32.7618" stroke="black" stroke-width="5" stroke-linecap="round" stroke-linejoin="round"/>
<g id="Group_9">
<path id="Vector_20" d="M97.227 32.8653L91.774 32.1615" stroke="black" stroke-width="5" stroke-linecap="round" stroke-linejoin="round"/>
<path id="Vector_21" d="M96.6128 43.2466L98.0056 33.8235" stroke="black" stroke-width="5" stroke-linecap="round" stroke-linejoin="round"/>
<path id="Vector_22" d="M95.5895 43.9736C96.0846 44.036 96.5461 43.7139 96.6128 43.2466" stroke="black" stroke-width="5" stroke-linecap="round" stroke-linejoin="round"/>
<path id="Vector_23" d="M90.13 43.2738L95.583 43.9777" stroke="black" stroke-width="5" stroke-linecap="round" stroke-linejoin="round"/>
</g>
</g>
<g id="Group_10">
<path id="Vector_24" d="M42.1948 27.8812C42.2446 27.4076 42.659 27.0579 43.1094 27.0985" stroke="black" stroke-width="5" stroke-linecap="round" stroke-linejoin="round"/>
<g id="Group_11">
<path id="Vector_25" d="M43.1119 27.1059L48.0687 27.5585" stroke="black" stroke-width="5" stroke-linecap="round" stroke-linejoin="round"/>
<path id="Vector_26" d="M41.1465 37.464L42.1952 27.8813" stroke="black" stroke-width="5" stroke-linecap="round" stroke-linejoin="round"/>
<path id="Vector_27" d="M41.8768 38.3922C41.4264 38.3516 41.1018 37.9338 41.1516 37.4602" stroke="black" stroke-width="5" stroke-linecap="round" stroke-linejoin="round"/>
<path id="Vector_28" d="M46.8334 38.8467L41.8765 38.3941" stroke="black" stroke-width="5" stroke-linecap="round" stroke-linejoin="round"/>
</g>
</g>
</g>
<g id="Group_12">
<g id="Group_13">
<path id="Vector_29" d="M82.9101 10.7985C82.5299 10.519 81.9852 10.5923 81.7061 10.9595" stroke="black" stroke-width="5" stroke-linecap="round" stroke-linejoin="round"/>
<g id="Group_14">
<path id="Vector_30" d="M81.7055 10.9586L78.6348 14.998" stroke="black" stroke-width="5" stroke-linecap="round" stroke-linejoin="round"/>
<path id="Vector_31" d="M90.6937 16.4972L82.9116 10.8048" stroke="black" stroke-width="5" stroke-linecap="round" stroke-linejoin="round"/>
<path id="Vector_32" d="M90.8804 17.6687C91.1595 17.3015 91.0801 16.774 90.6914 16.4912" stroke="black" stroke-width="5" stroke-linecap="round" stroke-linejoin="round"/>
<path id="Vector_33" d="M87.8101 21.7074L90.8808 17.6679" stroke="black" stroke-width="5" stroke-linecap="round" stroke-linejoin="round"/>
</g>
</g>
<g id="Group_15">
<path id="Vector_34" d="M48.7727 54.6464C48.3924 54.3668 48.3009 53.8444 48.5741 53.4797" stroke="black" stroke-width="5" stroke-linecap="round" stroke-linejoin="round"/>
<g id="Group_16">
<path id="Vector_35" d="M48.5779 53.4868L51.5894 49.5263" stroke="black" stroke-width="5" stroke-linecap="round" stroke-linejoin="round"/>
<path id="Vector_36" d="M56.5626 60.3381L48.7805 54.6456" stroke="black" stroke-width="5" stroke-linecap="round" stroke-linejoin="round"/>
<path id="Vector_37" d="M57.754 60.1954C57.4785 60.5543 56.9459 60.6225 56.5597 60.3455" stroke="black" stroke-width="5" stroke-linecap="round" stroke-linejoin="round"/>
<path id="Vector_38" d="M60.7639 56.236L57.7524 60.1965" stroke="black" stroke-width="5" stroke-linecap="round" stroke-linejoin="round"/>
</g>
</g>
</g>
</g>
<g id="Group_17">
<path id="Vector_39" d="M36.5555 74.672C41.105 72.7618 46.266 74.7212 48.083 79.0486C49.8999 83.376 47.6848 88.4325 43.1353 90.3428C38.5858 92.253 33.4248 90.2935 31.6078 85.9661C29.7909 81.6388 32.006 76.5822 36.5555 74.672Z" stroke="black" stroke-width="4" stroke-linecap="round" stroke-linejoin="round"/>
<path id="Vector_40" d="M24.6325 84.9215C24.7888 86.1735 25.119 87.3998 25.6062 88.5602" stroke="black" stroke-width="4" stroke-linecap="round" stroke-linejoin="round"/>
<path id="Vector_41" d="M30.8459 70.8395C28.4358 72.4933 26.5676 74.8454 25.6833 77.5614" stroke="black" stroke-width="4" stroke-linecap="round" stroke-linejoin="round"/>
<path id="Vector_42" d="M45.8513 68.9789C43.4802 67.9676 40.8274 67.6219 38.2334 67.8732" stroke="black" stroke-width="4" stroke-linecap="round" stroke-linejoin="round"/>
<path id="Vector_43" d="M54.5024 80.1428C54.3359 77.7667 53.4146 75.5047 51.9811 73.6132" stroke="black" stroke-width="4" stroke-linecap="round" stroke-linejoin="round"/>
<path id="Vector_44" d="M48.7183 93.9998C50.888 92.2981 52.5521 90.0183 53.5655 87.5251" stroke="black" stroke-width="4" stroke-linecap="round" stroke-linejoin="round"/>
<path id="Vector_45" d="M33.9614 96.3781C36.3302 97.2147 38.9372 97.4513 41.4721 97.0761" stroke="black" stroke-width="4" stroke-linecap="round" stroke-linejoin="round"/>
<path id="Vector_46" d="M25.607 88.5616C26.087 89.7047 26.724 90.7819 27.4915 91.7638" stroke="black" stroke-width="4" stroke-linecap="round" stroke-linejoin="round"/>
<g id="Group_18">
<g id="Group_19">
<path id="Vector_47" d="M49.6492 97.8921C49.9511 97.7653 50.1011 97.4456 49.9877 97.1756" stroke="black" stroke-width="4" stroke-linecap="round" stroke-linejoin="round"/>
<g id="Group_20">
<path id="Vector_48" d="M49.988 97.1758L48.7411 94.2059" stroke="black" stroke-width="4" stroke-linecap="round" stroke-linejoin="round"/>
<path id="Vector_49" d="M43.5374 100.458L49.6491 97.8921" stroke="black" stroke-width="4" stroke-linecap="round" stroke-linejoin="round"/>
<path id="Vector_50" d="M42.7894 100.198C42.9027 100.468 43.236 100.585 43.5379 100.458" stroke="black" stroke-width="4" stroke-linecap="round" stroke-linejoin="round"/>
<path id="Vector_51" d="M41.5426 97.2284L42.7896 100.198" stroke="black" stroke-width="4" stroke-linecap="round" stroke-linejoin="round"/>
</g>
</g>
<g id="Group_21">
<path id="Vector_52" d="M36.1968 64.6895C36.4987 64.5627 36.8295 64.6738 36.9381 64.9323" stroke="black" stroke-width="4" stroke-linecap="round" stroke-linejoin="round"/>
<g id="Group_22">
<path id="Vector_53" d="M36.9426 64.9301L38.1389 67.7793" stroke="black" stroke-width="4" stroke-linecap="round" stroke-linejoin="round"/>
<path id="Vector_54" d="M30.0901 67.2527L36.2018 64.6865" stroke="black" stroke-width="4" stroke-linecap="round" stroke-linejoin="round"/>
<path id="Vector_55" d="M29.7393 67.955C29.6307 67.6965 29.7831 67.3825 30.085 67.2557" stroke="black" stroke-width="4" stroke-linecap="round" stroke-linejoin="round"/>
<path id="Vector_56" d="M30.9355 70.8038L29.7392 67.9546" stroke="black" stroke-width="4" stroke-linecap="round" stroke-linejoin="round"/>
</g>
</g>
</g>
<g id="Group_23">
<g id="Group_24">
<path id="Vector_57" d="M58.7875 81.1801C58.8287 80.8722 58.5789 80.5987 58.2468 80.5692" stroke="black" stroke-width="4" stroke-linecap="round" stroke-linejoin="round"/>
<g id="Group_25">
<path id="Vector_58" d="M58.3769 80.6429L54.7097 80.2163" stroke="black" stroke-width="4" stroke-linecap="round" stroke-linejoin="round"/>
<path id="Vector_59" d="M57.8909 87.5027L58.8906 81.2718" stroke="black" stroke-width="4" stroke-linecap="round" stroke-linejoin="round"/>
<path id="Vector_60" d="M57.196 87.9831C57.5329 88.0241 57.8458 87.8049 57.8931 87.4945" stroke="black" stroke-width="4" stroke-linecap="round" stroke-linejoin="round"/>
<path id="Vector_61" d="M53.5315 87.5615L57.1987 87.9881" stroke="black" stroke-width="4" stroke-linecap="round" stroke-linejoin="round"/>
</g>
</g>
<g id="Group_26">
<path id="Vector_62" d="M21.3579 77.7295C21.3967 77.4159 21.6758 77.1838 21.9765 77.2062" stroke="black" stroke-width="4" stroke-linecap="round" stroke-linejoin="round"/>
<g id="Group_27">
<path id="Vector_63" d="M21.9853 77.2121L25.3229 77.4798" stroke="black" stroke-width="4" stroke-linecap="round" stroke-linejoin="round"/>
<path id="Vector_64" d="M20.5916 84.0608L21.3643 77.7292" stroke="black" stroke-width="4" stroke-linecap="round" stroke-linejoin="round"/>
<path id="Vector_65" d="M21.07 84.6755C20.7669 84.6473 20.5485 84.3809 20.5873 84.0673" stroke="black" stroke-width="4" stroke-linecap="round" stroke-linejoin="round"/>
<path id="Vector_66" d="M24.4052 84.938L21.0676 84.6704" stroke="black" stroke-width="4" stroke-linecap="round" stroke-linejoin="round"/>
</g>
</g>
</g>
<g id="Group_28">
<g id="Group_29">
<path id="Vector_67" d="M48.8899 66.18C48.6352 65.9964 48.2729 66.0471 48.0772 66.2915" stroke="black" stroke-width="4" stroke-linecap="round" stroke-linejoin="round"/>
<g id="Group_30">
<path id="Vector_68" d="M48.0776 66.2908L45.9797 68.9758" stroke="black" stroke-width="4" stroke-linecap="round" stroke-linejoin="round"/>
<path id="Vector_69" d="M54.0899 69.8835L48.8885 66.1752" stroke="black" stroke-width="4" stroke-linecap="round" stroke-linejoin="round"/>
<path id="Vector_70" d="M54.2092 70.6573C54.399 70.4155 54.3508 70.0641 54.0901 69.883" stroke="black" stroke-width="4" stroke-linecap="round" stroke-linejoin="round"/>
<path id="Vector_71" d="M52.1194 73.3461L54.2172 70.6611" stroke="black" stroke-width="4" stroke-linecap="round" stroke-linejoin="round"/>
</g>
</g>
<g id="Group_31">
<path id="Vector_72" d="M25.608 95.3486C25.3533 95.165 25.2956 94.8244 25.4853 94.5826" stroke="black" stroke-width="4" stroke-linecap="round" stroke-linejoin="round"/>
<g id="Group_32">
<path id="Vector_73" d="M25.479 94.585L27.5346 91.9515" stroke="black" stroke-width="4" stroke-linecap="round" stroke-linejoin="round"/>
<path id="Vector_74" d="M30.8088 99.0559L25.6075 95.3476" stroke="black" stroke-width="4" stroke-linecap="round" stroke-linejoin="round"/>
<path id="Vector_75" d="M31.6161 98.9469C31.4264 99.1887 31.0701 99.2369 30.8094 99.0559" stroke="black" stroke-width="4" stroke-linecap="round" stroke-linejoin="round"/>
<path id="Vector_76" d="M33.6713 96.3146L31.6157 98.948" stroke="black" stroke-width="4" stroke-linecap="round" stroke-linejoin="round"/>
</g>
</g>
</g>
</g>
</g>
</svg>
