<svg width="111" height="72" viewBox="0 0 111 72" fill="none" xmlns="http://www.w3.org/2000/svg">
<path d="M3.71794 24.5224C5.42845 19.3875 9.35745 9.32134 10.2766 8.74598C11.8896 7.73635 15.3287 8.96541 18.05 9.0328C21.2001 9.1108 22.0256 6.32535 23.1798 5.23338C24.5518 3.93533 26.4004 3.56088 28.4167 2.75573C33.9374 0.55123 42.6416 2.74536 44.7132 3.55742C48.9491 5.21787 52.649 2.17865 55.9439 1.43051C60.6094 0.371177 66.4851 1.48062 68.0436 2.46028C69.871 3.60896 71.8966 4.81871 79.5939 5.2282C85.3926 5.53668 90.8954 7.46569 93.0396 9.8846C95.1271 12.2395 93.7912 17.3694 93.8516 20.4224C93.8858 22.1474 93.2175 23.1368 93.5026 23.8832C93.9355 25.0165 96.1997 26.0118 99.4687 27.9625C107.471 32.7375 109.106 34.9929 109.746 36.7258C110.639 39.1486 107.848 42.0215 106.701 44.0949C104.799 47.5335 101.863 47.0943 99.9058 47.9029C99.4627 48.0859 99.099 48.0204 98.8657 48.3055C98.6324 48.5906 98.5184 49.1608 98.6877 49.7966C99.0636 51.2081 100.011 52.1637 100.3 52.8531C100.567 53.4909 99.7866 54.237 98.9832 54.9834C97.9991 55.8977 95.1976 57.1121 90.3183 58.6066C84.5433 60.3755 80.6669 60.5745 79.9758 61.2035C78.906 62.1769 78.711 64.7161 78.711 64.7161C78.711 64.7161 69.5053 68.982 64.9612 69.9599C57.7991 71.5013 54.7534 69.5625 50.5791 69.217C47.2125 68.9383 41.2732 69.0995 37.7623 68.9854C33.3283 68.8414 31.9431 68.0663 31.195 67.3198C30.5215 66.6479 30.4434 65.6473 29.5847 65.129C26.577 63.3135 23.7672 65.5264 21.4675 65.9307C19.6611 66.2483 18.1208 65.8754 17.3157 65.5316C15.8157 64.891 13.8704 61.8635 12.0165 59.8316C11.4352 59.1944 10.2905 58.6221 9.25378 57.2468C6.82111 54.0195 10.0486 51.6004 9.65636 48.2087C8.96354 42.2175 2.4601 42.0353 1.3595 40.7689C0.869286 40.2048 0.95347 38.7007 1.18154 36.8036C1.59583 33.3574 6.2336 31.1019 7.23226 29.4225C8.12189 27.9264 4.64403 27.5219 3.95292 26.4887C3.71794 25.9116 3.71794 25.2274 3.88899 24.7039C4.06004 24.1803 4.40214 23.8382 5.10017 23.4858" stroke="#E1E1E1" stroke-width="2" stroke-linecap="round"/>
</svg>
