<svg width="164" height="160" viewBox="0 0 164 160" fill="none" xmlns="http://www.w3.org/2000/svg">
<path d="M97.4878 33.5769C88.1797 27.6536 75.8082 26.6037 65.9517 31.814C54.5674 37.5963 46.5443 50.0462 47.1006 62.9427C47.4688 72.7443 52.734 81.9192 60.4202 87.9052C54.6222 90.4829 49.6313 94.9254 46.2701 100.285C40.3076 109.929 39.2577 121.619 39.2028 132.714C39.1558 137.587 38.9208 143.268 40.2214 148.212C41.5063 148.204 42.7913 148.196 44.0762 148.212C45.5727 148.235 47.0692 148.266 48.5657 148.306C47.0536 145.336 46.9517 141.082 46.9674 137.188C47.0222 121.823 47.602 109.491 56.1109 100.332C59.4094 96.9311 64.8861 93.4837 70.5979 93.374C72.4313 93.9773 74.3274 94.4161 76.2626 94.6668C79.6239 95.5522 82.7501 92.7942 81.4416 89.3782C80.7129 87.6153 78.8639 86.9806 77.1558 86.5105C75.5496 86.0091 73.8808 85.727 72.2041 85.6252C64.7059 82.9456 58.7356 76.8734 55.8758 68.3646C51.3942 55.4054 62.136 37.2986 78.6445 36.2878C92.6692 35.3711 106.866 48.2676 105.628 62.4099C104.727 73.2223 98.5612 81.8095 89.1121 85.5311C84.3954 87.6623 87.3492 94.612 92.1521 92.7551C104.351 88.0854 112.797 75.612 113.44 62.6763C114.223 50.9316 107.47 39.5551 97.4956 33.5926L97.4878 33.5769Z" fill="black"/>
<path d="M81.567 156C124.406 156 159.134 121.974 159.134 80C159.134 38.0264 124.406 4 81.567 4C38.7279 4 4 38.0264 4 80C4 121.974 38.7279 156 81.567 156Z" stroke="black" stroke-width="8" stroke-miterlimit="10"/>
<path d="M98.8975 97.3549C107.751 112.218 110.352 129.949 106.059 146.716C104.805 151.605 112.358 153.689 113.612 148.8C118.422 130.043 115.578 110.04 105.667 93.406C103.089 89.0811 96.3119 93.0143 98.9053 97.3627L98.8975 97.3549Z" fill="black"/>
</svg>
