<svg width="20" height="20" viewBox="0 0 20 20" fill="none" xmlns="http://www.w3.org/2000/svg">
<path d="M5.17143 16.5554H14.8287C14.9391 16.5554 15.0287 16.4659 15.0287 16.3554V14.2765C15.0287 14.2087 14.9943 14.1454 14.9374 14.1085L13.8885 13.4299V9.91728C13.8885 7.77314 12.1442 6.02881 10 6.02881C7.85591 6.02881 6.11157 7.77314 6.11157 9.91728V13.4299L5.06274 14.1085C5.00581 14.1454 4.97144 14.2087 4.97144 14.2765V16.3554C4.97144 16.4659 5.06098 16.5554 5.17143 16.5554ZM6.51157 9.91728C6.51157 7.99375 8.07651 6.42881 10 6.42881C11.9236 6.42881 13.4885 7.99375 13.4885 9.91728V13.3388H6.51157L6.51157 9.91728ZM5.37143 14.3853L6.37075 13.7388H13.6293L14.6287 14.3853V16.1554H5.37143V14.3853Z" fill="black"/>
<path d="M9.4459 7.99048C8.56328 7.99048 7.84521 8.70854 7.84521 9.59116C7.84521 9.70161 7.93476 9.79116 8.04521 9.79116C8.15566 9.79116 8.24521 9.70161 8.24521 9.59116C8.24521 8.92915 8.78389 8.39048 9.4459 8.39048C9.55635 8.39048 9.6459 8.30093 9.6459 8.19048C9.6459 8.08003 9.55635 7.99048 9.4459 7.99048Z" fill="black"/>
<path d="M15.1202 8.23901C15.1202 6.33442 13.5707 4.78491 11.6661 4.78491C11.5556 4.78491 11.4661 4.87446 11.4661 4.98491C11.4661 5.09536 11.5556 5.18491 11.6661 5.18491C13.3501 5.18491 14.7202 6.55493 14.7202 8.23901C14.7202 8.34946 14.8097 8.43901 14.9202 8.43901C15.0306 8.43901 15.1202 8.34946 15.1202 8.23901Z" fill="black"/>
<path d="M11.6661 3.44482C11.5556 3.44482 11.4661 3.53437 11.4661 3.64482C11.4661 3.75527 11.5556 3.84482 11.6661 3.84482C14.0891 3.84482 16.0604 5.81611 16.0604 8.23916C16.0604 8.34961 16.15 8.43916 16.2604 8.43916C16.3709 8.43916 16.4604 8.34961 16.4604 8.23916C16.4604 5.59551 14.3097 3.44482 11.6661 3.44482Z" fill="black"/>
<path d="M5.27988 8.23901C5.27988 6.55493 6.6499 5.18491 8.33399 5.18491C8.44444 5.18491 8.53399 5.09536 8.53399 4.98491C8.53399 4.87446 8.44444 4.78491 8.33399 4.78491C6.4294 4.78491 4.87988 6.33442 4.87988 8.23901C4.87988 8.34946 4.96943 8.43901 5.07988 8.43901C5.19033 8.43901 5.27988 8.34946 5.27988 8.23901Z" fill="black"/>
<path d="M3.73955 8.43916C3.85 8.43916 3.93955 8.34961 3.93955 8.23916C3.93955 5.81611 5.91084 3.84482 8.33389 3.84482C8.44434 3.84482 8.53389 3.75527 8.53389 3.64482C8.53389 3.53437 8.44434 3.44482 8.33389 3.44482C5.69024 3.44482 3.53955 5.59551 3.53955 8.23916C3.53955 8.34961 3.6291 8.43916 3.73955 8.43916Z" fill="black"/>
</svg>
