<svg width="20" height="20" viewBox="0 0 20 20" fill="none" xmlns="http://www.w3.org/2000/svg">
<path d="M14.7935 9.71074C14.9039 9.71074 14.9935 9.62129 14.9935 9.51074V3.09355C14.9935 2.98301 14.9039 2.89355 14.7935 2.89355H5.20635C5.0959 2.89355 5.00635 2.98301 5.00635 3.09355V9.51074C5.00635 9.62129 5.0959 9.71074 5.20635 9.71074C5.3168 9.71074 5.40635 9.62129 5.40635 9.51074V3.29355H9.7999V9.51074C9.7999 9.62129 9.88945 9.71074 9.9999 9.71074C10.1104 9.71074 10.1999 9.62129 10.1999 9.51074V3.29355H14.5935V9.51074C14.5935 9.62129 14.683 9.71074 14.7935 9.71074Z" fill="black"/>
<path d="M15.1064 10.1694H4.8935C4.22759 10.1694 3.68579 10.7112 3.68579 11.3771C3.68579 11.4876 3.77534 11.5771 3.88579 11.5771C3.99624 11.5771 4.08579 11.4876 4.08579 11.3771C4.08579 10.9529 4.41556 10.6079 4.83169 10.5757V15.7894H3.88579C3.77534 15.7894 3.68579 15.8788 3.68579 15.9894V16.9067C3.68579 17.0173 3.77534 17.1067 3.88579 17.1067H15.9394C16.0499 17.1067 16.1394 17.0173 16.1394 16.9067V15.9894C16.1394 15.8788 16.0499 15.7894 15.9394 15.7894H14.9935V10.5694H15.1064C15.5518 10.5694 15.9141 10.9317 15.9141 11.3771C15.9141 11.4876 16.0037 11.5771 16.1141 11.5771C16.2246 11.5771 16.3141 11.4876 16.3141 11.3771C16.3141 10.7112 15.7723 10.1694 15.1064 10.1694ZM10.1126 15.7894V10.5694H12.2012V15.7894H10.1126ZM7.62398 15.7894V10.5694H9.71265V15.7894H7.62398ZM5.23169 10.5694H7.22398V15.7894H5.23169V10.5694ZM15.7394 16.7067H4.08579V16.1894H15.7394V16.7067ZM14.5935 15.7894H12.6012V10.5694H14.5935V15.7894Z" fill="black"/>
</svg>
