<svg width="20" height="20" viewBox="0 0 20 20" fill="none" xmlns="http://www.w3.org/2000/svg">
<path d="M9.99995 2.48193C5.85435 2.48193 2.48169 5.85459 2.48169 10.0002C2.48169 14.1458 5.85435 17.5186 9.99995 17.5186C14.1456 17.5186 17.5182 14.1459 17.5182 10.0002C17.5182 5.85449 14.1456 2.48193 9.99995 2.48193ZM9.99995 17.1186C6.07495 17.1186 2.88169 13.9252 2.88169 10.0002C2.88169 6.0752 6.07495 2.88193 9.99995 2.88193C13.925 2.88193 17.1182 6.0752 17.1182 10.0002C17.1182 13.9252 13.925 17.1186 9.99995 17.1186Z" fill="black"/>
<path d="M9.9999 4.00195C6.69258 4.00195 4.00195 6.69258 4.00195 9.9999C4.00195 13.3072 6.69258 15.9979 9.9999 15.9979C13.3072 15.9979 15.9979 13.3073 15.9979 9.9999C15.9979 6.69248 13.3072 4.00195 9.9999 4.00195ZM4.40195 9.9999C4.40195 6.91319 6.91318 4.40195 9.9999 4.40195C11.2517 4.40195 12.4088 4.81509 13.3422 5.51204C12.0547 6.6515 11.3199 8.27237 11.3199 9.9999C11.3199 11.7274 12.0547 13.3482 13.3422 14.4878C12.4088 15.1848 11.2517 15.598 9.9999 15.598C6.91318 15.598 4.40195 13.0866 4.40195 9.9999ZM13.6579 14.2321C12.4252 13.1664 11.7199 11.6344 11.7199 9.9999C11.7199 8.36531 12.4252 6.83339 13.6579 5.76782C14.8447 6.79508 15.5978 8.31072 15.5978 9.9999C15.5978 11.6891 14.8447 13.2048 13.6579 14.2321Z" fill="black"/>
<path d="M9.7083 11.0254H5.66973C5.55928 11.0254 5.46973 11.1148 5.46973 11.2254C5.46973 11.3359 5.55928 11.4254 5.66973 11.4254H9.7083C9.81875 11.4254 9.9083 11.3359 9.9083 11.2254C9.9083 11.1148 9.81875 11.0254 9.7083 11.0254Z" fill="black"/>
<path d="M9.7084 12.3354H6.40264C6.29219 12.3354 6.20264 12.4249 6.20264 12.5354C6.20264 12.646 6.29219 12.7354 6.40264 12.7354H9.7084C9.81885 12.7354 9.9084 12.646 9.9084 12.5354C9.9084 12.4249 9.81885 12.3354 9.7084 12.3354Z" fill="black"/>
<path d="M9.70835 13.645H8.273C8.16255 13.645 8.073 13.7345 8.073 13.845C8.073 13.9556 8.16255 14.045 8.273 14.045H9.70835C9.8188 14.045 9.90835 13.9556 9.90835 13.845C9.90835 13.7345 9.8188 13.645 9.70835 13.645Z" fill="black"/>
<path d="M8.60093 7.79805C9.08667 7.79805 9.48179 7.40283 9.48179 6.91709C9.48179 6.43135 9.08667 6.03613 8.60093 6.03613C8.11519 6.03613 7.71997 6.43135 7.71997 6.91709C7.71997 7.40283 8.11518 7.79805 8.60093 7.79805ZM8.60093 6.43614C8.86606 6.43614 9.08179 6.65186 9.08179 6.91709C9.08179 7.18233 8.86607 7.39805 8.60093 7.39805C8.33569 7.39805 8.11997 7.18233 8.11997 6.91709C8.11997 6.65186 8.33569 6.43614 8.60093 6.43614Z" fill="black"/>
</svg>
