<svg width="20" height="20" viewBox="0 0 20 20" fill="none" xmlns="http://www.w3.org/2000/svg">
<path d="M9.04944 11.0994H7.89885L8.66155 9.75268C8.71594 9.65658 8.68216 9.53451 8.58606 9.48002C8.48997 9.42572 8.3679 9.45951 8.3135 9.55541L7.38167 11.2007C7.34661 11.2626 7.3471 11.3386 7.38294 11.4001C7.41878 11.4615 7.4845 11.4994 7.55569 11.4994H8.70628L7.94358 12.846C7.88919 12.9421 7.92298 13.0642 8.01907 13.1187C8.05022 13.1363 8.08401 13.1447 8.11741 13.1447C8.18714 13.1447 8.25481 13.1081 8.29163 13.0433L9.22347 11.398C9.25852 11.3361 9.25803 11.2601 9.22219 11.1986C9.18635 11.1372 9.12063 11.0994 9.04944 11.0994Z" fill="black"/>
<path d="M10.9952 4.54443H5.60991C5.49946 4.54443 5.40991 4.63389 5.40991 4.74443V8.12197C5.40991 8.23252 5.49946 8.32197 5.60991 8.32197H10.9952C11.1056 8.32197 11.1952 8.23252 11.1952 8.12197V4.74443C11.1952 4.63389 11.1056 4.54443 10.9952 4.54443ZM10.7952 7.92197H5.80991V4.94443H10.7952V7.92197Z" fill="black"/>
<path d="M16.2248 4.87549H15.7612V3.84307C15.7612 3.73252 15.6717 3.64307 15.5612 3.64307C15.4508 3.64307 15.3612 3.73252 15.3612 3.84307V4.87549H14.434V3.84307C14.434 3.73252 14.3444 3.64307 14.234 3.64307C14.1235 3.64307 14.034 3.73252 14.034 3.84307V4.87549H13.5703C13.4599 4.87549 13.3703 4.96494 13.3703 5.07549V6.54482C13.3703 6.96885 13.7152 7.31377 14.1392 7.31377H14.6976V11.2778C14.6976 12.0866 14.1035 12.7446 13.3733 12.7446H12.4239V3.64482C12.4239 3.53428 12.3344 3.44482 12.2239 3.44482H4.38115C4.2707 3.44482 4.18115 3.53428 4.18115 3.64482V14.3202H3.7752C3.66475 14.3202 3.5752 14.4097 3.5752 14.5202V16.3554C3.5752 16.4659 3.66475 16.5554 3.7752 16.5554H12.8299C12.9403 16.5554 13.0299 16.4659 13.0299 16.3554V14.5202C13.0299 14.4097 12.9403 14.3202 12.8299 14.3202H12.4239V13.1446H13.3733C14.3241 13.1446 15.0976 12.3071 15.0976 11.2778V7.31377H15.656C16.0799 7.31377 16.4248 6.96885 16.4248 6.54482V5.07549C16.4248 4.96494 16.3353 4.87549 16.2248 4.87549ZM12.6299 16.1554H3.9752V14.7202H12.6299L12.6299 16.1554ZM4.58115 14.3202V3.84482H12.0239V14.3202L4.58115 14.3202ZM16.0248 6.54482C16.0248 6.74834 15.8594 6.91377 15.656 6.91377H14.1392C13.9357 6.91377 13.7703 6.74834 13.7703 6.54482V5.27549H16.0248V6.54482Z" fill="black"/>
</svg>
