<svg width="20" height="20" viewBox="0 0 20 20" fill="none" xmlns="http://www.w3.org/2000/svg">
<path d="M16.5474 3.44482H3.45244C3.3419 3.44482 3.25244 3.53428 3.25244 3.64482V4.89561C3.25244 5.00615 3.3419 5.09561 3.45244 5.09561H4.22998V14.9046H3.45244C3.3419 14.9046 3.25244 14.994 3.25244 15.1046V16.3554C3.25244 16.4659 3.3419 16.5554 3.45244 16.5554H16.5474C16.6579 16.5554 16.7474 16.4659 16.7474 16.3554V15.1046C16.7474 14.994 16.6579 14.9046 16.5474 14.9046H15.7698V5.09561H16.5474C16.6579 5.09561 16.7474 5.00615 16.7474 4.89561V3.64482C16.7474 3.53428 16.6579 3.44482 16.5474 3.44482ZM16.3474 16.1554H3.65244V15.3046H16.3474L16.3474 16.1554ZM13.5657 14.9046H11.3913C12.1873 14.4217 12.722 13.5493 12.722 12.5522C12.722 11.0845 10.2267 8.21533 10.1204 8.09404C10.0442 8.00693 9.89541 8.00693 9.81924 8.09404C9.71299 8.21533 7.21768 11.0845 7.21768 12.5522C7.21768 13.5493 7.75241 14.4217 8.54839 14.9046H6.43408V10.4958C6.43408 8.52959 8.03369 6.92998 9.9999 6.92998C11.9661 6.92998 13.5657 8.52959 13.5657 10.4958V14.9046ZM9.84191 14.8981C9.21094 14.8338 8.71689 14.2993 8.71689 13.6517C8.71689 13.1218 9.51787 12.044 9.96982 11.4978C10.4218 12.044 11.2228 13.1218 11.2228 13.6517C11.2228 14.2993 10.7287 14.8338 10.0977 14.8981C10.0551 14.9004 10.013 14.9046 9.96982 14.9046C9.92665 14.9046 9.88452 14.9004 9.84191 14.8981ZM8.48602 14.3754C7.95666 13.9437 7.61767 13.287 7.61767 12.5522C7.61767 11.53 9.19502 9.45049 9.96982 8.53271C10.7446 9.45049 12.322 11.53 12.322 12.5522C12.322 13.287 11.983 13.9437 11.4536 14.3754C11.5608 14.1565 11.6227 13.9115 11.6227 13.6517C11.6227 12.7987 10.2741 11.2329 10.1204 11.0571C10.0442 10.97 9.89541 10.97 9.81923 11.0571C9.66552 11.2329 8.31689 12.7987 8.31689 13.6517C8.31689 13.9115 8.3788 14.1565 8.48602 14.3754ZM15.3698 14.9046H13.9657V10.4958C13.9657 8.30908 12.1866 6.52998 9.9999 6.52998C7.81318 6.52998 6.03408 8.30908 6.03408 10.4958V14.9046H4.62998V5.09561H15.3698V14.9046ZM16.3474 4.69561H3.65244V3.84482H16.3474L16.3474 4.69561Z" fill="black"/>
</svg>
