<svg width="20" height="20" viewBox="0 0 20 20" fill="none" xmlns="http://www.w3.org/2000/svg">
<path d="M15.7363 16.3555V6.14453C15.7363 6.06602 15.6902 5.99453 15.6187 5.96231L10.0823 3.4627C10.03 3.43887 9.97002 3.43887 9.91768 3.4627L4.38135 5.96231C4.30977 5.99453 4.26367 6.06602 4.26367 6.14453V16.3555C4.26367 16.466 4.35322 16.5555 4.46367 16.5555H15.5363C15.6468 16.5555 15.7363 16.466 15.7363 16.3555ZM13.5393 12.5199H6.46074V11.1021H13.5393V12.5199ZM6.46074 12.9199H13.5393V14.3377H6.46074V12.9199ZM13.5393 10.7021H6.46074V9.28438H13.5393V10.7021ZM6.46074 16.1555V14.7377H13.5393V16.1555H6.46074ZM15.3363 16.1555H13.9393V9.08437C13.9393 8.97383 13.8497 8.88438 13.7393 8.88438H6.26074C6.15029 8.88438 6.06074 8.97383 6.06074 9.08437V16.1555H4.66367V6.27363L10 3.86445L15.3363 6.27363V16.1555Z" fill="black"/>
</svg>
