<svg width="20" height="20" viewBox="0 0 20 20" fill="none" xmlns="http://www.w3.org/2000/svg">
<path d="M17.2647 4.8916H15.7242C15.6137 4.8916 15.5242 4.98115 15.5242 5.0916V7.08662H14.0976C13.197 5.68115 11.6737 4.8457 10 4.8457C8.32642 4.8457 6.80308 5.68115 5.90249 7.08662H4.47593V5.0916C4.47593 4.98115 4.38638 4.8916 4.27593 4.8916H2.7354C2.62495 4.8916 2.5354 4.98115 2.5354 5.0916V14.954C2.5354 15.0645 2.62495 15.154 2.7354 15.154H17.2647C17.3751 15.154 17.4647 15.0645 17.4647 14.954V5.0916C17.4647 4.98115 17.3751 4.8916 17.2647 4.8916ZM2.9354 5.2916H4.07593V14.754H2.9354V5.2916ZM4.47593 7.48662H6.01333C6.08305 7.48662 6.1478 7.45029 6.18413 7.39072C6.96792 6.10478 8.30884 5.31504 9.80005 5.2501V14.754H4.47592L4.47593 7.48662ZM10.2 5.2501C11.6913 5.31504 13.0322 6.10479 13.816 7.39072C13.8523 7.45029 13.917 7.48662 13.9868 7.48662H15.5242V14.754H10.2L10.2 5.2501ZM17.0647 14.754H15.9242V5.2916H17.0647V14.754Z" fill="black"/>
<path d="M11.0828 9.69482C10.9724 9.69482 10.8828 9.78437 10.8828 9.89482V10.7948C10.8828 10.9054 10.9724 10.9948 11.0828 10.9948C11.1933 10.9948 11.2828 10.9054 11.2828 10.7948V9.89482C11.2828 9.78437 11.1933 9.69482 11.0828 9.69482Z" fill="black"/>
<path d="M8.98467 9.69482C8.87422 9.69482 8.78467 9.78437 8.78467 9.89482V10.7948C8.78467 10.9054 8.87422 10.9948 8.98467 10.9948C9.09512 10.9948 9.18467 10.9054 9.18467 10.7948V9.89482C9.18467 9.78437 9.09512 9.69482 8.98467 9.69482Z" fill="black"/>
</svg>
