<svg width="20" height="20" viewBox="0 0 20 20" fill="none" xmlns="http://www.w3.org/2000/svg">
<path d="M10.0184 5.89863C10.2197 5.67227 10.5604 5.67266 10.7617 5.89863C10.7643 5.90154 10.768 5.90248 10.7707 5.9052C10.7737 5.9082 10.7749 5.9122 10.7781 5.91504C10.7874 5.92327 10.7987 5.9268 10.8089 5.933C10.819 5.93916 10.8282 5.94634 10.8391 5.95055C10.854 5.95634 10.8693 5.95805 10.8849 5.96013C10.8938 5.96133 10.9022 5.96563 10.9111 5.96563C10.9132 5.96563 10.9152 5.96459 10.9173 5.96453C10.9269 5.96424 10.9359 5.96112 10.9454 5.95946C10.9602 5.95687 10.9747 5.95441 10.9887 5.94844C10.9988 5.94418 11.0074 5.93743 11.0168 5.93147C11.0259 5.92572 11.0359 5.92232 11.0441 5.91494C11.0471 5.9123 11.0482 5.90858 11.051 5.9058C11.0539 5.90292 11.0578 5.90174 11.0605 5.89863C11.2615 5.67266 11.6023 5.67227 11.8037 5.89863C11.8434 5.94297 11.898 5.96563 11.9531 5.96563C12.0006 5.96563 12.048 5.94893 12.0861 5.91504C12.1686 5.8416 12.176 5.71514 12.1025 5.63262C11.9248 5.43311 11.6867 5.32324 11.4322 5.32324C11.2434 5.32324 11.0639 5.38424 10.9111 5.49684C10.7584 5.38424 10.5789 5.32324 10.39 5.32324C10.1354 5.32334 9.89707 5.4332 9.71953 5.63262C9.64609 5.71514 9.65352 5.8416 9.73594 5.91504C9.81816 5.98818 9.94492 5.98125 10.0184 5.89863Z" fill="black"/>
<path d="M12.8459 4.02021C12.8485 4.02312 12.8522 4.02406 12.855 4.02678C12.8579 4.02978 12.8592 4.03377 12.8624 4.03662C12.8716 4.04481 12.8828 4.0483 12.893 4.05449C12.9032 4.0607 12.9124 4.06792 12.9234 4.07215C12.938 4.07782 12.953 4.07948 12.9684 4.08157C12.9775 4.08284 12.9861 4.08721 12.9954 4.08721C12.9975 4.08721 12.9996 4.08613 13.0017 4.08606C13.0109 4.08577 13.0195 4.08277 13.0286 4.08124C13.0438 4.07865 13.0588 4.07605 13.0732 4.06987C13.0831 4.06571 13.0914 4.05911 13.1006 4.05331C13.1098 4.0475 13.12 4.04401 13.1284 4.03652C13.1313 4.03388 13.1325 4.03013 13.1353 4.02734C13.1381 4.02446 13.142 4.0233 13.1448 4.02022C13.3461 3.79385 13.687 3.79424 13.8879 4.02022C13.9276 4.06455 13.9823 4.08721 14.0374 4.08721C14.0848 4.08721 14.1323 4.07051 14.1704 4.03662C14.2528 3.96318 14.2602 3.83672 14.1868 3.7542C14.009 3.55469 13.7709 3.44482 13.5163 3.44482C13.3275 3.44482 13.1481 3.50582 12.9954 3.61842C12.8426 3.50582 12.6631 3.44482 12.4743 3.44482C12.2196 3.44482 11.9815 3.55469 11.8038 3.7542C11.7303 3.83662 11.7377 3.96309 11.8202 4.03652C11.9026 4.10996 12.0288 4.10264 12.1026 4.02022C12.3041 3.79404 12.6444 3.79404 12.8459 4.02021Z" fill="black"/>
<path d="M18.1126 16.1555H17.4227L13.2587 7.33349C13.2255 7.26269 13.1554 7.22012 13.0755 7.21885C12.9974 7.21972 12.9269 7.26611 12.8951 7.3376L10.7419 12.1787L7.85366 5.68467C7.82183 5.61309 7.75112 5.5667 7.6728 5.56592H7.67085C7.59331 5.56592 7.52261 5.61084 7.4896 5.68115L2.59115 16.1555H1.88726C1.77671 16.1555 1.68726 16.2449 1.68726 16.3555C1.68726 16.466 1.77671 16.5555 1.88726 16.5555H18.1126C18.2232 16.5555 18.3126 16.466 18.3126 16.3555C18.3126 16.2449 18.2232 16.1555 18.1126 16.1555ZM6.21698 9.34694L6.76343 10.1845C6.83726 10.2975 7.02476 10.2975 7.09858 10.1845L7.5146 9.54658L8.01519 10.5734C8.04976 10.6445 8.12085 10.6857 8.19507 10.6857C8.22436 10.6857 8.25425 10.6793 8.28257 10.6654C8.38179 10.6172 8.423 10.4975 8.37456 10.398L7.71948 9.05429C7.68804 8.98955 7.62417 8.94677 7.55229 8.94228C7.47651 8.93662 7.41147 8.97236 7.37222 9.03261L6.93101 9.70918L6.41644 8.92043L7.66636 6.24775L10.5591 12.7521C10.5592 12.7522 10.5592 12.7523 10.5592 12.7523L11.3146 14.5621C11.3466 14.6389 11.421 14.6852 11.4992 14.6852C11.525 14.6852 11.5511 14.6803 11.5761 14.6697C11.6781 14.6271 11.7263 14.51 11.6837 14.4082L10.9597 12.6735L12.0073 10.3183L12.6072 11.0502C12.6453 11.0965 12.7019 11.1234 12.7619 11.1234C12.8218 11.1234 12.8785 11.0965 12.9166 11.0502L13.5078 10.3291C13.5777 10.2437 13.5654 10.1177 13.4798 10.0477C13.3943 9.97753 13.2685 9.99033 13.1984 10.0756L12.7619 10.608L12.1984 9.9205C12.1954 9.91688 12.1911 9.91533 12.188 9.91197L13.0834 7.89882L16.9662 16.1252L3.03315 16.1549L6.21698 9.34694Z" fill="black"/>
</svg>
