<svg width="20" height="20" viewBox="0 0 20 20" fill="none" xmlns="http://www.w3.org/2000/svg">
<path d="M16.7513 12.5614H11.3035V8.89443H15.848C15.9585 8.89443 16.048 8.80498 16.048 8.69443C16.048 6.00869 13.8299 3.82373 11.1035 3.82373C8.37701 3.82373 6.15884 6.00869 6.15884 8.69443C6.15884 8.80498 6.24839 8.89443 6.35884 8.89443H10.9035V12.5614H7.12818L4.08101 9.51436C4.00318 9.43662 3.87711 9.43643 3.79869 9.51377L3.10767 10.1997C3.03043 10.2765 3.02867 10.4009 3.10386 10.4798L6.09947 13.6204C6.13504 13.656 6.17442 13.6861 6.21445 13.7149L4.81432 15.8675C4.75416 15.9601 4.78033 16.0839 4.87291 16.144C4.9066 16.1661 4.94439 16.1765 4.98179 16.1765C5.04722 16.1765 5.11129 16.1444 5.14967 16.0855L6.5884 13.8735C6.64078 13.8827 6.69393 13.8892 6.7482 13.8892H10.9035V15.7765H9.26568C9.15523 15.7765 9.06568 15.8659 9.06568 15.9765C9.06568 16.087 9.15523 16.1765 9.26568 16.1765H12.9413C13.0517 16.1765 13.1413 16.087 13.1413 15.9765C13.1413 15.8659 13.0517 15.7765 12.9413 15.7765H11.3035V13.8892H15.1551L16.5837 16.0855C16.622 16.1444 16.6861 16.1765 16.7515 16.1765C16.7889 16.1765 16.8267 16.1661 16.8604 16.144C16.953 16.0839 16.9792 15.9601 16.919 15.8675L15.6322 13.8892H16.7513C16.8618 13.8892 16.9513 13.7997 16.9513 13.6892V12.7614C16.9513 12.6509 16.8618 12.5614 16.7513 12.5614ZM10.4811 4.35048C10.0518 5.17888 9.84239 6.86099 9.8266 8.49443H8.46751C8.52012 6.4811 9.36225 4.81061 10.4811 4.35048ZM11.1035 4.22373C11.3944 4.22373 11.9525 5.73132 11.9789 8.49443H10.228C10.2544 5.73132 10.8126 4.22373 11.1035 4.22373ZM13.7394 8.49443H12.3803C12.3646 6.86099 12.1551 5.17888 11.7259 4.35048C12.8447 4.81061 13.6868 6.4811 13.7394 8.49443ZM15.6435 8.49443H14.1393C14.096 6.78755 13.5023 5.30504 12.6354 4.49047C14.328 5.08934 15.5604 6.64536 15.6435 8.49443ZM9.57159 4.49044C8.7047 5.305 8.11095 6.78752 8.06768 8.49443H6.56334C6.64644 6.64533 7.87887 5.08931 9.57159 4.49044ZM16.5513 13.4892H6.7482C6.61002 13.4892 6.48004 13.4353 6.3856 13.3409L3.52867 10.3456L3.93912 9.93799L6.90396 12.9028C6.94146 12.9403 6.99234 12.9614 7.04537 12.9614H16.5513L16.5513 13.4892Z" fill="black"/>
</svg>
