<svg width="20" height="20" viewBox="0 0 20 20" fill="none" xmlns="http://www.w3.org/2000/svg">
<path d="M14.406 10.2377C13.979 10.6203 13.2843 10.6205 12.8573 10.2377C12.283 9.72246 11.3486 9.72246 10.7745 10.2377C10.3522 10.6159 9.66935 10.619 9.24147 10.2492C9.24381 10.2369 9.24883 10.2256 9.24883 10.2127V6.23438C9.24883 5.10137 8.32705 4.17969 7.19414 4.17969C7.08369 4.17969 6.99414 4.26914 6.99414 4.37969C6.99414 4.49023 7.08369 4.57969 7.19414 4.57969C8.03872 4.57969 8.73629 5.2162 8.83551 6.03438H5.68928C5.58837 4.99492 4.71023 4.17969 3.64482 4.17969C3.53437 4.17969 3.44482 4.26914 3.44482 4.37969C3.44482 4.49023 3.53437 4.57969 3.64482 4.57969C4.55713 4.57969 5.29941 5.32207 5.29941 6.23438V10.0348C4.73494 9.73665 3.99548 9.80327 3.51133 10.2377C3.4291 10.3113 3.42217 10.4379 3.4959 10.5201C3.56963 10.6022 3.696 10.6094 3.77832 10.5354C4.20527 10.1525 4.9001 10.1523 5.32705 10.5354C5.90146 11.0504 6.83584 11.0508 7.40986 10.5354C7.83701 10.1525 8.53183 10.1525 8.95859 10.5354C9.53301 11.0506 10.4672 11.0506 11.0416 10.5354C11.4684 10.1525 12.1631 10.1523 12.5902 10.5354C12.8774 10.793 13.2545 10.9219 13.6317 10.9219C14.0088 10.9217 14.386 10.793 14.673 10.5354C15.1002 10.1525 15.7947 10.1525 16.2219 10.5354C16.3041 10.6094 16.4304 10.6021 16.5043 10.5201C16.578 10.4379 16.5711 10.3113 16.4889 10.2377C15.9146 9.72246 14.9804 9.72246 14.406 10.2377ZM8.84883 7.57461H5.69941V6.43438H8.84883V7.57461ZM5.69941 7.97461H8.84883V9.11484H5.69941V7.97461ZM7.14277 10.2377C6.7418 10.5973 6.10776 10.6145 5.67799 10.299C5.6908 10.2727 5.69941 10.244 5.69941 10.2127V9.51484H8.84883V9.9936C8.2964 9.74336 7.60394 9.82417 7.14277 10.2377Z" fill="black"/>
<path d="M14.4059 12.6857C13.979 13.0684 13.2843 13.0686 12.8573 12.6857C12.283 12.1707 11.3486 12.1703 10.7745 12.6857C10.3474 13.0684 9.65253 13.0686 9.22578 12.6857C8.65156 12.1707 7.71738 12.1703 7.14277 12.6857C6.71572 13.0688 6.02119 13.0684 5.59414 12.6857C5.01992 12.1705 4.08554 12.1705 3.51132 12.6857C3.4291 12.7594 3.42216 12.8859 3.49589 12.9682C3.56962 13.0502 3.69599 13.0572 3.77832 12.9834C4.20527 12.6006 4.90009 12.6004 5.32705 12.9834C5.90146 13.4986 6.83584 13.4988 7.40986 12.9834C7.83701 12.6006 8.53183 12.6006 8.95859 12.9834C9.533 13.4986 10.4672 13.4986 11.0416 12.9834C11.4684 12.6006 12.1631 12.6004 12.5902 12.9834C12.8774 13.241 13.2545 13.3699 13.6317 13.3699C14.0088 13.3697 14.386 13.241 14.673 12.9834C15.1002 12.6006 15.7947 12.6006 16.2219 12.9834C16.3041 13.0572 16.4304 13.0502 16.5043 12.9682C16.578 12.8859 16.5711 12.7594 16.4889 12.6857C15.9146 12.1705 14.9804 12.1705 14.4059 12.6857Z" fill="black"/>
<path d="M14.4059 15.134C13.979 15.5166 13.2843 15.5166 12.8573 15.134C12.283 14.6189 11.3486 14.6186 10.7745 15.134C10.3474 15.5166 9.65253 15.5166 9.22578 15.134C8.65156 14.6189 7.71738 14.6186 7.14277 15.134C6.71572 15.5168 6.02119 15.5168 5.59414 15.134C5.01992 14.6188 4.08554 14.6188 3.51132 15.134C3.4291 15.2076 3.42216 15.3342 3.49589 15.4164C3.56962 15.4984 3.69599 15.5055 3.77832 15.4316C4.20527 15.0486 4.90009 15.0486 5.32705 15.4316C5.90146 15.9469 6.83584 15.9473 7.40986 15.4316C7.83701 15.0488 8.53183 15.0488 8.95859 15.4316C9.533 15.9469 10.4672 15.9469 11.0416 15.4316C11.4684 15.0486 12.1631 15.0486 12.5902 15.4316C12.8774 15.6893 13.2545 15.8182 13.6317 15.8182C14.0088 15.818 14.386 15.6893 14.673 15.4316C15.1002 15.0488 15.7947 15.0488 16.2219 15.4316C16.3041 15.5055 16.4304 15.4984 16.5043 15.4164C16.578 15.3342 16.5711 15.2076 16.4889 15.134C15.9146 14.6188 14.9804 14.6188 14.4059 15.134Z" fill="black"/>
<path d="M16.3553 7.57471H10C9.8896 7.57471 9.80005 7.66416 9.80005 7.77471C9.80005 7.88525 9.8896 7.97471 10 7.97471H16.3553C16.4658 7.97471 16.5553 7.88525 16.5553 7.77471C16.5553 7.66416 16.4658 7.57471 16.3553 7.57471Z" fill="black"/>
<path d="M3.64482 7.82871H4.57217C4.68262 7.82871 4.77217 7.73926 4.77217 7.62871C4.77217 7.51816 4.68262 7.42871 4.57217 7.42871H3.64482C3.53437 7.42871 3.44482 7.51816 3.44482 7.62871C3.44482 7.73926 3.53437 7.82871 3.64482 7.82871Z" fill="black"/>
</svg>
