<svg width="20" height="20" viewBox="0 0 20 20" fill="none" xmlns="http://www.w3.org/2000/svg">
<path d="M14.8442 10.3877H12.9036C12.7932 10.3877 12.7036 10.4772 12.7036 10.5877V13.2652C12.7036 13.3757 12.7932 13.4652 12.9036 13.4652H14.8442C14.9547 13.4652 15.0442 13.3757 15.0442 13.2652V10.5877C15.0442 10.4772 14.9547 10.3877 14.8442 10.3877ZM14.6442 13.0652H13.1036V10.7877H14.6442V13.0652Z" fill="black"/>
<path d="M8.01309 7.96094C7.34756 7.96094 6.80615 8.50234 6.80615 9.16787C6.80615 9.8334 7.34756 10.3748 8.01309 10.3748C8.67861 10.3748 9.22002 9.8334 9.22002 9.16787C9.22002 8.50234 8.67861 7.96094 8.01309 7.96094ZM8.01309 9.9748C7.56816 9.9748 7.20615 9.61279 7.20615 9.16787C7.20615 8.72295 7.56816 8.36094 8.01309 8.36094C8.45801 8.36094 8.82002 8.72295 8.82002 9.16787C8.82002 9.61279 8.45801 9.9748 8.01309 9.9748Z" fill="black"/>
<path d="M17.3749 15.2085H16.7813V8.32974C16.7813 8.32688 16.7798 8.32451 16.7797 8.32168C16.7787 8.29838 16.7752 8.27512 16.766 8.25298L16.7656 8.25217C16.7656 8.25199 16.7655 8.25183 16.7654 8.25166L15.212 4.5146C15.181 4.43999 15.1081 4.39136 15.0273 4.39136H4.97261C4.89184 4.39136 4.8189 4.43999 4.78794 4.5146L3.23448 8.25166C3.23441 8.25183 3.23435 8.25199 3.23426 8.25217L3.23393 8.25298C3.22472 8.27512 3.22115 8.29838 3.22023 8.32168C3.2201 8.32451 3.2186 8.32688 3.2186 8.32974V15.2085H2.62505C2.5146 15.2085 2.42505 15.2981 2.42505 15.4085C2.42505 15.519 2.5146 15.6085 2.62505 15.6085H17.3749C17.4853 15.6085 17.5749 15.519 17.5749 15.4085C17.5749 15.2981 17.4853 15.2085 17.3749 15.2085ZM5.1061 4.79136H14.8938L16.2816 8.12973H11.0596L8.1518 5.32329C8.07426 5.24848 7.95161 5.24848 7.87407 5.32329L4.96632 8.12973H3.71831L5.1061 4.79136ZM3.6186 8.52974H4.83052V15.2085H3.6186V8.52974ZM6.95933 15.2085V12.0208H9.06655V15.2085H6.95933ZM9.46655 15.2085V11.8208C9.46655 11.7103 9.377 11.6208 9.26655 11.6208H6.75933C6.64888 11.6208 6.55933 11.7103 6.55933 11.8208V15.2085H5.23052V8.43071L8.01294 5.74517L10.7954 8.43071V15.2085H9.46655ZM11.1954 15.2085V8.52974H16.3813V15.2085H11.1954Z" fill="black"/>
</svg>
