<svg width="20" height="20" viewBox="0 0 20 20" fill="none" xmlns="http://www.w3.org/2000/svg">
<path d="M17.3749 17.1183H16.719V5.82598C16.719 5.77168 16.6969 5.71973 16.6579 5.68203L13.4001 2.53779C13.3226 2.46299 13.1998 2.46299 13.1224 2.53779L10.0037 5.548L6.88481 2.53779C6.80727 2.46299 6.68462 2.46299 6.60708 2.53779L3.34936 5.68203C3.3103 5.71973 3.28823 5.77168 3.28823 5.82598V10.5944C3.28591 10.6066 3.28091 10.6178 3.28091 10.6307V11.5714C3.28091 11.5843 3.28591 11.5955 3.28823 11.6077V17.1183H2.62505C2.5146 17.1183 2.42505 17.2078 2.42505 17.3183C2.42505 17.4287 2.5146 17.5183 2.62505 17.5183H17.3749C17.4853 17.5183 17.5749 17.4287 17.5749 17.3183C17.5749 17.2078 17.4853 17.1183 17.3749 17.1183ZM9.80366 10.4307H3.68823V7.06091L6.74594 4.10967L9.80366 7.06091L9.80366 10.4307ZM3.68823 10.8307H9.79624V11.3714H3.68823V10.8307ZM10.2037 10.8307H16.3117V11.3714H10.2037V10.8307ZM10.2037 10.4307V7.06091L13.2613 4.10967L16.319 7.06091V10.4307H10.2037ZM13.2613 2.95967L16.319 5.91094V6.50497L13.4001 3.68779C13.3226 3.61299 13.1998 3.61299 13.1224 3.68779L10.2037 6.50496V5.91094L13.2613 2.95967ZM6.74594 2.95967L9.80366 5.91094V6.50497L6.88481 3.68779C6.80727 3.61299 6.68462 3.61299 6.60708 3.68779L3.68823 6.50497V5.91094L6.74594 2.95967ZM3.68823 11.7714H9.80366V17.1183H8.15405V14.2667C8.15405 14.1563 8.0645 14.0667 7.95405 14.0667H5.53784C5.42739 14.0667 5.33784 14.1563 5.33784 14.2667V17.1183H3.68823V11.7714ZM5.73784 17.1183V14.4667H7.75405V17.1183H5.73784ZM12.2533 17.1183V14.4667H14.2694V17.1183H12.2533ZM14.6694 17.1183V14.2667C14.6694 14.1563 14.5798 14.0667 14.4694 14.0667H12.0533C11.9428 14.0667 11.8533 14.1563 11.8533 14.2667V17.1183H10.2037V11.7714H16.319V17.1183H14.6694Z" fill="black"/>
<path d="M6.13687 6.85522H4.93901C4.82856 6.85522 4.73901 6.94477 4.73901 7.05522V8.91782C4.73901 9.02827 4.82856 9.11782 4.93901 9.11782H6.13687C6.24732 9.11782 6.33687 9.02827 6.33687 8.91782V7.05522C6.33687 6.94477 6.24732 6.85522 6.13687 6.85522ZM5.93687 8.71782H5.13901V7.25522H5.93687V8.71782Z" fill="black"/>
<path d="M7.35527 9.11782H8.55313C8.66358 9.11782 8.75313 9.02827 8.75313 8.91782V7.05522C8.75313 6.94477 8.66358 6.85522 8.55313 6.85522H7.35527C7.24482 6.85522 7.15527 6.94477 7.15527 7.05522V8.91782C7.15527 9.02827 7.24482 9.11782 7.35527 9.11782ZM7.55527 7.25522H8.35313V8.71782H7.55527V7.25522Z" fill="black"/>
<path d="M12.6523 6.85522H11.4544C11.3439 6.85522 11.2544 6.94477 11.2544 7.05522V8.91782C11.2544 9.02827 11.3439 9.11782 11.4544 9.11782H12.6523C12.7628 9.11782 12.8523 9.02827 12.8523 8.91782V7.05522C12.8523 6.94477 12.7628 6.85522 12.6523 6.85522ZM12.4523 8.71782H11.6544V7.25522H12.4523V8.71782Z" fill="black"/>
<path d="M15.0683 6.85522H13.8704C13.76 6.85522 13.6704 6.94477 13.6704 7.05522V8.91782C13.6704 9.02827 13.76 9.11782 13.8704 9.11782H15.0683C15.1787 9.11782 15.2683 9.02827 15.2683 8.91782V7.05522C15.2683 6.94477 15.1787 6.85522 15.0683 6.85522ZM14.8683 8.71782H14.0704V7.25522H14.8683V8.71782Z" fill="black"/>
</svg>
