<svg width="20" height="20" viewBox="0 0 20 20" fill="none" xmlns="http://www.w3.org/2000/svg">
<path d="M6.9314 6.7125V7.40311C4.8895 8.08446 3.47437 10.0313 3.47437 12.1954C3.47437 14.9821 5.74155 17.2493 8.52827 17.2493C10.6456 17.2493 12.5114 15.9349 13.2489 13.9943L14.1753 15.6789C14.3962 16.0808 14.8187 16.3305 15.2779 16.3305C15.5455 16.3305 15.8029 16.2459 16.0224 16.0858C16.5294 15.7159 16.6755 15.0071 16.3621 14.437L14.3744 10.8229C14.1533 10.4211 13.7312 10.1715 13.2728 10.1715H9.97456V9.21348H11.9035C12.4482 9.21348 12.8871 8.78691 12.9027 8.24248C12.9103 7.97021 12.8101 7.71269 12.6203 7.51738C12.4306 7.32207 12.1759 7.21445 11.9035 7.21445H9.97456V6.7125C9.97456 6.27247 9.70979 5.89369 9.33151 5.72543C9.80531 5.44809 10.1251 4.935 10.1251 4.34746C10.1251 3.46689 9.40874 2.75049 8.52827 2.75049C7.6478 2.75049 6.9314 3.46689 6.9314 4.34746C6.9314 4.91047 7.225 5.40528 7.66636 5.68973C7.23971 5.83424 6.9314 6.23766 6.9314 6.7125ZM8.52827 16.8493C5.96206 16.8493 3.87437 14.7616 3.87437 12.1954C3.87437 10.2474 5.11941 8.49014 6.9314 7.82606V11.4288C6.9314 12.1221 7.49546 12.6861 8.18862 12.6861H12.5294L12.9872 13.5184C12.4051 15.4869 10.5972 16.8493 8.52827 16.8493ZM7.3314 4.34746C7.3314 3.6874 7.86831 3.15049 8.52827 3.15049C9.18824 3.15049 9.72515 3.6874 9.72515 4.34746C9.72515 5.00752 9.18824 5.54443 8.52827 5.54443C7.86831 5.54443 7.3314 5.00752 7.3314 4.34746ZM7.3314 6.7125C7.3314 6.3373 7.63648 6.03213 8.01167 6.03213H8.89429C9.26949 6.03213 9.57456 6.3373 9.57456 6.7125V7.41445C9.57456 7.52491 9.66402 7.61446 9.77456 7.61446H11.9035C12.0669 7.61446 12.2197 7.679 12.3335 7.79619C12.4474 7.91328 12.5074 8.06768 12.5027 8.23106C12.4935 8.55762 12.2302 8.81348 11.9035 8.81348H9.77456C9.66402 8.81348 9.57456 8.90303 9.57456 9.01348V10.3715C9.57456 10.4819 9.66402 10.5715 9.77456 10.5715H13.2728C13.5853 10.5715 13.8732 10.7417 14.024 11.0156L16.0117 14.6297C16.2283 15.0239 16.1316 15.511 15.7867 15.7627C15.6361 15.8725 15.4601 15.9305 15.2779 15.9305C14.9646 15.9305 14.6765 15.7603 14.5257 15.4861L13.4186 13.4731C13.4198 13.4684 13.4216 13.464 13.4228 13.4593C13.4503 13.3522 13.3859 13.2433 13.2789 13.2157C13.2782 13.2156 13.2776 13.2158 13.277 13.2156L12.8228 12.3897C12.7877 12.3259 12.7205 12.2861 12.6476 12.2861H8.18863C7.71597 12.2861 7.3314 11.9016 7.3314 11.4288L7.3314 6.7125Z" fill="black"/>
</svg>
