<svg width="40" height="47" viewBox="0 0 40 47" fill="none" xmlns="http://www.w3.org/2000/svg">
<path d="M13.8292 9.81319C14.1368 9.5444 14.3863 9.32534 14.6372 9.10787C16.043 7.88664 17.455 6.67282 18.8517 5.44153C19.1882 5.14469 19.5636 5.12247 19.9652 5.15898C20.1379 5.17485 20.2689 5.28994 20.3954 5.40238C21.2401 6.15268 22.0856 6.9014 22.9304 7.6517C25.1436 9.61795 27.3566 11.5845 29.5691 13.5512C31.1407 14.9481 32.7114 16.3461 34.2826 17.7432C35.6663 18.9737 37.0497 20.2045 38.4349 21.4329C38.5516 21.5363 38.6672 21.6405 38.8033 21.7239C39.0768 21.8916 39.1977 22.1414 39.1614 22.4681C39.1337 22.7197 39.0707 22.8041 38.8139 22.82C38.5114 22.839 38.2075 22.8448 37.9042 22.8411C37.0978 22.8313 36.2965 22.9237 35.492 22.9496C35.0424 22.9639 34.5924 22.9784 34.143 22.9713C33.0852 22.9544 32.0333 23.0631 30.978 23.097C30.9259 23.0986 30.8735 23.1049 30.8223 23.116C30.5222 23.1808 30.4992 23.2041 30.5031 23.5097C30.5335 25.8847 30.5666 28.2597 30.5983 30.6347C30.6041 31.0741 30.6058 31.5136 30.6107 31.953C30.6414 34.7362 30.6716 37.5194 30.7036 40.3027C30.7222 41.9035 30.7438 43.5044 30.7634 45.1053C30.7653 45.2622 30.7708 45.4199 30.7587 45.5759C30.7293 45.9559 30.5602 46.1196 30.1787 46.1268C29.7922 46.1342 29.4051 46.1241 29.0183 46.1249C24.0808 46.1342 19.143 46.1424 14.2054 46.1545C12.6363 46.1585 11.0671 46.1733 9.49799 46.1829C9.40382 46.1834 9.30909 46.1879 9.2157 46.1791C8.78211 46.1397 8.54371 45.8654 8.53815 45.4302C8.52705 44.5529 8.52412 43.6756 8.50269 42.798C8.4712 41.5048 8.47541 40.2108 8.45985 38.9171C8.45002 38.1044 8.43122 37.2916 8.41828 36.4789C8.40748 35.7789 8.40003 35.0788 8.38947 34.3788C8.37702 33.5343 8.36249 32.6898 8.3498 31.8456C8.34187 31.3125 8.33601 30.7797 8.32832 30.2466C8.31672 29.4129 8.30402 28.5793 8.29212 27.7456C8.28205 27.0456 8.27381 26.3456 8.26325 25.6453C8.25239 24.9479 8.23969 24.2505 8.22785 23.5528C8.22651 23.4798 8.22071 23.4065 8.22486 23.3335C8.23176 23.2131 8.2884 23.138 8.42042 23.1401C8.50428 23.1417 8.5879 23.1393 8.67152 23.1398C9.68635 23.147 10.701 23.1546 11.7156 23.161C11.8095 23.1618 11.9055 23.1652 11.9971 23.1491C12.1656 23.1192 12.2587 22.9962 12.2465 22.8411C12.2349 22.6919 12.1539 22.6178 11.9706 22.6038C11.856 22.5948 11.7404 22.5991 11.6254 22.5985C9.85755 22.5887 8.08973 22.5917 6.32191 22.566C4.69062 22.5422 3.05958 22.4882 1.42823 22.4472C1.35523 22.4453 1.28193 22.4416 1.20893 22.4379C0.875251 22.4213 0.590095 22.3295 0.46656 21.9734C0.318428 21.5472 0.390632 21.2334 0.702278 20.9471C1.13349 20.5511 1.56477 20.1548 1.99152 19.7539C2.61774 19.1661 3.27357 18.6155 3.97492 18.1187C4.40986 17.8104 4.79218 17.4348 5.2306 17.1295C5.67585 16.8189 6.05469 16.4247 6.51423 16.1273C6.97065 15.832 7.34498 15.4272 7.76453 15.0812C7.89765 14.9714 7.88703 14.8251 7.88703 14.6788C7.88569 13.779 7.88734 12.879 7.88148 11.9792C7.87275 10.6085 7.85401 9.23777 7.8484 7.86706C7.83942 5.64869 7.83759 3.43032 7.83308 1.21194C7.83283 1.13866 7.8307 1.06511 7.83417 0.992091C7.84553 0.769592 7.95533 0.646305 8.17121 0.612441C8.21217 0.606356 8.25483 0.60662 8.29658 0.607414C9.93928 0.637045 11.5801 0.540744 13.2225 0.542331C13.2643 0.542331 13.3064 0.540744 13.3482 0.542331C13.6469 0.554237 13.7347 0.639162 13.7379 0.946057C13.7463 1.75166 13.7392 2.55778 13.7565 3.36285C13.7993 5.39285 13.7964 7.42286 13.8101 9.45259C13.8109 9.5444 13.8196 9.63594 13.8292 9.81319ZM27.7156 26.7104C27.705 26.3112 27.6839 25.705 27.5444 25.1103C27.4386 24.6579 27.2772 24.2293 26.9894 23.8576C26.7021 23.4859 26.3303 23.248 25.8648 23.1734C25.4716 23.1107 25.0951 23.1864 24.7303 23.3375C24.1498 23.5782 23.6652 23.9581 23.2196 24.3894C22.3262 25.2542 21.6153 26.2614 20.9663 27.3157C20.5599 27.9758 20.1941 28.6576 19.8441 29.3484C19.7059 29.6214 19.6824 29.6185 19.5136 29.3542C19.2321 28.9134 18.9596 28.4663 18.6633 28.0356C17.89 26.9115 17.0397 25.8524 15.973 24.9873C15.4907 24.5963 14.97 24.2677 14.3689 24.0856C13.3461 23.7756 12.463 24.1497 11.9738 25.101C11.9262 25.1939 11.8833 25.2897 11.8447 25.3868C11.5685 26.0797 11.4955 26.8091 11.5036 27.5435C11.518 28.8044 11.7193 30.0428 12.0195 31.2657C12.6162 33.6967 13.522 36.0101 14.68 38.2258C15.5597 39.909 16.5679 41.508 17.8254 42.9393C18.171 43.3327 18.5331 43.7108 18.9464 44.0341C19.2207 44.2486 19.4398 44.238 19.7089 44.0137C19.7819 43.9526 19.856 43.8991 19.9417 43.8576C20.369 43.6494 20.7388 43.3594 21.0859 43.0388C22.0714 42.1281 22.8394 41.0455 23.5275 39.9047C25.0067 37.4522 26.0952 34.8304 26.8661 32.076C27.3383 30.3889 27.6762 28.6777 27.7156 26.7104Z" fill="#869A7D"/>
</svg>
