<svg width="42" height="42" viewBox="0 0 42 42" fill="none" xmlns="http://www.w3.org/2000/svg">
<g clip-path="url(#clip0_1_1118)">
<path d="M38.1822 32.1361H3.81854C2.03672 32.1361 0.636719 30.7361 0.636719 28.9543V4.07244C0.636719 2.29063 2.03672 0.890625 3.81854 0.890625H38.1822C39.964 0.890625 41.364 2.29063 41.364 4.07244V28.9543C41.364 30.7361 39.964 32.1361 38.1822 32.1361ZM3.81854 2.16335C2.73672 2.16335 1.90945 2.99063 1.90945 4.07244V28.9543C1.90945 30.0361 2.73672 30.8634 3.81854 30.8634H38.1822C39.264 30.8634 40.0913 30.0361 40.0913 28.9543V4.07244C40.0913 2.99063 39.264 2.16335 38.1822 2.16335H3.81854Z" fill="#052C2C"/>
<path d="M40.0916 27.427H1.9098C1.52798 27.427 1.27344 27.1725 1.27344 26.7907C1.27344 26.4088 1.52798 26.1543 1.9098 26.1543H40.0916C40.4734 26.1543 40.728 26.4088 40.728 26.7907C40.728 27.1725 40.4098 27.427 40.0916 27.427ZM26.7916 36.9725H15.2098C15.0189 36.9725 14.828 36.9088 14.7007 36.7179C14.5734 36.527 14.5734 36.3361 14.5734 36.1452L16.0371 31.3088C16.1007 31.0543 16.3553 30.8634 16.6734 30.8634H25.3916C25.6462 30.8634 25.9007 31.0543 26.028 31.3088L27.4916 36.1452C27.5553 36.3361 27.4916 36.527 27.3643 36.7179C27.2371 36.9088 26.9825 36.9725 26.7916 36.9725ZM16.0371 35.6998H25.9643L24.8825 32.1361H17.1189L16.0371 35.6998ZM23.1643 29.7816H18.8371C18.4553 29.7816 18.2007 29.527 18.2007 29.1452C18.2007 28.7634 18.4553 28.5088 18.8371 28.5088H23.1643C23.5462 28.5088 23.8007 28.7634 23.8007 29.1452C23.8007 29.527 23.5462 29.7816 23.1643 29.7816Z" fill="#052C2C"/>
<path d="M28.6367 41.1094H13.3639C12.3458 41.1094 11.4548 40.2821 11.4548 39.2003V37.6094C11.4548 36.5912 12.2821 35.7003 13.3639 35.7003H28.6367C29.6548 35.7003 30.5458 36.5276 30.5458 37.6094V39.2003C30.5458 40.2185 29.6548 41.1094 28.6367 41.1094ZM13.3639 36.973C13.0458 36.973 12.7276 37.2276 12.7276 37.6094V39.2003C12.7276 39.5185 12.9821 39.8367 13.3639 39.8367H28.6367C28.9548 39.8367 29.273 39.5821 29.273 39.2003V37.6094C29.273 37.2912 29.0185 36.973 28.6367 36.973H13.3639ZM7.63667 8.90941C6.10939 8.90941 4.83667 7.63668 4.83667 6.17305C4.83667 4.70941 6.10939 3.37305 7.63667 3.37305C9.16394 3.37305 10.4367 4.64577 10.4367 6.17305C10.4367 7.70032 9.16394 8.90941 7.63667 8.90941ZM7.63667 4.64577C6.80939 4.64577 6.10939 5.34577 6.10939 6.17305C6.10939 7.00032 6.80939 7.63668 7.63667 7.63668C8.46394 7.63668 9.16394 6.93668 9.16394 6.17305C9.16394 5.40941 8.46394 4.64577 7.63667 4.64577ZM9.8003 16.0367H5.53667C4.39121 16.0367 3.37303 15.2094 3.11848 14.064C3.05485 13.6185 2.99121 13.2367 2.99121 12.8549C2.99121 9.80032 5.91848 9.80032 7.63667 9.80032C9.35485 9.80032 12.2821 9.80032 12.2821 12.8549C12.2821 13.2367 12.2185 13.6821 12.1548 14.064C11.9003 15.2094 10.8821 16.0367 9.8003 16.0367ZM7.63667 11.073C5.02758 11.073 4.26394 11.4549 4.26394 12.8549C4.26394 13.173 4.32757 13.4912 4.39121 13.8094C4.51848 14.3821 4.96394 14.764 5.53667 14.764H9.8003C10.373 14.764 10.8185 14.3821 10.9458 13.8094C11.0094 13.4912 11.073 13.1094 11.073 12.8549C11.0094 11.4549 10.2458 11.073 7.63667 11.073Z" fill="#052C2C"/>
<path d="M14.0004 18.5179H1.27308C0.891264 18.5179 0.636719 18.2634 0.636719 17.8815C0.636719 17.4997 0.891264 17.2452 1.27308 17.2452H13.364V1.52699C13.364 1.14517 13.6185 0.890625 14.0004 0.890625C14.3822 0.890625 14.6367 1.14517 14.6367 1.52699V17.8815C14.6367 18.2634 14.3822 18.5179 14.0004 18.5179ZM14.0004 21.7634H7.06399C6.68217 21.7634 6.42763 21.5088 6.42763 21.127C6.42763 20.7452 6.68217 20.4906 7.06399 20.4906H14.0004C14.3822 20.4906 14.6367 20.7452 14.6367 21.127C14.6367 21.5088 14.3822 21.7634 14.0004 21.7634ZM5.1549 21.7634H4.26399C3.88217 21.7634 3.62763 21.5088 3.62763 21.127C3.62763 20.7452 3.88217 20.4906 4.26399 20.4906H5.1549C5.53672 20.4906 5.79126 20.7452 5.79126 21.127C5.79126 21.5088 5.53672 21.7634 5.1549 21.7634ZM14.0004 24.4361H7.06399C6.68217 24.4361 6.42763 24.1815 6.42763 23.7997C6.42763 23.4179 6.68217 23.1634 7.06399 23.1634H14.0004C14.3822 23.1634 14.6367 23.4179 14.6367 23.7997C14.6367 24.1815 14.3822 24.4361 14.0004 24.4361ZM5.1549 24.4361H4.26399C3.88217 24.4361 3.62763 24.1815 3.62763 23.7997C3.62763 23.4179 3.88217 23.1634 4.26399 23.1634H5.1549C5.53672 23.1634 5.79126 23.4179 5.79126 23.7997C5.79126 24.1815 5.53672 24.4361 5.1549 24.4361ZM21.5094 14.9543C21.3822 14.9543 21.2549 14.8906 21.1913 14.827C18.264 12.9179 16.5458 9.73608 16.5458 6.23608C16.5458 5.9179 16.8004 5.59972 17.1185 5.53608C17.6913 5.47244 18.2004 5.40881 18.7731 5.2179C19.664 4.96335 20.4276 4.58153 21.1913 4.13608C21.3822 4.00881 21.7004 4.00881 21.8913 4.13608C22.6549 4.64517 23.4185 4.96335 24.3094 5.2179C24.8822 5.34517 25.3913 5.47244 25.964 5.53608C26.2822 5.53608 26.5367 5.85426 26.5367 6.17244V6.23608C26.5367 9.73608 24.8185 12.9179 21.8913 14.827C21.7004 14.9543 21.5731 14.9543 21.5094 14.9543ZM17.7549 6.80881C17.9458 9.54517 19.2822 11.9634 21.4458 13.5543C23.6731 11.9634 25.0094 9.54517 25.1367 6.80881C24.6913 6.74517 24.2458 6.68153 23.8004 6.55426C22.9731 6.29972 22.1458 5.98153 21.3822 5.53608C20.6185 5.98153 19.7913 6.29972 18.964 6.55426C18.6458 6.68153 18.2004 6.80881 17.7549 6.80881Z" fill="#052C2C"/>
<path d="M22.719 11.5811C22.5917 11.5811 22.5281 11.5811 22.4008 11.5175L21.5099 11.0084L20.619 11.5175C20.4281 11.6447 20.1735 11.5811 19.919 11.4538C19.7281 11.3266 19.6008 11.072 19.6645 10.8175L19.8554 9.79929L19.0917 9.16293C18.9008 8.97202 18.8372 8.71747 18.9008 8.52656C18.9645 8.27202 19.1554 8.14474 19.4099 8.08111L20.4281 7.95384L20.8735 7.06293C21.0645 6.61747 21.8281 6.61747 22.019 7.06293L22.4645 7.95384L23.4826 8.08111C23.7372 8.14474 23.9281 8.27202 23.9917 8.52656C24.0554 8.78111 23.9917 9.03565 23.8008 9.16293L23.0372 9.86293L23.2281 10.8811C23.2917 11.1357 23.1645 11.3902 22.9735 11.5175C22.9735 11.5811 22.8463 11.5811 22.719 11.5811ZM21.5099 9.67202C21.6372 9.67202 21.7008 9.67202 21.8281 9.73565L21.8917 9.79929V9.73565C21.8281 9.54474 21.9554 9.2902 22.0826 9.16293L22.1463 9.09929H22.0826C21.8917 9.09929 21.7008 8.90838 21.5735 8.78111L21.5099 8.71747L21.4463 8.78111C21.3826 8.97202 21.1917 9.09929 20.9372 9.09929H20.8735L20.9372 9.16293C21.0645 9.2902 21.1281 9.54474 21.1281 9.73565V9.79929L21.1917 9.73565C21.2554 9.73565 21.3826 9.67202 21.5099 9.67202ZM37.3554 14.2538H28.7645C28.3826 14.2538 28.1281 13.9993 28.1281 13.6175V6.36293C28.1281 5.98111 28.3826 5.72656 28.7645 5.72656H37.3554C37.7372 5.72656 37.9917 5.98111 37.9917 6.36293V13.6175C37.9917 13.9357 37.7372 14.2538 37.3554 14.2538ZM29.4008 12.9811H36.719V6.99929H29.4008V12.9811ZM37.3554 18.072H27.3645C26.9826 18.072 26.7281 17.8175 26.7281 17.4357C26.7281 17.0538 26.9826 16.7993 27.3645 16.7993H37.3554C37.7372 16.7993 37.9917 17.0538 37.9917 17.4357C37.9917 17.8175 37.7372 18.072 37.3554 18.072ZM37.3554 21.1266H19.6008C19.219 21.1266 18.9645 20.872 18.9645 20.4902C18.9645 20.1084 19.219 19.8538 19.6008 19.8538H37.3554C37.7372 19.8538 37.9917 20.1084 37.9917 20.4902C37.9917 20.872 37.7372 21.1266 37.3554 21.1266ZM37.3554 24.1811H19.6008C19.219 24.1811 18.9645 23.9266 18.9645 23.5447C18.9645 23.1629 19.219 22.9084 19.6008 22.9084H37.3554C37.7372 22.9084 37.9917 23.1629 37.9917 23.5447C37.9917 23.9266 37.7372 24.1811 37.3554 24.1811Z" fill="#052C2C"/>
</g>
<defs>
<clipPath id="clip0_1_1118">
<rect width="42" height="42" fill="white"/>
</clipPath>
</defs>
</svg>
