<svg width="42" height="42" viewBox="0 0 42 42" fill="none" xmlns="http://www.w3.org/2000/svg">
<g clip-path="url(#clip0_1_1130)">
<path d="M39.9683 20.3228H33.8713V8.10075C33.8709 7.75877 33.735 7.43088 33.4932 7.189L26.6822 0.378C26.4404 0.136258 26.1125 0.000319681 25.7705 0H0.90825C0.667367 0 0.43635 0.0956903 0.26602 0.26602C0.0956903 0.43635 0 0.667367 0 0.90825L0 41.0918C0 41.594 0.406 42 0.90825 42H32.963C33.2039 42 33.4349 41.9043 33.6052 41.734C33.7756 41.5636 33.8713 41.3326 33.8713 41.0918V37.9417H39.9683C40.2353 37.9415 40.4997 37.8887 40.7463 37.7863C40.9929 37.6839 41.217 37.5339 41.4056 37.3449C41.5943 37.1559 41.7439 36.9316 41.8459 36.6848C41.9479 36.438 42.0002 36.1735 42 35.9065V22.3545C41.9991 21.8159 41.7847 21.2997 41.4039 20.9189C41.0231 20.538 40.5068 20.3237 39.9683 20.3228ZM26.425 2.02825L31.85 7.45325H26.425V2.02825ZM1.3545 40.6455V1.3545H25.0705V8.12875C25.0705 8.5015 25.3715 8.8025 25.7443 8.8025H32.5168V20.3228H18.291C17.7521 20.3232 17.2354 20.5374 16.8542 20.9182C16.473 21.2991 16.2584 21.8156 16.2575 22.3545V35.903C16.2584 36.4419 16.473 36.9584 16.8542 37.3393C17.2354 37.7201 17.7521 37.9343 18.291 37.9347H32.5168L32.5238 40.6455H1.3545ZM39.9753 36.5802H18.291C18.1114 36.5802 17.9391 36.5089 17.8121 36.3819C17.6851 36.2549 17.6137 36.0826 17.6137 35.903V27.8355H40.6455L40.6525 35.903C40.6525 36.0826 40.5811 36.2549 40.4541 36.3819C40.3271 36.5089 40.1549 36.5802 39.9753 36.5802ZM17.6137 26.4792V25.1248H40.6455L40.6525 26.4792H17.6137ZM17.6137 23.7703V22.3545C17.6137 21.98 17.9165 21.6772 18.291 21.6772H39.9683C40.1477 21.6777 40.3197 21.7492 40.4466 21.8761C40.5735 22.003 40.645 22.175 40.6455 22.3545L40.6525 23.7703H17.6137Z" fill="#052C2C"/>
<path d="M29.3629 33.8752H19.2234C19.0448 33.8752 18.8734 33.9462 18.747 34.0725C18.6207 34.1989 18.5497 34.3702 18.5497 34.5489C18.5497 34.7276 18.6207 34.899 18.747 35.0253C18.8734 35.1517 19.0448 35.2227 19.2234 35.2227H29.3629C29.5416 35.2227 29.713 35.1517 29.8394 35.0253C29.9657 34.899 30.0367 34.7276 30.0367 34.5489C30.0367 34.3702 29.9657 34.1989 29.8394 34.0725C29.713 33.9462 29.5416 33.8752 29.3629 33.8752ZM19.2864 32.5119C19.3092 32.5137 19.332 32.5137 19.3547 32.5119H20.9997C21.0909 32.5166 21.1822 32.5026 21.2679 32.4709C21.3536 32.4392 21.4319 32.3904 21.4981 32.3274C21.5644 32.2645 21.6171 32.1888 21.6532 32.1048C21.6892 32.0208 21.7078 31.9304 21.7078 31.839C21.7078 31.7477 21.6892 31.6573 21.6532 31.5733C21.6171 31.4893 21.5644 31.4136 21.4981 31.3507C21.4319 31.2877 21.3536 31.2389 21.2679 31.2072C21.1822 31.1755 21.0909 31.1615 20.9997 31.1662H19.3547C19.1768 31.1581 19.003 31.2208 18.8712 31.3405C18.7394 31.4603 18.6604 31.6273 18.6514 31.8051C18.6424 31.9829 18.7041 32.1571 18.8231 32.2895C18.9421 32.422 19.1087 32.5019 19.2864 32.5119ZM23.4024 32.5119C23.4252 32.5137 23.448 32.5137 23.4707 32.5119H25.1174C25.29 32.5031 25.4525 32.4284 25.5715 32.3032C25.6905 32.1779 25.7569 32.0118 25.7569 31.839C25.7569 31.6663 25.6905 31.5002 25.5715 31.3749C25.4525 31.2497 25.29 31.175 25.1174 31.1662H23.4707C23.2928 31.1581 23.119 31.2208 22.9872 31.3405C22.8554 31.4603 22.7764 31.6273 22.7674 31.8051C22.7584 31.9829 22.8201 32.1571 22.9391 32.2895C23.0581 32.422 23.2247 32.5019 23.4024 32.5119ZM27.5202 32.5119C27.5429 32.5137 27.5657 32.5137 27.5884 32.5119H29.2334C29.3247 32.5166 29.4159 32.5026 29.5016 32.4709C29.5873 32.4392 29.6657 32.3904 29.7319 32.3274C29.7981 32.2645 29.8509 32.1888 29.8869 32.1048C29.9229 32.0208 29.9415 31.9304 29.9415 31.839C29.9415 31.7477 29.9229 31.6573 29.8869 31.5733C29.8509 31.4893 29.7981 31.4136 29.7319 31.3507C29.6657 31.2877 29.5873 31.2389 29.5016 31.2072C29.4159 31.1755 29.3247 31.1615 29.2334 31.1662H27.5884C27.4106 31.1581 27.2368 31.2208 27.105 31.3405C26.9732 31.4603 26.8942 31.6273 26.8851 31.8051C26.8761 31.9829 26.9379 32.1571 27.0569 32.2895C27.1758 32.422 27.3424 32.5019 27.5202 32.5119ZM19.1394 18.4489C19.1622 18.4507 19.185 18.4507 19.2077 18.4489H30.9222C31.0134 18.4536 31.1047 18.4396 31.1904 18.4079C31.2761 18.3762 31.3544 18.3274 31.4206 18.2644C31.4869 18.2015 31.5396 18.1258 31.5756 18.0418C31.6117 17.9578 31.6303 17.8674 31.6303 17.776C31.6303 17.6847 31.6117 17.5943 31.5756 17.5103C31.5396 17.4263 31.4869 17.3506 31.4206 17.2877C31.3544 17.2247 31.2761 17.1759 31.1904 17.1442C31.1047 17.1125 31.0134 17.0985 30.9222 17.1032H19.2077C19.0298 17.0951 18.856 17.1578 18.7242 17.2775C18.5924 17.3973 18.5134 17.5643 18.5044 17.7421C18.4954 17.9199 18.5571 18.0941 18.6761 18.2265C18.7951 18.359 18.9617 18.4389 19.1394 18.4489ZM19.2077 12.0299H30.9222C31.1009 12.0299 31.2723 11.9589 31.3986 11.8326C31.525 11.7062 31.5959 11.5349 31.5959 11.3562C31.5959 11.1775 31.525 11.0061 31.3986 10.8798C31.2723 10.7534 31.1009 10.6824 30.9222 10.6824H19.2077C19.029 10.6824 18.8576 10.7534 18.7313 10.8798C18.6049 11.0061 18.5339 11.1775 18.5339 11.3562C18.5339 11.5349 18.6049 11.7062 18.7313 11.8326C18.8576 11.9589 19.029 12.0299 19.2077 12.0299ZM19.2077 15.2394H30.9222C31.0107 15.2394 31.0983 15.222 31.18 15.1881C31.2618 15.1543 31.336 15.1046 31.3986 15.0421C31.4612 14.9795 31.5108 14.9052 31.5447 14.8235C31.5785 14.7418 31.5959 14.6542 31.5959 14.5657C31.5959 14.4772 31.5785 14.3896 31.5447 14.3078C31.5108 14.2261 31.4612 14.1518 31.3986 14.0893C31.336 14.0267 31.2618 13.9771 31.18 13.9432C31.0983 13.9093 31.0107 13.8919 30.9222 13.8919H19.2077C19.1192 13.8919 19.0316 13.9093 18.9499 13.9432C18.8681 13.9771 18.7938 14.0267 18.7313 14.0893C18.6687 14.1518 18.6191 14.2261 18.5852 14.3078C18.5514 14.3896 18.5339 14.4772 18.5339 14.5657C18.5339 14.6542 18.5514 14.7418 18.5852 14.8235C18.6191 14.9052 18.6687 14.9795 18.7313 15.0421C18.7938 15.1046 18.8681 15.1543 18.9499 15.1881C19.0316 15.222 19.1192 15.2394 19.2077 15.2394ZM14.6629 19.6494H3.11295C3.02447 19.6494 2.93686 19.6669 2.85511 19.7007C2.77337 19.7346 2.6991 19.7842 2.63653 19.8468C2.57397 19.9093 2.52434 19.9836 2.49048 20.0653C2.45662 20.1471 2.4392 20.2347 2.4392 20.3232C2.4392 20.4117 2.45662 20.4993 2.49048 20.581C2.52434 20.6628 2.57397 20.737 2.63653 20.7996C2.6991 20.8622 2.77337 20.9118 2.85511 20.9456C2.93686 20.9795 3.02447 20.9969 3.11295 20.9969H14.6647C14.7532 20.9968 14.8408 20.9793 14.9225 20.9453C15.0042 20.9113 15.0784 20.8616 15.1409 20.799C15.2033 20.7363 15.2529 20.662 15.2866 20.5802C15.3204 20.4984 15.3377 20.4108 15.3376 20.3223C15.3375 20.2338 15.3199 20.1462 15.2859 20.0645C15.252 19.9828 15.2023 19.9086 15.1396 19.8461C15.077 19.7837 15.0026 19.7341 14.9208 19.7004C14.8391 19.6666 14.7514 19.6493 14.6629 19.6494ZM14.6629 22.3584H3.11295C2.93426 22.3584 2.76288 22.4294 2.63653 22.5558C2.51018 22.6821 2.4392 22.8535 2.4392 23.0322C2.4392 23.2109 2.51018 23.3822 2.63653 23.5086C2.76288 23.6349 2.93426 23.7059 3.11295 23.7059H14.6629C14.8416 23.7059 15.013 23.6349 15.1394 23.5086C15.2657 23.3822 15.3367 23.2109 15.3367 23.0322C15.3367 22.8535 15.2657 22.6821 15.1394 22.5558C15.013 22.4294 14.8416 22.3584 14.6629 22.3584ZM11.8419 26.4254C12.0206 26.4254 12.192 26.3544 12.3184 26.2281C12.4447 26.1017 12.5157 25.9304 12.5157 25.7517C12.5157 25.573 12.4447 25.4016 12.3184 25.2753C12.192 25.1489 12.0206 25.0779 11.8419 25.0779H3.10945C2.93076 25.0779 2.75938 25.1489 2.63303 25.2753C2.50668 25.4016 2.4357 25.573 2.4357 25.7517C2.4357 25.9304 2.50668 26.1017 2.63303 26.2281C2.75938 26.3544 2.93076 26.4254 3.10945 26.4254H11.8419ZM9.8347 17.4077C11.8056 17.4077 13.6958 16.6247 15.0895 15.2311C16.4831 13.8374 17.2661 11.9472 17.2661 9.9763C17.2661 8.00537 16.4831 6.11517 15.0895 4.72152C13.6958 3.32787 11.8056 2.54492 9.8347 2.54492C7.86377 2.54492 5.97357 3.32787 4.57992 4.72152C3.18627 6.11517 2.40332 8.00537 2.40332 9.9763C2.40332 11.9472 3.18627 13.8374 4.57992 15.2311C5.97357 16.6247 7.86377 17.4077 9.8347 17.4077ZM9.8347 3.89417C11.4475 3.89417 12.9943 4.53487 14.1348 5.67533C15.2752 6.81578 15.9159 8.36257 15.9159 9.97542C15.9159 11.5883 15.2752 13.1351 14.1348 14.2755C12.9943 15.416 11.4475 16.0567 9.8347 16.0567C8.22185 16.0567 6.67506 15.416 5.5346 14.2755C4.39415 13.1351 3.75345 11.5883 3.75345 9.97542C3.75345 8.36257 4.39415 6.81578 5.5346 5.67533C6.67506 4.53487 8.22185 3.89417 9.8347 3.89417Z" fill="#052C2C"/>
<path d="M8.49984 11.5911C8.49822 11.4115 8.42531 11.2399 8.29715 11.114C8.16899 10.9882 7.99609 10.9184 7.81647 10.92C7.63685 10.9216 7.46524 10.9945 7.33938 11.1227C7.21351 11.2508 7.14372 11.4238 7.14534 11.6034C7.18092 12.1462 7.39889 12.6612 7.76388 13.0646C8.12888 13.468 8.61948 13.7363 9.15609 13.8259V14.5066C9.16493 14.6805 9.24023 14.8444 9.36644 14.9643C9.49264 15.0843 9.6601 15.1512 9.83422 15.1512C10.0083 15.1512 10.1758 15.0843 10.302 14.9643C10.4282 14.8444 10.5035 14.6805 10.5123 14.5066V13.8259C11.0508 13.7355 11.5427 13.4654 11.9078 13.0595C12.273 12.6537 12.4899 12.1361 12.5231 11.5911C12.488 11.0474 12.2684 10.532 11.9005 10.13C11.5326 9.72813 11.0386 9.46384 10.5001 9.38087V7.56612C10.6762 7.61897 10.8328 7.7225 10.9504 7.86379C11.0681 8.00507 11.1415 8.17787 11.1616 8.36062C11.1754 8.53178 11.2535 8.69137 11.3802 8.80725C11.5069 8.92313 11.6728 8.98669 11.8445 8.98514C12.0163 8.98358 12.181 8.91703 12.3056 8.79888C12.4302 8.68073 12.5054 8.51975 12.5161 8.34837C12.4818 7.8062 12.2651 7.29157 11.9014 6.88809C11.5376 6.4846 11.0481 6.21598 10.5123 6.12587V5.44337C10.5035 5.26948 10.4282 5.10562 10.302 4.98567C10.1758 4.86572 10.0083 4.79883 9.83422 4.79883C9.6601 4.79883 9.49264 4.86572 9.36644 4.98567C9.24023 5.10562 9.16493 5.26948 9.15609 5.44337V6.12587C8.61728 6.21535 8.12485 6.48522 7.75952 6.89125C7.39419 7.29728 7.17763 7.81538 7.14534 8.36062C7.21534 9.47887 8.05359 10.3976 9.16134 10.5709V12.3856C8.98526 12.3328 8.82863 12.2292 8.71099 12.088C8.59335 11.9467 8.51992 11.7739 8.49984 11.5911ZM10.5001 10.8001C10.6758 10.8525 10.8322 10.9555 10.9498 11.0961C11.0674 11.2368 11.1411 11.4089 11.1616 11.5911C11.1394 11.7727 11.0651 11.944 10.9477 12.0844C10.8304 12.2247 10.6749 12.3281 10.5001 12.3821V10.8001ZM8.49984 8.35362C8.52143 8.17219 8.59553 8.00102 8.71304 7.86113C8.83056 7.72123 8.98637 7.6187 9.16134 7.56612V9.14112C8.98725 9.08698 8.83237 8.98398 8.7151 8.84438C8.59784 8.70478 8.52312 8.53444 8.49984 8.35362ZM38.6401 31.1579H34.5223C34.3413 31.1579 34.1677 31.2298 34.0397 31.3578C33.9118 31.4858 33.8398 31.6594 33.8398 31.8404V34.5494C33.8398 34.9256 34.1461 35.2319 34.5223 35.2319H38.6383C38.728 35.2321 38.8168 35.2147 38.8997 35.1806C38.9826 35.1465 39.0579 35.0964 39.1215 35.0332C39.185 34.97 39.2355 34.8949 39.27 34.8122C39.3045 34.7294 39.3224 34.6407 39.3226 34.5511V31.8404C39.3226 31.6594 39.2507 31.4858 39.1227 31.3578C38.9947 31.2298 38.8211 31.1579 38.6401 31.1579ZM37.9558 33.8686H35.2048V32.5211H37.9558V33.8686ZM13.6518 27.9204L11.8651 30.0309C10.8727 29.1365 9.58551 28.6393 8.24959 28.6344C5.23259 28.6344 2.77734 31.0879 2.77734 34.1066C2.77734 37.1254 5.23259 39.5806 8.24959 39.5806C9.7008 39.5792 11.0921 39.002 12.1181 37.9757C13.1441 36.9494 13.7209 35.5578 13.7218 34.1066C13.7218 32.9691 13.3718 31.9139 12.7768 31.0389L14.6791 28.7901C14.7362 28.7227 14.7795 28.6446 14.8064 28.5605C14.8334 28.4763 14.8435 28.3876 14.8362 28.2996C14.8288 28.2115 14.8043 28.1257 14.7638 28.0471C14.7233 27.9686 14.6678 27.8987 14.6003 27.8416C14.5329 27.7845 14.4549 27.7412 14.3707 27.7143C14.2865 27.6873 14.1979 27.6772 14.1098 27.6846C14.0217 27.6919 13.9359 27.7165 13.8574 27.7569C13.7788 27.7974 13.709 27.8529 13.6518 27.9204ZM8.24959 38.2349C7.15577 38.2335 6.10716 37.7982 5.33387 37.0246C4.56058 36.251 4.12577 35.2022 4.12484 34.1084C4.12623 33.0148 4.56125 31.9665 5.33449 31.1933C6.10773 30.42 7.15607 29.985 8.24959 29.9836C9.31009 29.9836 10.2673 30.3966 10.9988 31.0564L8.10084 34.4829L6.93184 33.3139C6.80312 33.199 6.63535 33.1378 6.46293 33.1427C6.29051 33.1476 6.1265 33.2183 6.00453 33.3403C5.88256 33.4623 5.81187 33.6263 5.80695 33.7987C5.80204 33.9711 5.86327 34.1389 5.97809 34.2676L7.66509 35.9546C7.79284 36.0806 7.96259 36.1506 8.14109 36.1506H8.16909C8.26213 36.1462 8.35329 36.1229 8.43696 36.0819C8.52063 36.041 8.59503 35.9834 8.65559 35.9126L11.8493 32.1379C12.1731 32.7259 12.3743 33.3926 12.3743 34.1101C12.3734 35.2038 11.9385 36.2524 11.1652 37.0257C10.3919 37.7991 9.34326 38.2339 8.24959 38.2349Z" fill="#052C2C"/>
</g>
<defs>
<clipPath id="clip0_1_1130">
<rect width="42" height="42" fill="white"/>
</clipPath>
</defs>
</svg>
