<svg width="42" height="42" viewBox="0 0 42 42" fill="none" xmlns="http://www.w3.org/2000/svg">
<g clip-path="url(#clip0_1_1140)">
<path d="M36.9338 31.1394H34.4755V27.8992C34.4755 27.4466 34.1085 27.0797 33.656 27.0797C33.2035 27.0797 32.8366 27.4466 32.8366 27.8992V31.9589C32.8366 32.4115 33.2035 32.7783 33.656 32.7783H36.9338C37.3863 32.7783 37.7533 32.4115 37.7533 31.9589C37.7533 31.5063 37.3863 31.1394 36.9338 31.1394ZM5.84289 13.0608H17.2671C17.7196 13.0608 18.0865 12.6939 18.0865 12.2413C18.0865 11.7887 17.7196 11.4219 17.2671 11.4219H5.84289C5.39039 11.4219 5.02344 11.7887 5.02344 12.2413C5.02344 12.6939 5.3903 13.0608 5.84289 13.0608ZM20.1164 26.1652H5.84289C5.39039 26.1652 5.02344 26.5321 5.02344 26.9847C5.02344 27.4373 5.39039 27.8041 5.84289 27.8041H20.1164C20.5689 27.8041 20.9359 27.4373 20.9359 26.9847C20.9359 26.5321 20.5689 26.1652 20.1164 26.1652ZM20.1164 31.0797H5.84289C5.39039 31.0797 5.02344 31.4466 5.02344 31.8992C5.02344 32.3517 5.39039 32.7186 5.84289 32.7186H20.1164C20.5689 32.7186 20.9359 32.3517 20.9359 31.8992C20.9359 31.4466 20.5689 31.0797 20.1164 31.0797ZM24.724 21.2508H5.84289C5.39039 21.2508 5.02344 21.6177 5.02344 22.0703C5.02344 22.5229 5.39039 22.8897 5.84289 22.8897H24.724C25.1765 22.8897 25.5435 22.5229 25.5435 22.0703C25.5435 21.6177 25.1765 21.2508 24.724 21.2508Z" fill="#052C2C"/>
<path d="M39.5082 26.0686C37.0653 23.6258 33.4626 23.0327 30.456 24.2887V9.80388C30.456 9.20453 30.2226 8.64108 29.7988 8.21735L22.2394 0.657034C22.0635 0.481898 21.8597 0.337232 21.6363 0.228954C21.6288 0.224857 21.6209 0.221333 21.6133 0.2174L21.6103 0.216007C21.5861 0.203763 21.5612 0.192768 21.5359 0.183065C21.2567 0.0629559 20.956 0.00068069 20.6521 0L2.43984 0C1.13225 0 0.0683594 1.06381 0.0683594 2.37148V39.6285C0.0683594 40.9362 1.13217 42 2.43976 42H28.0844C29.3365 42 30.3765 41.0211 30.4519 39.7713C30.453 39.7549 30.4535 39.7384 30.4535 39.7219V39.5521C31.468 39.9757 32.5565 40.1937 33.6559 40.1934C35.7753 40.1934 37.8947 39.3866 39.5082 37.7732C41.0714 36.2099 41.9323 34.1316 41.9323 31.9209C41.9323 29.7102 41.0714 27.6318 39.5082 26.0686ZM27.6583 8.39443H22.2435C22.1953 8.39449 22.1491 8.37546 22.115 8.34151C22.0809 8.30756 22.0616 8.26146 22.0614 8.21333V2.79702L27.6583 8.39443ZM28.8146 39.6927C28.7816 40.0691 28.4646 40.3611 28.0845 40.3611H2.43984C2.03585 40.3611 1.70734 40.0325 1.70734 39.6285V2.37148C1.70734 1.9675 2.03594 1.6389 2.43984 1.6389H20.4226V8.21333C20.4226 9.21691 21.2395 10.0333 22.2435 10.0333H28.8171V25.2061C28.4568 25.466 28.1178 25.7544 27.8037 26.0686C26.2405 27.6319 25.3796 29.7102 25.3796 31.9209C25.3796 34.1317 26.2405 36.21 27.8037 37.7733C28.1171 38.0867 28.4552 38.3745 28.8147 38.634V39.6927H28.8146ZM38.3493 36.6143C35.7613 39.2023 31.5504 39.2023 28.9624 36.6143C27.7088 35.3607 27.0183 33.6938 27.0183 31.9209C27.0183 30.1481 27.7088 28.4812 28.9624 27.2276C30.2564 25.9336 31.9561 25.2865 33.6558 25.2865C35.3555 25.2865 37.0552 25.9336 38.3492 27.2276C39.6029 28.4812 40.2934 30.1481 40.2934 31.9209C40.2934 33.6938 39.603 35.3607 38.3493 36.6143Z" fill="#052C2C"/>
<path d="M5.76085 18.0276H20.5448C20.9973 18.0276 21.3642 17.6607 21.3642 17.2081C21.3642 16.7555 20.9973 16.3887 20.5448 16.3887H5.76085C5.30835 16.3887 4.94141 16.7555 4.94141 17.2081C4.94141 17.6607 5.30827 18.0276 5.76085 18.0276Z" fill="#052C2C"/>
<path d="M24.6226 18.0284C25.0754 18.0284 25.4425 17.6613 25.4425 17.2085C25.4425 16.7557 25.0754 16.3887 24.6226 16.3887C24.1698 16.3887 23.8027 16.7557 23.8027 17.2085C23.8027 17.6613 24.1698 18.0284 24.6226 18.0284Z" fill="#052C2C"/>
</g>
<defs>
<clipPath id="clip0_1_1140">
<rect width="42" height="42" fill="white"/>
</clipPath>
</defs>
</svg>
