<svg width="43" height="43" viewBox="0 0 43 43" fill="none" xmlns="http://www.w3.org/2000/svg">
<g clip-path="url(#clip0_1_1151)">
<path d="M10.2058 11.6387H22.565C23.3794 11.6387 23.3794 10.3789 22.565 10.3789H10.2058C9.39137 10.3789 9.39137 11.6387 10.2058 11.6387ZM10.2058 16.2599H19.7095C20.5239 16.2599 20.5239 15.0001 19.7095 15.0001H10.2058C9.39137 15.0001 9.39137 16.2599 10.2058 16.2599ZM10.2058 20.8812H18.3658C19.1802 20.8812 19.1802 19.6214 18.3658 19.6214H10.2058C9.39137 19.6214 9.39137 20.8812 10.2058 20.8812ZM21.8111 36.3127H21.3937V30.1567C21.3937 29.9897 21.3274 29.8295 21.2093 29.7113C21.0911 29.5932 20.9309 29.5268 20.7639 29.5268H18.2361V27.3065C18.2361 27.1394 18.1697 26.9792 18.0516 26.8611C17.9335 26.7429 17.7733 26.6766 17.6062 26.6766H14.4562C14.2892 26.6766 14.1289 26.7429 14.0108 26.8611C13.8927 26.9792 13.8263 27.1394 13.8263 27.3065V31.1393H11.3035C11.1365 31.1393 10.9763 31.2056 10.8581 31.3237C10.74 31.4419 10.6736 31.6021 10.6736 31.7691V36.3127H10.2563C9.90838 36.3127 9.62644 36.5947 9.62644 36.9426C9.62644 37.2904 9.90838 37.5725 10.2563 37.5725H21.811C22.1589 37.5725 22.4409 37.2904 22.4409 36.9426C22.4409 36.5947 22.1589 36.3127 21.8111 36.3127ZM11.9335 36.3127V32.399H13.8238V36.3127H11.9335ZM15.0862 36.3127V27.9363H16.9764V36.3127H15.0862ZM18.2437 36.3127V30.7866H20.134V36.3127H18.2437Z" fill="#052C2C"/>
<path d="M42.9949 19.619C42.9128 16.9674 41.8329 14.4723 39.9537 12.5931C39.0521 11.6915 38.0244 10.991 36.9272 10.4906C36.8897 10.4688 36.8501 10.4511 36.8089 10.4376C35.3898 9.81181 33.8585 9.5182 32.3341 9.55751V6.0871C32.3341 5.28035 31.678 4.62401 30.8713 4.62401H29.9628V3.83758C29.9628 3.03083 29.3067 2.37449 28.5 2.37449H27.589V1.46309C27.5891 0.656338 26.9329 0 26.1263 0H1.46308C0.656414 0 0.000244141 0.656338 0.000244141 1.46309V36.913C0.000244141 37.7197 0.656414 38.3761 1.46308 38.3761H2.37406V39.2875C2.37406 40.0942 3.03023 40.7506 3.8343 40.7506L4.74545 40.7543V41.537C4.74545 42.3437 5.40162 43.0001 6.20828 43.0001H25.8841C26.0488 43.0001 26.2117 42.9329 26.3284 42.8167L32.1488 37.0238C32.2076 36.9653 32.2542 36.8957 32.2861 36.8191C32.3179 36.7425 32.3343 36.6603 32.3343 36.5774V30.3328C32.4192 30.3349 32.5041 30.3369 32.589 30.3369C34.3645 30.3369 36.1323 29.8832 37.6786 29.0168C38.3892 28.6187 37.7733 27.5199 37.0628 27.9177C33.6998 29.8023 29.4909 29.3379 26.6081 26.8297L32.7936 20.6442L41.25 22.8851C40.8681 24.0152 40.2664 25.0586 39.4795 25.9552C38.9427 26.5676 39.8899 27.3981 40.4268 26.7857C42.1644 24.8036 43.0764 22.2585 42.9949 19.619ZM35.7681 11.3753L32.0772 19.5787L25.7161 25.9399C22.5915 22.3561 22.7343 16.8954 26.1458 13.4839C28.743 10.8867 32.5278 10.1842 35.7681 11.3753ZM3.83673 39.4907C3.78287 39.4906 3.73126 39.4691 3.6932 39.431C3.65515 39.3929 3.63377 39.3412 3.63374 39.2874V3.83758C3.63377 3.78372 3.65515 3.73207 3.6932 3.69395C3.73126 3.65584 3.78287 3.63437 3.83673 3.63426H8.23063C9.04503 3.63426 9.04503 2.37449 8.23063 2.37449H3.83673C3.03015 2.37449 2.37398 3.03083 2.37398 3.83758V37.1162H1.46308C1.40921 37.1161 1.35757 37.0947 1.3195 37.0566C1.28143 37.0184 1.26003 36.9668 1.26001 36.9129V1.46309C1.26003 1.40922 1.28143 1.35755 1.3195 1.31943C1.35757 1.28131 1.40921 1.25985 1.46308 1.25977H26.1263C26.1801 1.25985 26.2318 1.28131 26.2699 1.31943C26.3079 1.35755 26.3293 1.40922 26.3293 1.46309V2.37457H11.7581C10.9437 2.37457 10.9437 3.63434 11.7581 3.63434H28.5001C28.554 3.63443 28.6056 3.65589 28.6437 3.69401C28.6817 3.73213 28.7031 3.78379 28.7032 3.83767V4.6241H6.2082C5.40162 4.6241 4.74536 5.28043 4.74536 6.08719V39.4945L3.83673 39.4907ZM6.00513 41.5369V6.0871C6.00515 6.03323 6.02654 5.98156 6.06462 5.94344C6.10269 5.90532 6.15433 5.88387 6.2082 5.88378H30.8714C30.9253 5.88387 30.9769 5.90532 31.015 5.94344C31.053 5.98156 31.0744 6.03323 31.0745 6.0871V9.66643C28.9434 9.98104 26.8919 10.9564 25.255 12.5932C21.2026 16.6456 21.2026 23.2394 25.255 27.2919C26.849 28.8858 28.8583 29.8958 31.0745 30.2235V35.8934H26.7169C25.9103 35.8934 25.2541 36.5497 25.2541 37.3565V41.7402H6.2082C6.15433 41.7401 6.10269 41.7187 6.06462 41.6806C6.02654 41.6424 6.00515 41.5908 6.00513 41.5369ZM26.5139 40.8445V37.3565C26.5139 37.3026 26.5353 37.251 26.5733 37.2128C26.6114 37.1747 26.6631 37.1533 26.7169 37.1532H30.1885L26.5139 40.8445ZM33.4834 19.5238L36.9175 11.8909C37.7071 12.3135 38.43 12.8503 39.0628 13.4839C41.2705 15.6917 42.1181 18.7837 41.5699 21.6667L33.4834 19.5238Z" fill="#052C2C"/>
</g>
<defs>
<clipPath id="clip0_1_1151">
<rect width="43" height="43" fill="white"/>
</clipPath>
</defs>
</svg>
