<svg width="20" height="20" viewBox="0 0 20 20" fill="none" xmlns="http://www.w3.org/2000/svg">
<path d="M14.375 6.5625C14.375 6.5625 14.6875 6.7775 14.6875 7.5C14.6875 8.90625 13.6919 8.99281 13.6919 8.99281C13.4625 10.14 12.9341 11.2638 11.875 11.875C11.3847 12.1578 11.2109 12.5 10 12.5C8.78906 12.5 8.61531 12.1578 8.125 11.875C7.06594 11.2638 6.5375 10.14 6.30813 8.99281C6.30813 8.99281 5.3125 8.90625 5.3125 7.5C5.3125 6.77719 5.625 6.5625 5.625 6.5625M5.625 6.5625C7.10938 6.5625 6.31531 3.75 8.125 3.75C9.06406 3.75 9.41094 4.0625 10 4.0625C10.5891 4.0625 10.9359 3.75 11.875 3.75C13.6847 3.75 12.8906 6.5625 14.375 6.5625" stroke="black" stroke-width="0.7" stroke-miterlimit="10" stroke-linecap="round" stroke-linejoin="round"/>
<path d="M12.5 11.4V12.6844C12.5 14.1563 15.0906 15.0031 16.6906 15.3906C19.3841 16.0406 19.375 17.6625 19.375 19.375M7.5 11.4V12.6844C7.5 14.1563 4.90938 15.0031 3.30938 15.3906C0.615938 16.0406 0.625 17.6625 0.625 19.375M14.4625 6.65313C14.6875 6.05625 14.6875 5.35156 14.6875 4.74625C14.6875 1.82281 12.9297 0.625 10 0.625C8.4375 0.625 7.67563 1.1525 7.1875 1.875C6.40625 2.1875 5.3125 3.17719 5.3125 5C5.3125 5.65094 5.3125 6.05625 5.5375 6.65313" stroke="black" stroke-width="0.7" stroke-miterlimit="10" stroke-linecap="round" stroke-linejoin="round"/>
<path d="M12.8339 13.5613C12.172 14.5097 11.1452 15.1525 10.0002 15.3125M10.0002 15.3125L11.5627 17.1875C12.6354 16.5182 13.5508 15.625 14.2464 14.5691M10.0002 15.3125C8.85516 15.1525 7.82828 14.5097 7.16641 13.5613M10.0002 15.3125L8.43766 17.1875C7.36493 16.5182 6.44947 15.625 5.75391 14.5691" stroke="black" stroke-width="0.7" stroke-miterlimit="10" stroke-linecap="round" stroke-linejoin="round"/>
<path d="M11.0849 16.6138L10.6252 17.8125L10.9377 19.375M8.91553 16.6138L9.37522 17.8125L9.06272 19.375M9.37522 17.8125H10.6252H9.37522Z" fill="black"/>
<path d="M11.0849 16.6138L10.6252 17.8125M10.6252 17.8125L10.9377 19.375M10.6252 17.8125H9.37522M8.91553 16.6138L9.37522 17.8125M9.37522 17.8125L9.06272 19.375" stroke="black" stroke-width="0.7" stroke-miterlimit="10" stroke-linecap="round" stroke-linejoin="round"/>
</svg>
