<svg width="24" height="24" viewBox="0 0 24 24" fill="none" xmlns="http://www.w3.org/2000/svg">
<g clip-path="url(#clip0_322_1330)">
<path d="M23.6 23.2H21.6V2.4H22.4C22.64 2.4 22.8 2.24002 22.8 2.00002V0.399984C22.8 0.159984 22.64 0 22.4 0H1.59998C1.35998 0 1.2 0.159984 1.2 0.399984V1.99997C1.2 2.23997 1.35998 2.39995 1.59998 2.39995H2.4V23.1999H0.399984C0.159984 23.1999 0 23.3599 0 23.5999C0 23.8399 0.159984 24 0.399984 24H23.6C23.84 24 24 23.84 24 23.6C24 23.36 23.84 23.2 23.6 23.2ZM2.00002 0.800016H22V1.60003H2.00002V0.800016ZM9.99998 23.2V16.8H11.6V23.2H9.99998ZM12.4 23.2V16.8H14V23.2H12.4ZM14.8 23.2V16.4C14.8 16.16 14.64 16 14.4 16H9.6C9.36 16 9.20002 16.16 9.20002 16.4V23.2H3.20002V2.4H20.8V23.2H14.8Z" fill="#484A54"/>
<path d="M10.8 4H4.39998C4.15998 4 4 4.15998 4 4.39998V7.6C4 7.84 4.15998 7.99998 4.39998 7.99998H10.8C11.04 7.99998 11.2 7.84 11.2 7.6V4.40003C11.2 4.16003 11.04 4 10.8 4ZM4.79997 4.80002H7.19997V7.20002H4.79997V4.80002ZM10.4 7.20002H7.99998V4.80002H10.4V7.20002ZM7.99998 16H4.39998C4.15998 16 4 16.16 4 16.4V19.6C4 19.84 4.15998 20 4.39998 20H7.99998C8.23998 20 8.39997 19.84 8.39997 19.6V16.4C8.39997 16.16 8.23998 16 7.99998 16ZM7.59995 19.2H4.79997V16.8H7.59995V19.2ZM19.6 16H16C15.76 16 15.6 16.16 15.6 16.4V19.6C15.6 19.84 15.76 20 16 20H19.6C19.84 20 19.9999 19.84 19.9999 19.6V16.4C20 16.16 19.84 16 19.6 16ZM19.2 19.2H16.4V16.8H19.2V19.2ZM19.6 4H13.2C12.96 4 12.8 4.15998 12.8 4.39998V7.6C12.8 7.84 12.96 7.99998 13.2 7.99998H19.6C19.84 7.99998 20 7.84 20 7.6V4.40003C20 4.16003 19.84 4 19.6 4ZM13.6 4.80002H16V7.20002H13.6V4.80002ZM19.2 7.20002H16.8V4.80002H19.2V7.20002ZM10.8 9.60002H4.39998C4.15998 9.60002 4 9.76 4 10V13.2C4 13.44 4.15998 13.6 4.39998 13.6H10.8C11.04 13.6 11.2 13.44 11.2 13.2V10C11.2 9.76 11.04 9.60002 10.8 9.60002ZM4.79997 10.4H7.19997V12.8H4.79997V10.4ZM10.4 12.8H7.99998V10.4H10.4V12.8ZM19.6 9.60002H13.2C12.96 9.60002 12.8 9.76 12.8 10V13.2C12.8 13.44 12.96 13.6 13.2 13.6H19.6C19.84 13.6 20 13.44 20 13.2V10C20 9.76 19.84 9.60002 19.6 9.60002ZM13.6 10.4H16V12.8H13.6V10.4ZM19.2 12.8H16.8V10.4H19.2V12.8Z" fill="#484A54"/>
</g>
<defs>
<clipPath id="clip0_322_1330">
<rect width="24" height="24" fill="white"/>
</clipPath>
</defs>
</svg>
