<svg width="18" height="20" viewBox="0 0 18 20" fill="none" xmlns="http://www.w3.org/2000/svg">
<path d="M8.30176 10.3132C8.43152 10.5056 8.69992 10.6275 8.99383 10.6275C9.29816 10.6275 9.57406 10.4969 9.69812 10.2942" stroke="black" stroke-width="0.7" stroke-miterlimit="2.6131" stroke-linecap="round" stroke-linejoin="round"/>
<path d="M11.8172 9.37543L11.8174 9.37524M6.18262 9.37543L6.18285 9.37524" stroke="black" stroke-width="1.40624" stroke-miterlimit="2.6131" stroke-linecap="round" stroke-linejoin="round"/>
<path d="M5.36366 13.3984C4.29867 14.3816 3.62891 15.7874 3.62891 17.3422V19.6094H14.3711V17.3422C14.3711 15.7874 13.7013 14.3816 12.6363 13.3984M5.87499 19.6094V16.9439M12.125 16.9439V19.4141M5.67968 17.8515H3.82422M14.1757 17.8515H12.3202" stroke="black" stroke-width="0.7" stroke-miterlimit="2.6131" stroke-linecap="round" stroke-linejoin="round"/>
<path d="M2.65234 7.51953V8.6914C2.65234 11.8316 5.49429 14.3773 8.99998 14.3773C12.5057 14.3773 15.3476 11.8316 15.3476 8.6914L15.3476 7.51953" stroke="black" stroke-width="0.7" stroke-miterlimit="2.6131" stroke-linecap="round" stroke-linejoin="round"/>
<path d="M10.5429 14.42V14.4591C10.5429 15.3077 9.8486 16.002 8.99997 16.002H8.99993C8.15134 16.002 7.45696 15.3077 7.45696 14.4591V14.42M15.0778 10.3571H16.0772C16.9147 10.3571 17.5936 9.67821 17.5936 8.84067C17.5936 8.00313 16.9147 7.32419 16.0772 7.32419H15.0671C13.1357 7.32419 11.5554 6.44529 11.5554 5.37107C11.5554 6.44529 9.97516 7.32419 8.04376 7.32419H1.92273C1.08519 7.32419 0.40625 8.00313 0.40625 8.84067C0.40625 9.67821 1.08519 10.3571 1.92273 10.3571H2.92218M16.4678 7.23435V6.62302C16.4678 3.19522 13.6631 0.390625 10.2354 0.390625H7.7645C6.21638 0.390625 4.79545 0.962888 3.70249 1.90617M1.788 4.86033C1.61804 5.43246 1.53185 6.02619 1.5321 6.62302V7.23435M8.02341 17.767H9.97653" stroke="black" stroke-width="0.7" stroke-miterlimit="22.9256" stroke-linecap="round" stroke-linejoin="round"/>
<path d="M2.52637 3.25684H2.5267" stroke="black" stroke-width="0.7" stroke-miterlimit="22.9256" stroke-linecap="round" stroke-linejoin="round"/>
</svg>
