<svg width="20" height="20" viewBox="0 0 20 20" fill="none" xmlns="http://www.w3.org/2000/svg">
<path d="M13.0078 3.51562C13.2667 3.51562 13.4766 3.30576 13.4766 3.04688C13.4766 2.78799 13.2667 2.57812 13.0078 2.57812C12.7489 2.57812 12.5391 2.78799 12.5391 3.04688C12.5391 3.30576 12.7489 3.51562 13.0078 3.51562Z" fill="black"/>
<path d="M19.6857 2.86595C19.5989 2.77881 19.4956 2.70974 19.382 2.66272C19.2683 2.6157 19.1465 2.59167 19.0235 2.592H19.0215L15.7076 2.59884L15.0041 1.69728C14.1801 0.641377 12.9403 0.036377 11.6013 0.036377L11.5051 0.0365723C11.0531 0.0372392 10.6037 0.106114 10.1723 0.240869C10.1515 0.240244 10.1306 0.239385 10.1097 0.239385C9.5813 0.239385 9.0845 0.445166 8.71087 0.818799L4.2179 5.31177C3.49036 6.03935 3.34501 7.16782 3.86454 8.05599C3.94366 8.19097 4.03654 8.31739 4.14169 8.43325C3.80399 8.82927 3.47829 9.23634 3.16731 9.6556C1.96141 11.2813 0.917154 13.134 0.0635605 15.162C0.0435575 15.2095 0.0356122 15.2612 0.0404323 15.3125C0.0452524 15.3638 0.0626882 15.4131 0.0911867 15.4561C0.119685 15.499 0.158362 15.5342 0.203771 15.5586C0.249181 15.583 0.299914 15.5957 0.351451 15.5958C0.473404 15.5958 0.589303 15.5239 0.639576 15.4044C1.47379 13.4225 2.49313 11.6136 3.66926 10.028C3.97309 9.61841 4.29129 9.22075 4.62122 8.834C4.78341 8.93522 4.95777 9.0155 5.14012 9.07294C5.46073 9.1738 5.79485 9.22512 6.13094 9.22513C7.14665 9.22513 8.12833 8.75653 8.75649 7.9211C9.55325 6.86146 10.1455 5.75587 10.5168 4.63493C10.5428 4.55626 10.5366 4.47045 10.4994 4.39639C10.4622 4.32233 10.3971 4.26608 10.3184 4.24001C10.2397 4.21396 10.1539 4.22023 10.0799 4.25743C10.0058 4.29464 9.94958 4.35974 9.92352 4.43841C9.5736 5.49481 9.01286 6.54017 8.25692 7.54552C7.58333 8.44146 6.40618 8.81571 5.32751 8.47669C4.93874 8.35484 4.60942 8.09231 4.40399 7.74048C4.0279 7.09747 4.13313 6.28048 4.65989 5.75376L9.15286 1.26079C9.4084 1.00517 9.74829 0.864424 10.1097 0.864424C10.4712 0.864424 10.8111 1.00517 11.0666 1.26079C11.0957 1.28981 11.1301 1.31283 11.168 1.32854C11.2059 1.34424 11.2466 1.35233 11.2876 1.35233C11.3287 1.35233 11.3693 1.34424 11.4072 1.32854C11.4451 1.31283 11.4796 1.28981 11.5086 1.26079C11.5376 1.23177 11.5606 1.19732 11.5763 1.15941C11.5921 1.12149 11.6001 1.08085 11.6001 1.03981C11.6001 0.998775 11.5921 0.958138 11.5763 0.920222C11.5606 0.882307 11.5376 0.847857 11.5086 0.818838C11.454 0.764504 11.3964 0.713352 11.3359 0.665635C11.3927 0.663055 11.4495 0.661713 11.5063 0.661611L11.6013 0.661416C12.7464 0.661416 13.8068 1.17884 14.5113 2.08177L15.309 3.10392C15.3382 3.14137 15.3756 3.17168 15.4183 3.19252C15.461 3.21336 15.5079 3.22419 15.5554 3.22419H15.556L17.0455 3.22106V3.5588C17.0455 3.90235 17.2658 4.20204 17.5937 4.3045L19.3359 4.84888V5.21732C19.3359 5.6831 19.0018 6.07274 18.5415 6.14388L13.4679 6.92755C13.4403 6.93185 13.4139 6.94071 13.3887 6.95196C12.6811 6.93962 12.0607 6.65978 11.4409 6.07255C11.3806 6.01592 11.3004 5.98547 11.2178 5.98786C11.1351 5.99025 11.0568 6.02529 11 6.08531C10.9431 6.14532 10.9123 6.22542 10.9144 6.30807C10.9165 6.39072 10.9512 6.46917 11.011 6.52626C11.5935 7.07814 12.2046 7.40786 12.8653 7.52681C12.6028 7.87185 12.3514 8.26564 12.1086 8.71228L12.1226 8.39521C12.1271 8.29474 12.1021 8.19515 12.0508 8.10868C11.9994 8.0222 11.924 7.95261 11.8336 7.90844C11.7432 7.86428 11.642 7.84746 11.5422 7.86007C11.4424 7.87267 11.3485 7.91414 11.272 7.97939L10.517 8.62275C9.13809 9.79806 8.04169 11.3037 7.34649 12.9769C6.6513 14.6501 6.35794 16.4894 6.49805 18.2959L6.51618 18.5294C6.54381 18.8833 6.52272 19.2392 6.45348 19.5873C6.43727 19.6686 6.45401 19.753 6.50002 19.8219C6.54602 19.8908 6.61752 19.9387 6.69879 19.9549C6.73904 19.9629 6.78048 19.963 6.82074 19.955C6.861 19.947 6.89929 19.9312 6.93343 19.9084C6.96757 19.8856 6.99688 19.8563 7.0197 19.8222C7.04252 19.7881 7.05839 19.7498 7.06641 19.7096C7.14685 19.3053 7.17138 18.892 7.1393 18.4811L7.12118 18.2476C6.98864 16.539 7.2661 14.7993 7.92368 13.2167C8.58122 11.6342 9.61817 10.2101 10.9225 9.09845L11.4872 8.6172L11.4111 10.3288C11.4099 10.3553 11.4107 10.3814 11.4125 10.4073C11.4123 10.4085 11.4119 10.4097 11.4116 10.411C11.3698 10.6335 11.3037 10.8204 11.2126 10.9749L10.8236 11.3639C10.6796 11.4461 10.51 11.4993 10.3127 11.5248C10.272 11.5301 10.2327 11.5433 10.1971 11.5637C10.1616 11.5842 10.1303 11.6114 10.1053 11.6439C10.0547 11.7096 10.0322 11.7926 10.0429 11.8748C10.0535 11.957 10.0963 12.0316 10.162 12.0822C10.2276 12.1328 10.3107 12.1553 10.3929 12.1447C11.1188 12.0508 11.6281 11.6618 11.8878 11.0106C11.9395 11.0272 11.9936 11.0386 12.0499 11.0423C12.4091 11.0659 12.9867 11.1045 13.5625 11.1431C14.4857 11.205 15.2425 11.9159 15.3622 12.8333L15.4549 13.5435C15.4755 13.7028 15.5516 13.8498 15.6698 13.9587C15.7879 14.0676 15.9406 14.1314 16.1011 14.1391L16.8864 14.1771C17.0965 14.1872 17.2868 14.2914 17.4086 14.4629C17.5305 14.6344 17.5661 14.8484 17.5065 15.0502L17.1532 16.2463C17.0876 16.4698 16.9571 16.6687 16.7783 16.8178C16.5994 16.9669 16.3802 17.0595 16.1486 17.0837L13.6629 17.3489C13.489 17.3672 13.3224 17.4285 13.178 17.5271C13.0337 17.6258 12.9161 17.7588 12.8358 17.9141C12.7553 18.0687 12.7145 18.2409 12.717 18.4152C12.7196 18.5895 12.7654 18.7605 12.8503 18.9127C13.0062 19.1921 13.148 19.4791 13.2751 19.7727C13.2994 19.8286 13.3394 19.8763 13.3904 19.9097C13.4414 19.9432 13.501 19.961 13.562 19.961C13.6138 19.961 13.6648 19.9481 13.7104 19.9235C13.756 19.8989 13.7947 19.8633 13.8232 19.82C13.8516 19.7766 13.8688 19.7269 13.8732 19.6753C13.8777 19.6237 13.8692 19.5718 13.8486 19.5242C13.7133 19.2117 13.5623 18.9061 13.3963 18.6086C13.3251 18.4806 13.323 18.3323 13.3907 18.2018C13.4588 18.0704 13.5822 17.986 13.7292 17.9704L16.215 17.7052C16.9418 17.6277 17.5454 17.1245 17.7525 16.4234L18.1059 15.2272C18.2202 14.8403 18.1518 14.4298 17.9181 14.1009C17.6845 13.7721 17.3195 13.5723 16.9166 13.5528L16.1312 13.5148C16.1172 13.5141 16.1038 13.5086 16.0934 13.499C16.0831 13.4895 16.0764 13.4766 16.0746 13.4626L15.982 12.7525C15.8239 11.5404 14.824 10.6013 13.6044 10.5195C13.0282 10.4808 12.4503 10.4422 12.0909 10.4186C12.0753 10.4177 12.0608 10.4106 12.0504 10.399C12.04 10.3874 12.0346 10.3722 12.0354 10.3566L12.041 10.2322C12.0745 10.2023 12.1011 10.1655 12.119 10.1243C12.6046 9.00341 13.1134 8.15278 13.6722 7.52841L18.637 6.76153C19.4041 6.64302 19.9609 5.99357 19.9609 5.21732V3.5295C19.9613 3.40618 19.9371 3.28402 19.8899 3.17011C19.8426 3.0562 19.7732 2.95282 19.6857 2.86595ZM17.7801 3.70794C17.7483 3.6981 17.7204 3.6783 17.7007 3.65145C17.681 3.6246 17.6704 3.59212 17.6705 3.5588V3.21981L19.0228 3.217H19.0234C19.1068 3.217 19.1852 3.24942 19.2442 3.30833C19.2734 3.33729 19.2965 3.37175 19.3122 3.40971C19.328 3.44768 19.3361 3.4884 19.3359 3.5295V4.19411L17.7801 3.70794Z" fill="black"/>
<path d="M13.3984 13.7109C13.6573 13.7109 13.8672 13.5011 13.8672 13.2422C13.8672 12.9833 13.6573 12.7734 13.3984 12.7734C13.1396 12.7734 12.9297 12.9833 12.9297 13.2422C12.9297 13.5011 13.1396 13.7109 13.3984 13.7109Z" fill="black"/>
</svg>
