<svg width="24" height="24" viewBox="0 0 24 24" fill="none" xmlns="http://www.w3.org/2000/svg">
<g clip-path="url(#clip0_322_1686)">
<path d="M8.4546 13.5757C8.80714 13.2227 9.0005 12.688 8.99999 12.0713C8.99999 11.852 8.9751 11.6245 8.92578 11.395C8.63717 10.0518 7.60302 8.99998 6.57078 8.99998C6.09617 8.99998 5.67627 9.21631 5.38817 9.60889C5.13378 9.95506 4.99949 10.4116 5 10.9287C5 11.1475 5.02489 11.3745 5.0742 11.6045V11.605C5.36277 12.9482 6.39697 14 7.4292 14C7.82272 14 8.17724 13.853 8.4546 13.5757ZM6.05174 11.3955C6.01756 11.2343 5.99999 11.0771 5.99999 10.9282C5.99999 10.6298 6.06885 10.3711 6.19433 10.2002C6.60402 9.63767 7.68064 10.3603 7.94825 11.605C7.98242 11.7656 8 11.9224 8 12.0718C8.00047 12.417 7.90822 12.7075 7.74706 12.8686C7.31394 13.3008 6.30763 12.5845 6.05174 11.3955ZM17.4292 8.99998C16.397 8.99998 15.3628 10.0518 15.0742 11.395C15.0249 11.6245 15 11.852 15 12.0708C14.9995 12.688 15.1929 13.2227 15.5454 13.5757C15.8227 13.853 16.1772 14 16.5708 14C17.603 14 18.6372 12.9482 18.9258 11.605V11.6045C18.9751 11.3745 19 11.1475 19 10.9292C19.0004 10.4116 18.8662 9.95511 18.6118 9.60889C18.3237 9.21631 17.9038 8.99998 17.4292 8.99998ZM17.9482 11.3955C17.6924 12.5845 16.6846 13.3022 16.2529 12.8686C16.0918 12.7075 15.9995 12.417 16 12.0713C16 11.9224 16.0175 11.7656 16.0517 11.605C16.2548 10.6592 16.9409 9.99997 17.4291 9.99997C17.5835 9.99997 17.707 10.0654 17.8056 10.2002C17.9311 10.3711 17.9999 10.6299 17.9999 10.9287C18 11.0772 17.9824 11.2344 17.9482 11.3955ZM16.4419 7.59327V7.5928C16.4749 7.4198 16.494 7.24442 16.499 7.06836C16.5156 6.40916 16.3198 5.83494 15.9468 5.45216C15.6582 5.15623 15.2895 5 14.8799 5C13.8345 5 12.8144 6.05712 12.5581 7.40722C12.5251 7.58022 12.5059 7.75559 12.501 7.93166C12.4844 8.59086 12.6802 9.16508 13.0532 9.54786C13.3418 9.84378 13.7105 10 14.1201 10C15.1655 9.99997 16.1855 8.94284 16.4419 7.59327ZM15.499 7.04394C15.4966 7.16066 15.4829 7.28173 15.4595 7.40675C15.2305 8.60938 14.2173 9.31105 13.7695 8.84961C13.5889 8.66455 13.4912 8.33938 13.501 7.95603C13.5034 7.83931 13.5171 7.71777 13.5405 7.59322C13.7193 6.65427 14.3897 5.99994 14.8799 5.99994C15.0176 5.99994 15.1323 6.04925 15.2305 6.15031C15.4111 6.33542 15.5088 6.66064 15.499 7.04394Z" fill="#484A54"/>
<path d="M12 0C5.38331 0 0 5.38331 0 12C0 18.6167 5.38331 24 12 24C18.6167 24 24 18.6167 24 12C24 5.38331 18.6167 0 12 0ZM12 23C5.93456 23 0.999984 18.0654 0.999984 12C0.999984 9.14691 2.10098 6.55256 3.8888 4.59581L7.95928 8.6663C8.24939 9.17569 8.64905 9.582 9.09816 9.80517L10.6602 11.3672C9.92649 11.8333 9.61819 12.6454 9.41456 13.208C9.3428 13.4058 9.25392 13.6523 9.19238 13.7256C8.98777 13.9722 8.73633 14.2007 8.4697 14.4424C7.78856 15.0601 7.01658 15.7603 6.99998 16.9024C6.99169 17.5069 7.1782 18.0205 7.54003 18.3878C7.93505 18.7882 8.52 19.0001 9.23095 19.0001C10.0312 19.0001 10.5352 18.734 10.9399 18.5201C11.2866 18.337 11.56 18.1924 11.9995 18.1924C12.4394 18.1924 12.7133 18.3369 13.06 18.5201C13.4648 18.734 13.9692 19.0001 14.769 19.0001C15.48 19.0001 16.0649 18.7882 16.4599 18.3878C16.6696 18.175 16.8127 17.9085 16.9009 17.608L19.4041 20.1112C17.4474 21.899 14.8531 23 12 23ZM8.76952 6.15037C9.21581 5.68748 10.23 6.39014 10.4595 7.59277C10.4829 7.71778 10.4966 7.83933 10.499 7.95703C10.5088 8.33934 10.4111 8.66456 10.2305 8.84963C10.0816 9.00239 9.86944 9.01734 9.64589 8.93888L8.77055 8.06353C8.67112 7.86656 8.58684 7.65042 8.54058 7.40681C8.51714 7.2818 8.50345 7.16072 8.50102 7.04306C8.49122 6.66066 8.58886 6.33544 8.76952 6.15037ZM11.3976 12.1046L15.9484 16.6555C15.9668 16.7417 15.9987 16.8224 16 16.9161C16.0049 17.252 15.9199 17.5108 15.7476 17.6856C15.4912 17.9454 15.0742 18 14.769 18C14.2168 18 13.897 17.8311 13.5269 17.6358C13.1333 17.4277 12.6875 17.1924 12 17.1924C11.3125 17.1924 10.8662 17.4278 10.4731 17.6358C10.103 17.8311 9.78319 18 9.23095 18C8.9258 18 8.5088 17.9453 8.25244 17.6856C8.08008 17.5108 7.99509 17.252 8.00002 16.9166C8.01028 16.209 8.5342 15.7335 9.14161 15.1832C9.42188 14.9288 9.71194 14.6656 9.96192 14.3648C10.1348 14.1568 10.2368 13.8751 10.355 13.5484C10.6058 12.8551 10.8488 12.3197 11.3976 12.1046ZM20.1112 19.4042L16.87 16.163C16.6207 15.4354 16.0503 14.914 15.5303 14.4424C15.2636 14.2007 15.0122 13.9722 14.8076 13.7261C14.746 13.6523 14.6572 13.4058 14.5854 13.208C14.2866 12.3823 13.7861 11 11.9994 11C11.9024 11 11.8232 11.0187 11.7335 11.0265L10.5445 9.83756C10.6897 9.76397 10.8265 9.67106 10.9467 9.54783C11.3197 9.165 11.5155 8.59078 11.4989 7.93261C11.494 7.75607 11.4749 7.5802 11.4418 7.40672C11.1854 6.05709 10.1654 4.99997 9.12 4.99997C8.71031 4.99997 8.34169 5.1562 8.05313 5.45212C7.73072 5.78292 7.55044 6.26119 7.51547 6.8085L4.59581 3.8888C6.55256 2.10103 9.14691 0.999984 12 0.999984C18.0654 0.999984 23 5.93456 23 12C23 14.8531 21.899 17.4474 20.1112 19.4042Z" fill="#484A54"/>
</g>
<defs>
<clipPath id="clip0_322_1686">
<rect width="24" height="24" fill="white"/>
</clipPath>
</defs>
</svg>
