<svg width="24" height="24" viewBox="0 0 24 24" fill="none" xmlns="http://www.w3.org/2000/svg">
<g clip-path="url(#clip0_322_987)">
<path d="M23.5456 19.4017C22.7013 17.9211 21.1539 17.6439 20.8519 17.6035C20.8343 17.6011 20.8165 17.5999 20.7987 17.5999H16.5648L16.3972 17.4323C16.6118 17.3577 16.8174 17.2595 17.0103 17.1396C17.2067 17.0172 17.3735 16.8796 17.5211 16.7368L19.0889 17.1848L19.3085 16.4156L18.0542 16.0573C18.2198 15.7745 18.3238 15.5085 18.3818 15.3158C18.3931 15.2783 18.3989 15.2393 18.399 15.2002V14.3783L19.3565 13.9679L19.0417 13.2328L18.399 13.5084V13.2004C18.399 13.1278 18.3792 13.0566 18.3418 12.9944L17.1419 10.9946C17.1106 10.9425 17.0679 10.8983 17.017 10.8651C16.966 10.832 16.9082 10.8109 16.848 10.8034C16.7276 10.7902 16.604 10.8302 16.5164 10.9178L15.4337 12.0005H15.1993V6.96666L15.7649 6.40112H16.278L17.3771 7.13384C17.5611 7.25663 17.809 7.20664 17.9318 7.02306L18.7317 5.82319C18.7756 5.75752 18.7989 5.68035 18.7989 5.60141C18.7989 5.52247 18.7756 5.4453 18.7317 5.37963L17.1319 2.97989C17.0954 2.92505 17.046 2.88007 16.9879 2.84896C16.9299 2.81784 16.865 2.80154 16.7992 2.80151H15.5993C15.525 2.80153 15.4521 2.82223 15.3889 2.86129C15.3257 2.90035 15.2746 2.95624 15.2413 3.02269L14.5522 4.40134H10.2471L9.55754 3.02269C9.5244 2.95622 9.47339 2.90031 9.41022 2.86124C9.34706 2.82217 9.27425 2.80148 9.19998 2.80151H7.60015C7.53652 2.80148 7.47379 2.81668 7.41723 2.84583C7.36066 2.87498 7.31189 2.91725 7.27499 2.9691L5.27521 5.76879C5.22022 5.84581 5.19431 5.93982 5.20207 6.03413C5.20983 6.12844 5.25076 6.21695 5.3176 6.28394L6.11751 7.08385C6.2523 7.21903 6.46348 7.23903 6.62226 7.13384L7.72134 6.40112H8.63444L8.80002 6.56671V10.9142C7.74414 11.2978 4.86125 12.6137 3.62658 15.8581C2.89826 17.7723 3.05985 19.5593 3.32822 20.73L2.40072 20.1732V18.7998C2.40072 18.3422 2.14634 17.9311 1.73759 17.7267C1.32803 17.5219 0.846485 17.5659 0.480525 17.8403C0.180157 18.0659 0.000976562 18.4246 0.000976562 18.7998V21.5995C0.000976562 21.7375 0.0721688 21.8654 0.188956 21.9386L3.38861 23.9384C3.45219 23.9781 3.52563 23.9992 3.60059 23.9992H21.5986C21.6606 23.9992 21.7222 23.9848 21.7774 23.9572L23.3772 23.1573C23.4494 23.1213 23.5089 23.0643 23.548 22.9937C23.5896 22.9193 24.5463 21.1547 23.5456 19.4017ZM12.8 19.9973L10.4314 19.9897L10.429 20.7896L12.7996 20.7972V23.1993H11.9997C11.9997 22.317 11.2822 21.5995 10.3998 21.5995H9.59994C9.59994 19.6149 7.98531 17.9999 6.00033 17.9999H5.60037V18.7998H6.00033C7.54376 18.7998 8.80002 20.0556 8.80002 21.5995V21.9994C8.80002 22.2202 8.9788 22.3994 9.19998 22.3994H10.3998C10.841 22.3994 11.1998 22.7582 11.1998 23.1993H3.71537L0.80089 21.3779V18.7998C0.801013 18.7378 0.815482 18.6766 0.843166 18.6211C0.87085 18.5656 0.910999 18.5172 0.960473 18.4798C1.08446 18.387 1.24084 18.3726 1.37963 18.4422C1.51801 18.5114 1.6008 18.645 1.6008 18.7998V20.3996C1.60085 20.4686 1.61873 20.5364 1.65272 20.5965C1.68671 20.6566 1.73564 20.7068 1.79478 20.7424L3.79457 21.9422C3.86551 21.9849 3.94795 22.0044 4.03048 21.9982C4.11301 21.9919 4.19157 21.9602 4.25532 21.9074C4.31898 21.8546 4.36473 21.7834 4.38629 21.7036C4.40784 21.6237 4.40415 21.5392 4.3757 21.4615C4.07653 20.6472 3.4774 18.4986 4.3741 16.1421C4.4329 15.9873 4.49969 15.8417 4.56648 15.6965L4.56728 15.6969C5.91394 12.7704 8.76123 11.7557 9.31877 11.5822C9.40029 11.557 9.4716 11.5064 9.52221 11.4377C9.57282 11.369 9.60007 11.2859 9.59994 11.2006V6.40112C9.59994 6.29514 9.55794 6.19315 9.48275 6.11835L9.08279 5.7184C9.04572 5.68118 9.00165 5.65166 8.95312 5.63155C8.90459 5.61144 8.85256 5.60113 8.80002 5.60121H7.60015C7.52117 5.60132 7.44397 5.62469 7.37818 5.6684L6.45108 6.28634L6.12271 5.95797L7.80613 3.60143H8.95281L9.64233 4.98008C9.67547 5.04655 9.72649 5.10246 9.78965 5.14153C9.85281 5.1806 9.92562 5.20128 9.99989 5.20125H14.7994C14.951 5.20125 15.0893 5.11566 15.1573 4.98008L15.8465 3.60143H16.5852L17.9182 5.60121L17.4883 6.24634L16.6212 5.6684C16.5554 5.62469 16.4782 5.60132 16.3992 5.60121H15.5993C15.4929 5.60121 15.3913 5.64321 15.3165 5.7184L14.5166 6.51831C14.4794 6.55541 14.4499 6.59948 14.4298 6.64801C14.4097 6.69653 14.3994 6.74855 14.3994 6.80108V12.0005H13.3651L12.2824 10.9178C12.2395 10.8749 12.1873 10.8423 12.1298 10.8225C12.0724 10.8027 12.0112 10.7962 11.9509 10.8034C11.8906 10.8109 11.8327 10.8319 11.7818 10.8651C11.7309 10.8982 11.6882 10.9425 11.6569 10.9946L10.457 12.9944C10.4196 13.0566 10.3998 13.1278 10.3998 13.2004V13.5084L9.75752 13.2332L9.44275 13.9683L10.3998 14.3783V15.2002C10.3998 15.2394 10.4058 15.2782 10.417 15.3158C10.4906 15.5605 10.6358 15.9213 10.8938 16.2877L9.45955 16.8256L9.74072 17.5747L11.4821 16.9216C11.5799 17.0003 11.6824 17.0731 11.7889 17.1396C12.0957 17.3307 12.4396 17.4675 12.8 17.5435V19.9973ZM22.8993 22.5018L21.5042 23.1993H17.887L17.5991 22.3346V21.3207L18.111 20.5528C18.1423 20.5056 18.1847 20.467 18.2345 20.4402C18.2844 20.4135 18.34 20.3996 18.3966 20.3996C18.5694 20.3996 18.6582 20.5136 18.6882 20.5624C18.7185 20.6116 18.7805 20.742 18.7034 20.896L18.441 21.4207C18.4035 21.4958 18.3905 21.5808 18.404 21.6636C18.4175 21.7465 18.4568 21.823 18.5162 21.8822L18.9161 22.2822C18.9532 22.3194 18.9973 22.3489 19.0458 22.3691C19.0943 22.3892 19.1464 22.3995 19.1989 22.3994H21.1987V21.5995H19.3645L19.2857 21.5207L19.4193 21.2539C19.5977 20.8972 19.5785 20.4812 19.3689 20.142C19.1593 19.8029 18.7953 19.5997 18.3966 19.5997C18.2084 19.5996 18.0231 19.646 17.8572 19.7347C17.6913 19.8235 17.5498 19.9519 17.4455 20.1084L16.8664 20.9775C16.8227 21.0434 16.7993 21.1205 16.7992 21.1995V22.3994C16.7992 22.4422 16.8064 22.485 16.82 22.5258L17.0443 23.1993H15.5993V20.3996H14.7994V23.1993H13.5995V17.2C13.5995 17.1003 13.5623 17.0043 13.4952 16.9306C13.4281 16.8569 13.336 16.8109 13.2367 16.8016C12.944 16.7744 12.6692 16.696 12.4152 16.5712L12.9404 16.3744L12.6592 15.6253L11.6753 15.9945C11.4157 15.6881 11.273 15.3642 11.1998 15.139V14.7206L12.2421 15.1674L12.5568 14.4323L11.1998 13.8511V13.3112L12.0789 11.8457L12.9168 12.6832C12.9539 12.7205 12.9979 12.75 13.0465 12.7701C13.095 12.7902 13.147 12.8005 13.1995 12.8004H15.5993C15.7057 12.8004 15.8073 12.7584 15.8821 12.6832L16.72 11.8457L17.5991 13.3112V13.8511L16.2416 14.4327L16.5564 15.1678L17.5991 14.721V15.139C17.5391 15.3234 17.4315 15.5745 17.2527 15.8281L16.5092 15.6157L16.2896 16.3848L16.5768 16.4668C16.2716 16.6544 15.9309 16.7676 15.5625 16.802C15.4869 16.809 15.4148 16.8374 15.3548 16.8839C15.2947 16.9304 15.2491 16.993 15.2233 17.0644C15.1975 17.1357 15.1925 17.213 15.209 17.2871C15.2255 17.3612 15.2628 17.4291 15.3165 17.4827L16.1164 18.2826C16.1535 18.3199 16.1976 18.3494 16.2461 18.3695C16.2946 18.3896 16.3467 18.3999 16.3992 18.3998H20.7703C20.9991 18.4346 22.2082 18.6702 22.8513 19.7981C23.5096 20.9519 23.0597 22.149 22.8993 22.5018Z" fill="#484A54"/>
<path d="M23.6284 5.27765C22.9081 3.27586 20.5699 0.222995 17.0783 0.0182168C14.705 -0.124568 12.8983 1.72563 12.034 2.61354L11.9844 2.66433C11.962 2.64153 11.9393 2.61754 11.9149 2.59234C11.0637 1.70843 9.27914 -0.134567 6.9206 0.00861785C3.42897 0.213396 1.09083 3.26587 0.370505 5.26805C-0.59139 7.94376 0.340109 11.3626 2.92663 14.6478L3.55576 14.1531C1.14322 11.0894 0.256518 7.94936 1.12362 5.53842C1.77155 3.73621 3.86293 0.988912 6.96739 0.806931C8.97117 0.694544 10.5706 2.34956 11.3389 3.14748C11.4857 3.29946 11.6045 3.42225 11.6925 3.50024C11.741 3.54343 11.7994 3.57418 11.8625 3.58983L11.9037 3.59983C11.9667 3.61545 12.0327 3.61545 12.0957 3.59984C12.1588 3.58423 12.2171 3.55347 12.2656 3.51024C12.3508 3.43465 12.4656 3.31706 12.6076 3.17108C13.3887 2.36876 15.0193 0.702943 17.0315 0.81653C20.1364 0.998911 22.2273 3.74621 22.8753 5.54842C23.8612 8.28892 22.5789 11.9449 19.4456 15.3282L20.0324 15.8717C23.3728 12.2649 24.7171 8.30452 23.6284 5.27765Z" fill="#484A54"/>
<path d="M10.3994 6.80103H11.1993V7.60094H10.3994V6.80103ZM12.7992 6.80103H13.5991V7.60094H12.7992V6.80103ZM11.1993 8.40085H12.7992V9.20077H11.1993V8.40085ZM12.7992 13.6003H13.5991V14.4002H12.7992V13.6003ZM15.1989 13.6003H15.9988V14.4002H15.1989V13.6003ZM13.999 14.8002H14.7989V15.6001H13.999V14.8002Z" fill="#484A54"/>
</g>
<defs>
<clipPath id="clip0_322_987">
<rect width="24" height="24" fill="white"/>
</clipPath>
</defs>
</svg>
