<svg width="30" height="30" viewBox="0 0 30 30" fill="none" xmlns="http://www.w3.org/2000/svg">
<g clip-path="url(#clip0_322_1275)">
<path d="M18.2 18.2403V14.5999C18.2 13.9383 17.6616 13.3999 17 13.3999H5.8C5.1384 13.3999 4.6 13.9383 4.6 14.5999V18.2403C3.6884 18.4263 3 19.2343 3 20.1999V26.5999C3 26.8207 3.1792 26.9999 3.4 26.9999H5C5.2208 26.9999 5.4 26.8207 5.4 26.5999V25.3999H17.4V26.5999C17.4 26.8207 17.5792 26.9999 17.8 26.9999H19.4C19.6208 26.9999 19.8 26.8207 19.8 26.5999V20.1999C19.8 19.2343 19.1116 18.4263 18.2 18.2403ZM5.4 14.5999C5.4 14.3795 5.5796 14.1999 5.8 14.1999H17C17.2204 14.1999 17.4 14.3795 17.4 14.5999V18.1999H16.6V16.5999C16.6 15.9383 16.0616 15.3999 15.4 15.3999H13C12.3384 15.3999 11.8 15.9383 11.8 16.5999V18.1999H11V16.5999C11 15.9383 10.4616 15.3999 9.8 15.3999H7.4C6.7384 15.3999 6.2 15.9383 6.2 16.5999V18.1999H5.4V14.5999ZM15.8 16.5999V18.1999H12.6V16.5999C12.6 16.3795 12.7796 16.1999 13 16.1999H15.4C15.6204 16.1999 15.8 16.3795 15.8 16.5999ZM10.2 16.5999V18.1999H7V16.5999C7 16.3795 7.1796 16.1999 7.4 16.1999H9.8C10.0204 16.1999 10.2 16.3795 10.2 16.5999ZM19 26.1999H18.2V24.9999C18.2 24.7791 18.0208 24.5999 17.8 24.5999H5C4.7792 24.5999 4.6 24.7791 4.6 24.9999V26.1999H3.8V22.9999H19V26.1999ZM19 22.1999H3.8V20.1999C3.8 19.5383 4.3384 18.9999 5 18.9999H17.8C18.4616 18.9999 19 19.5383 19 20.1999V22.1999ZM26.6 18.1999H21C20.7792 18.1999 20.6 18.3791 20.6 18.5999V24.5999H21.4V22.1999H26.2V24.5999H27V18.5999C27 18.3791 26.8208 18.1999 26.6 18.1999ZM26.2 21.3999H21.4V18.9999H26.2V21.3999Z" fill="#484A54"/>
<path d="M22.9999 19.8H24.5999V20.6H22.9999V19.8ZM25.7795 14.8732L24.9795 12.4732C24.9529 12.3936 24.9019 12.3244 24.8338 12.2753C24.7656 12.2263 24.6838 12.1999 24.5999 12.2H22.9999C22.9159 12.1999 22.8341 12.2263 22.7659 12.2755C22.6978 12.3246 22.6468 12.3939 22.6203 12.4736L21.8203 14.8736C21.8003 14.9337 21.7948 14.9977 21.8044 15.0604C21.814 15.1231 21.8384 15.1826 21.8755 15.234C21.9126 15.2853 21.9613 15.3272 22.0177 15.3561C22.0741 15.3849 22.1365 15.4 22.1999 15.4H23.3999V16.6H22.5999V17.4H24.9999V16.6H24.1999V15.4H25.3999C25.4633 15.4 25.5258 15.3849 25.5822 15.356C25.6386 15.327 25.6873 15.2851 25.7243 15.2336C25.7613 15.1821 25.7857 15.1226 25.7952 15.06C25.8048 14.9973 25.7994 14.9333 25.7795 14.8732ZM22.7547 14.6L23.2883 13H24.3119L24.8451 14.6H22.7547Z" fill="#484A54"/>
<path d="M26.7636 8.2348L15.1636 3.0348C15.1121 3.01186 15.0564 3 15 3C14.9436 3 14.8879 3.01186 14.8364 3.0348L3.2364 8.2348C3.16599 8.2664 3.10621 8.31769 3.06427 8.38248C3.02233 8.44728 3.00001 8.52281 3 8.6V13.4H3.8V8.8588L15 3.8384L26.2 8.8592V13.4H27V8.6C27 8.52281 26.9777 8.44728 26.9357 8.38248C26.8938 8.31769 26.834 8.2664 26.7636 8.2348Z" fill="#484A54"/>
<path d="M17.7614 8.53355L16.9722 8.66635C16.991 8.77656 17.0003 8.88816 17.0002 8.99995C17.0002 10.1028 16.103 11 15.0002 11C13.8974 11 13.0002 10.1028 13.0002 8.99995C13.0002 7.89715 13.8974 6.99995 15.0002 6.99995C15.229 6.99995 15.4538 7.03835 15.6674 7.11395L15.9338 6.35955C15.634 6.25355 15.3182 6.19958 15.0002 6.19995C13.4562 6.19995 12.2002 7.45595 12.2002 8.99995C12.2002 10.544 13.4562 11.8 15.0002 11.8C16.5442 11.8 17.8002 10.544 17.8002 8.99995C17.8002 8.84368 17.7872 8.68768 17.7614 8.53355Z" fill="#484A54"/>
<path d="M17.517 6.31714L14.9998 8.83434L14.4826 8.31714L13.917 8.88274L14.717 9.68274C14.7541 9.71993 14.7982 9.74943 14.8467 9.76955C14.8952 9.78966 14.9473 9.79999 14.9998 9.79994C15.0523 9.79999 15.1044 9.78966 15.1529 9.76955C15.2014 9.74943 15.2455 9.71993 15.2826 9.68274L18.0826 6.88274L17.517 6.31714Z" fill="#484A54"/>
</g>
<defs>
<clipPath id="clip0_322_1275">
<rect width="24" height="24" fill="white" transform="translate(3 3)"/>
</clipPath>
</defs>
</svg>
