<svg width="24" height="24" viewBox="0 0 24 24" fill="none" xmlns="http://www.w3.org/2000/svg">
<g clip-path="url(#clip0_322_1697)">
<path d="M21.3314 16.7311C21.2442 16.6439 21.1233 16.5938 21 16.5938C20.8767 16.5938 20.7558 16.6439 20.6686 16.7311C20.5809 16.8191 20.5316 16.9382 20.5312 17.0625C20.5312 17.1858 20.5814 17.3067 20.6686 17.3939C20.7558 17.481 20.8767 17.5312 21 17.5312C21.1233 17.5312 21.2442 17.4811 21.3314 17.3939C21.4186 17.3067 21.4688 17.1858 21.4688 17.0625C21.4688 16.9392 21.4186 16.8183 21.3314 16.7311Z" fill="#484A54"/>
<path d="M23.5312 23.0625H21.4688V18.7031C21.4688 18.4443 21.2588 18.2343 21 18.2343C20.7412 18.2343 20.5312 18.4443 20.5312 18.7031V23.0625H5.71875V18.6562C5.71875 18.3974 5.50884 18.1875 5.25 18.1875C4.99116 18.1875 4.78125 18.3974 4.78125 18.6562V23.0625H3.46875V10.7344L12 4.07411L20.5312 10.7344V15.1875C20.5312 15.4463 20.7412 15.6562 21 15.6562C21.2588 15.6562 21.4688 15.4463 21.4688 15.1875V11.4663L21.5507 11.5303C21.633 11.5947 21.7345 11.6297 21.839 11.6296C21.9006 11.6297 21.9615 11.6176 22.0184 11.594C22.0753 11.5705 22.127 11.5359 22.1706 11.4923L23.8613 9.80154C23.9082 9.75459 23.9447 9.6982 23.9682 9.6361C23.9917 9.57401 24.0018 9.50763 23.9977 9.44136C23.9936 9.37508 23.9755 9.31043 23.9446 9.25168C23.9137 9.19293 23.8706 9.14142 23.8183 9.10057L21 6.90035V2.2031C21 1.94421 20.7901 1.73435 20.5312 1.73435H17.8145C17.5556 1.73435 17.3457 1.94421 17.3457 2.2031V4.04744L12.2884 0.0992559C12.206 0.0349361 12.1045 0 12 0C11.8955 0 11.7939 0.0349361 11.7115 0.0992559L0.181688 9.10057C0.129347 9.14142 0.0862829 9.19293 0.0553472 9.25168C0.0244116 9.31043 0.00631025 9.37508 0.00224187 9.44136C-0.00182651 9.50763 0.00823094 9.57401 0.0317482 9.6361C0.0552654 9.6982 0.0917058 9.75459 0.138656 9.80154L1.82939 11.4923C1.91029 11.5732 2.01797 11.6217 2.13215 11.6287C2.24633 11.6357 2.35913 11.6007 2.44931 11.5303L2.53125 11.4663V23.0625H0.46875C0.209906 23.0625 0 23.2724 0 23.5312C0 23.7901 0.209906 24 0.46875 24H23.5312C23.7901 24 24 23.7901 24 23.5312C24 23.2724 23.7901 23.0625 23.5312 23.0625ZM18.2832 2.67185H20.0625V6.16844L18.2832 4.77935V2.67185ZM2.19919 10.5363L1.17638 9.5134L12 1.06338L22.8236 9.5134L21.8008 10.5363L12.2884 3.10994C12.2061 3.04555 12.1045 3.0106 12 3.01066C11.8955 3.01059 11.7939 3.04555 11.7116 3.10994L2.19919 10.5363Z" fill="#484A54"/>
<path d="M16.5 10.2188H7.5C7.24116 10.2188 7.03125 10.4286 7.03125 10.6875V19.6875C7.03125 19.9463 7.24116 20.1562 7.5 20.1562H16.5C16.7588 20.1562 16.9688 19.9463 16.9688 19.6875V10.6875C16.9688 10.4286 16.7588 10.2188 16.5 10.2188ZM11.5312 19.2188H7.96875V15.6562H11.5312V19.2188ZM11.5312 14.7188H7.96875V11.1562H11.5312V14.7188ZM16.0312 19.2188H12.4688V15.6562H16.0312V19.2188ZM16.0312 14.7188H12.4688V11.1562H16.0312V14.7188ZM5.25 16.3362C4.99116 16.3362 4.78125 16.5461 4.78125 16.805V16.8125C4.78125 17.0714 4.99116 17.2813 5.25 17.2813C5.50884 17.2813 5.71875 17.0714 5.71875 16.8125V16.805C5.71875 16.5461 5.50884 16.3362 5.25 16.3362Z" fill="#484A54"/>
</g>
<defs>
<clipPath id="clip0_322_1697">
<rect width="24" height="24" fill="white"/>
</clipPath>
</defs>
</svg>
