<svg width="30" height="30" viewBox="0 0 30 30" fill="none" xmlns="http://www.w3.org/2000/svg">
<path d="M26.3594 11.8062H26.9997V12.4135H26.3594V11.8062Z" fill="#484A54"/>
<path d="M26.9999 11.21V9.61837L23.3279 6.62671L19.8939 9.4504H18.4494L14.9837 6.62671L11.5497 9.4504H10.1052L6.63957 6.62671L3 9.61931V23.3735H26.9999V13.0044H26.3595V17.372H20.9259V18.0124H26.3595V21.8158H20.3326V13.6963H20.9259V13.0559H20.3326V9.91871L23.3298 7.45422L26.3595 9.92265V11.21H26.9999ZM18.6637 10.0907H18.8577V11.0622H19.4981V10.0907H19.6921V13.0559H18.6637V10.0907ZM18.6637 13.6963H19.6922V20.8375H18.6637V13.6963ZM18.6637 21.4779H19.6922V21.8158H18.6637V21.4779ZM11.9804 13.6963H12.5261V13.0559H11.9804V9.92531L14.9856 7.45422L18.0233 9.9292V13.0559H17.4776V13.6963H18.0233V21.8158H11.9804V13.6963ZM10.3115 20.8375V13.6963H11.34V20.8375H10.3115ZM11.34 21.4779V21.8158H10.3115V21.4779H11.34ZM10.3115 10.0907H10.5055V11.0622H11.1459V10.0907H11.3399V13.0559H10.3115V10.0907ZM3.64037 18.0124H9.09579V17.372H3.64037V9.92181L6.64139 7.45422L9.67113 9.9227V13.0559H9.09579V13.6963H9.67113V21.8158H3.64037V18.0124ZM26.3595 22.4561V22.7331H3.64037V22.4561H26.3595Z" fill="#484A54"/>
<path d="M8.14864 13.0559V10.0142H5.2151V13.0559H4.86413V13.6962H8.49961V13.0559H8.14864ZM6.36166 13.0559H5.85547V11.7599H6.36166V13.0559ZM6.36166 11.1195H5.85547V10.6546H6.36166V11.1195ZM7.50822 13.0558H7.00203V11.7598H7.50822V13.0558ZM7.50822 11.1195H7.00203V10.6546H7.50822V11.1195ZM16.4681 13.0558V10.0142H13.5346V13.0558H13.1836V13.6962H16.8191V13.0558H16.4681ZM14.6812 13.0559H14.175V11.7599H14.6812V13.0559ZM14.6812 11.1195H14.175V10.6546H14.6812V11.1195ZM15.8277 13.0558H15.3216V11.7598H15.8277V13.0558ZM15.8277 11.1195H15.3216V10.6546H15.8277V11.1195ZM24.8576 13.0558V10.0142H21.924V13.0558H21.5731V13.6962H25.2086V13.0558H24.8576ZM23.0707 13.0559H22.5644V11.7599H23.0707V13.0559ZM23.0707 11.1195H22.5645V10.6546H23.0707V11.1195ZM24.2172 13.0558H23.7111V11.7598H24.2172V13.0558ZM24.2172 11.1195H23.7111V10.6546H24.2172V11.1195ZM12.5257 17.3719H17.4772V18.0122H12.5257V17.3719ZM4.54395 18.973V21.3902H5.18432V19.6134H6.36166V21.3902H7.00203V19.6134H8.17938V21.3902H8.81975V18.973H4.54395ZM12.9335 18.973V21.3902H13.5739V19.6134H14.7512V21.3902H15.3916V19.6134H16.5689V21.3902H17.2093V18.973H12.9335ZM21.2529 18.973V21.3902H21.8933V19.6134H23.0707V21.3902H23.7111V19.6134H24.8884V21.3902H25.5287V18.973H21.2529ZM5.53672 14.5369V16.8272H7.82693V14.5369H5.53672ZM7.18656 16.1868H6.17709V15.1774H7.18656V16.1868ZM13.8543 14.5369V16.8272H16.1446V14.5369H13.8543ZM15.5043 16.1868H14.4947V15.1774H15.5043V16.1868ZM22.2458 14.5369V16.8272H24.536V14.5369H22.2458ZM23.8955 16.1868H22.8861V15.1774H23.8955V16.1868ZM10.5051 11.5676H11.1454V12.208H10.5051V11.5676ZM18.8575 11.5913H19.4978V12.2317H18.8575V11.5913Z" fill="#484A54"/>
</svg>
