<svg width="24" height="17" viewBox="0 0 24 17" fill="none" xmlns="http://www.w3.org/2000/svg">
<path d="M23.3594 5.1797H23.9997V5.787H23.3594V5.1797Z" fill="#484A54"/>
<path d="M23.9999 4.58379V2.99213L20.3279 0.000456543L16.8939 2.82415H15.4494L11.9837 0.000456543L8.5497 2.82415H7.1052L3.63957 0.000456543L0 2.99306V16.7472H23.9999V6.37815H23.3595V10.7458H17.9259V11.3862H23.3595V15.1895H17.3326V7.06996H17.9259V6.42956H17.3326V3.29246L20.3298 0.827967L23.3595 3.2964V4.58379H23.9999ZM15.6637 3.46446H15.8577V4.43586H16.4981V3.46446H16.6921V6.42956H15.6637V3.46446ZM15.6637 7.06996H16.6922V14.2113H15.6637V7.06996ZM15.6637 14.8516H16.6922V15.1895H15.6637V14.8516ZM8.9804 7.06996H9.5261V6.42956H8.9804V3.29906L11.9856 0.827967L15.0233 3.30295V6.42956H14.4776V7.06996H15.0233V15.1895H8.9804V7.06996ZM7.3115 14.2113V7.06996H8.34V14.2113H7.3115ZM8.34 14.8516V15.1895H7.3115V14.8516H8.34ZM7.3115 3.46446H7.5055V4.43586H8.1459V3.46446H8.3399V6.42956H7.3115V3.46446ZM0.64037 11.3862H6.09579V10.7458H0.64037V3.29557L3.64139 0.827967L6.67113 3.29645V6.42956H6.09579V7.06996H6.67113V15.1895H0.64037V11.3862ZM23.3595 15.8299V16.1069H0.64037V15.8299H23.3595Z" fill="#484A54"/>
<path d="M5.14864 6.42985V3.38818H2.2151V6.42985H1.86413V7.07022H5.49961V6.42985H5.14864ZM3.36166 6.42985H2.85547V5.13389H3.36166V6.42985ZM3.36166 4.49352H2.85547V4.02856H3.36166V4.49352ZM4.50822 6.42978H4.00203V5.13382H4.50822V6.42978ZM4.50822 4.49352H4.00203V4.02856H4.50822V4.49352ZM13.4681 6.42978V3.38818H10.5346V6.42978H10.1836V7.07015H13.8191V6.42978H13.4681ZM11.6812 6.42985H11.175V5.13389H11.6812V6.42985ZM11.6812 4.49352H11.175V4.02856H11.6812V4.49352ZM12.8277 6.42978H12.3216V5.13382H12.8277V6.42978ZM12.8277 4.49352H12.3216V4.02856H12.8277V4.49352ZM21.8576 6.42978V3.38818H18.924V6.42978H18.5731V7.07015H22.2086V6.42978H21.8576ZM20.0707 6.42985H19.5644V5.13389H20.0707V6.42985ZM20.0707 4.49352H19.5645V4.02856H20.0707V4.49352ZM21.2172 6.42978H20.7111V5.13382H21.2172V6.42978ZM21.2172 4.49352H20.7111V4.02856H21.2172V4.49352ZM9.5257 10.7459H14.4772V11.3862H9.5257V10.7459ZM1.54395 12.347V14.7642H2.18432V12.9874H3.36166V14.7642H4.00203V12.9874H5.17938V14.7642H5.81975V12.347H1.54395ZM9.9335 12.347V14.7642H10.5739V12.9874H11.7512V14.7642H12.3916V12.9874H13.5689V14.7642H14.2093V12.347H9.9335ZM18.2529 12.347V14.7642H18.8933V12.9874H20.0707V14.7642H20.7111V12.9874H21.8884V14.7642H22.5287V12.347H18.2529ZM2.53672 7.91089V10.2012H4.82693V7.91089H2.53672ZM4.18656 9.56083H3.17709V8.55133H4.18656V9.56083ZM10.8543 7.91089V10.2012H13.1446V7.91089H10.8543ZM12.5043 9.56083H11.4947V8.55133H12.5043V9.56083ZM19.2458 7.91089V10.2012H21.536V7.91089H19.2458ZM20.8955 9.56083H19.8861V8.55133H20.8955V9.56083ZM7.5051 4.94156H8.1454V5.58193H7.5051V4.94156ZM15.8575 4.96527H16.4978V5.60564H15.8575V4.96527Z" fill="#484A54"/>
</svg>