<svg width="844" height="419" viewBox="0 0 844 419" fill="none" xmlns="http://www.w3.org/2000/svg">
<path d="M216.904 475.122C279.369 489.476 335.514 520.195 378.023 563.276C489.492 675.593 647.078 667.394 701.927 642.082C765.616 612.642 810.031 556.001 829.597 494.666C849.163 433.33 845.916 367.75 831.331 305.354C819.925 256.578 801.012 207.977 765.853 169.271C731.426 131.411 683.635 105.292 636.29 80.7532C575.387 49.224 512.465 18.6422 443.58 5.20198C387.405 -5.77799 319.032 -0.768841 286.181 41.0125C258.127 76.692 265.336 127.645 236.599 162.888C196.343 212.241 109.46 206.269 55.084 243.479C-8.33605 286.866 -14.2708 363.747 24.0332 398.244C63.8655 434.067 147.651 459.381 216.904 475.122Z" fill="#3C8787"/>
</svg>
